M48
; DRILL file {KiCad 7.0.1} date Чт 26 окт 2023 15:35:26
; FORMAT={-:-/ absolute / metric / decimal}
; #@! TF.CreationDate,2023-10-26T15:35:26+00:00
; #@! TF.GenerationSoftware,Kicad,Pcbnew,7.0.1
; #@! TF.FileFunction,Plated,1,2,PTH
FMAT,2
METRIC
; #@! TA.AperFunction,Plated,PTH,ViaDrill
T1C0.400
; #@! TA.AperFunction,Plated,PTH,ComponentDrill
T2C0.650
; #@! TA.AperFunction,Plated,PTH,ComponentDrill
T3C0.700
; #@! TA.AperFunction,Plated,PTH,ComponentDrill
T4C0.800
; #@! TA.AperFunction,Plated,PTH,ComponentDrill
T5C1.000
%
G90
G05
T1
X98.52Y-96.04
X100.93Y-96.04
X116.18Y-125.02
X142.59Y-92.03
X161.725Y-119.2
T2
X107.2Y-119.08
X107.2Y-120.35
T3
X142.46Y-97.4
X142.46Y-98.67
X142.46Y-99.94
X142.46Y-101.21
X142.46Y-102.48
X142.46Y-103.75
X142.46Y-105.02
X142.46Y-106.29
X142.46Y-107.56
X142.46Y-108.83
X166.56Y-96.58
X166.56Y-97.85
X166.56Y-99.12
X166.56Y-100.39
X166.56Y-101.66
X166.56Y-102.93
X166.56Y-104.2
X166.56Y-105.47
X166.56Y-106.74
X166.56Y-108.01
T4
X129.52Y-97.93
X129.52Y-100.47
X129.52Y-103.01
X129.52Y-105.55
X129.52Y-108.09
X129.52Y-110.63
X129.52Y-113.17
X129.52Y-115.71
X137.14Y-97.93
X137.14Y-100.47
X137.14Y-103.01
X137.14Y-105.55
X137.14Y-108.09
X137.14Y-110.63
X137.14Y-113.17
X137.14Y-115.71
X153.8Y-97.09
X153.8Y-99.63
X153.8Y-102.17
X153.8Y-104.71
X153.8Y-107.25
X153.8Y-109.79
X153.8Y-112.33
X153.8Y-114.87
X161.42Y-97.09
X161.42Y-99.63
X161.42Y-102.17
X161.42Y-104.71
X161.42Y-107.25
X161.42Y-109.79
X161.42Y-112.33
X161.42Y-114.87
T5
X101.75Y-98.5
X101.75Y-101.04
X101.75Y-103.58
X101.75Y-106.12
X101.75Y-108.66
X101.75Y-111.2
X101.75Y-113.74
X109.98Y-88.61
X109.98Y-91.15
X109.98Y-93.69
X109.98Y-96.23
X109.98Y-98.77
X109.98Y-101.31
X109.98Y-103.85
X109.98Y-106.39
X109.98Y-108.93
X109.98Y-111.47
X109.98Y-114.01
X109.98Y-116.55
X109.98Y-119.09
X109.98Y-121.63
X109.98Y-124.17
X125.22Y-88.61
X125.22Y-91.15
X125.22Y-93.69
X125.22Y-96.23
X125.22Y-98.77
X125.22Y-101.31
X125.22Y-103.85
X125.22Y-106.39
X125.22Y-108.93
X125.22Y-111.47
X125.22Y-114.01
X125.22Y-116.55
X125.22Y-119.09
X125.22Y-121.63
X125.22Y-124.17
X130.83Y-125.07
X133.37Y-125.07
X135.91Y-125.07
X138.45Y-125.07
X140.99Y-125.07
X141.27Y-87.59
X143.53Y-125.07
X143.81Y-87.59
X146.07Y-125.07
X148.36Y-92.02
X148.36Y-94.56
X148.36Y-97.1
X148.36Y-99.64
X148.36Y-102.18
X148.36Y-104.72
X148.36Y-107.26
X148.36Y-109.8
X148.36Y-112.34
X148.61Y-125.07
X149.19Y-87.57
X151.15Y-125.07
X151.73Y-87.57
X153.69Y-125.07
X156.23Y-125.07
X158.26Y-87.55
X158.77Y-125.07
X160.8Y-87.55
X172.775Y-91.96
X172.775Y-94.5
X172.775Y-97.04
X172.775Y-99.58
X172.775Y-102.12
X172.775Y-104.66
X172.775Y-107.2
X172.775Y-109.74
X172.775Y-112.28
T0
M30
