%TF.GenerationSoftware,KiCad,Pcbnew,7.0.1*%
%TF.CreationDate,2023-10-26T15:35:27+00:00*%
%TF.ProjectId,Control_Board,436f6e74-726f-46c5-9f42-6f6172642e6b,rev?*%
%TF.SameCoordinates,Original*%
%TF.FileFunction,Drillmap*%
%TF.FilePolarity,Positive*%
%FSLAX45Y45*%
G04 Gerber Fmt 4.5, Leading zero omitted, Abs format (unit mm)*
G04 Created by KiCad (PCBNEW 7.0.1) date 2023-10-26 15:35:27*
%MOMM*%
%LPD*%
G01*
G04 APERTURE LIST*
%ADD10C,0.100000*%
%ADD11C,0.200000*%
%ADD12C,0.040000*%
%ADD13C,0.065000*%
%ADD14C,0.070000*%
%ADD15C,0.080000*%
G04 APERTURE END LIST*
D10*
X9686030Y-12697000D02*
G75*
G03*
X9686030Y-12697000I-148030J0D01*
G01*
X17573030Y-8695970D02*
G75*
G03*
X17573030Y-8695970I-148030J0D01*
G01*
X17069032Y-8657500D02*
G75*
G03*
X17069032Y-8657500I-141532J0D01*
G01*
X10265564Y-8657500D02*
G75*
G03*
X10265564Y-8657500I-141532J0D01*
G01*
X9675660Y-8695000D02*
G75*
G03*
X9675660Y-8695000I-146660J0D01*
G01*
X9193000Y-8258000D02*
X17731000Y-8258000D01*
X17731000Y-13181000D01*
X9193000Y-13181000D01*
X9193000Y-8258000D01*
X10311532Y-12567500D02*
G75*
G03*
X10311532Y-12567500I-141532J0D01*
G01*
X17573030Y-12702970D02*
G75*
G03*
X17573030Y-12702970I-148030J0D01*
G01*
X17069532Y-12580000D02*
G75*
G03*
X17069532Y-12580000I-141532J0D01*
G01*
D11*
D12*
X9832000Y-9584000D02*
X9872000Y-9624000D01*
X9872000Y-9584000D02*
X9832000Y-9624000D01*
X10073000Y-9584000D02*
X10113000Y-9624000D01*
X10113000Y-9584000D02*
X10073000Y-9624000D01*
X11598000Y-12482000D02*
X11638000Y-12522000D01*
X11638000Y-12482000D02*
X11598000Y-12522000D01*
X14239000Y-9183000D02*
X14279000Y-9223000D01*
X14279000Y-9183000D02*
X14239000Y-9223000D01*
X16152500Y-11900000D02*
X16192500Y-11940000D01*
X16192500Y-11900000D02*
X16152500Y-11940000D01*
D13*
X10752500Y-11908000D02*
G75*
G03*
X10752500Y-11908000I-32500J0D01*
G01*
X10752500Y-12035000D02*
G75*
G03*
X10752500Y-12035000I-32500J0D01*
G01*
D14*
X14246000Y-9705000D02*
X14246000Y-9775000D01*
X14211000Y-9740000D02*
X14281000Y-9740000D01*
X14246000Y-9832000D02*
X14246000Y-9902000D01*
X14211000Y-9867000D02*
X14281000Y-9867000D01*
X14246000Y-9959000D02*
X14246000Y-10029000D01*
X14211000Y-9994000D02*
X14281000Y-9994000D01*
X14246000Y-10086000D02*
X14246000Y-10156000D01*
X14211000Y-10121000D02*
X14281000Y-10121000D01*
X14246000Y-10213000D02*
X14246000Y-10283000D01*
X14211000Y-10248000D02*
X14281000Y-10248000D01*
X14246000Y-10340000D02*
X14246000Y-10410000D01*
X14211000Y-10375000D02*
X14281000Y-10375000D01*
X14246000Y-10467000D02*
X14246000Y-10537000D01*
X14211000Y-10502000D02*
X14281000Y-10502000D01*
X14246000Y-10594000D02*
X14246000Y-10664000D01*
X14211000Y-10629000D02*
X14281000Y-10629000D01*
X14246000Y-10721000D02*
X14246000Y-10791000D01*
X14211000Y-10756000D02*
X14281000Y-10756000D01*
X14246000Y-10848000D02*
X14246000Y-10918000D01*
X14211000Y-10883000D02*
X14281000Y-10883000D01*
X16656000Y-9623000D02*
X16656000Y-9693000D01*
X16621000Y-9658000D02*
X16691000Y-9658000D01*
X16656000Y-9750000D02*
X16656000Y-9820000D01*
X16621000Y-9785000D02*
X16691000Y-9785000D01*
X16656000Y-9877000D02*
X16656000Y-9947000D01*
X16621000Y-9912000D02*
X16691000Y-9912000D01*
X16656000Y-10004000D02*
X16656000Y-10074000D01*
X16621000Y-10039000D02*
X16691000Y-10039000D01*
X16656000Y-10131000D02*
X16656000Y-10201000D01*
X16621000Y-10166000D02*
X16691000Y-10166000D01*
X16656000Y-10258000D02*
X16656000Y-10328000D01*
X16621000Y-10293000D02*
X16691000Y-10293000D01*
X16656000Y-10385000D02*
X16656000Y-10455000D01*
X16621000Y-10420000D02*
X16691000Y-10420000D01*
X16656000Y-10512000D02*
X16656000Y-10582000D01*
X16621000Y-10547000D02*
X16691000Y-10547000D01*
X16656000Y-10639000D02*
X16656000Y-10709000D01*
X16621000Y-10674000D02*
X16691000Y-10674000D01*
X16656000Y-10766000D02*
X16656000Y-10836000D01*
X16621000Y-10801000D02*
X16691000Y-10801000D01*
D15*
X12980284Y-9821285D02*
X12980284Y-9764716D01*
X12923715Y-9764716D01*
X12923715Y-9821285D01*
X12980284Y-9821285D01*
X12980284Y-10075285D02*
X12980284Y-10018716D01*
X12923715Y-10018716D01*
X12923715Y-10075285D01*
X12980284Y-10075285D01*
X12980284Y-10329285D02*
X12980284Y-10272716D01*
X12923715Y-10272716D01*
X12923715Y-10329285D01*
X12980284Y-10329285D01*
X12980284Y-10583285D02*
X12980284Y-10526716D01*
X12923715Y-10526716D01*
X12923715Y-10583285D01*
X12980284Y-10583285D01*
X12980284Y-10837285D02*
X12980284Y-10780716D01*
X12923715Y-10780716D01*
X12923715Y-10837285D01*
X12980284Y-10837285D01*
X12980284Y-11091285D02*
X12980284Y-11034716D01*
X12923715Y-11034716D01*
X12923715Y-11091285D01*
X12980284Y-11091285D01*
X12980284Y-11345284D02*
X12980284Y-11288715D01*
X12923715Y-11288715D01*
X12923715Y-11345284D01*
X12980284Y-11345284D01*
X12980284Y-11599284D02*
X12980284Y-11542715D01*
X12923715Y-11542715D01*
X12923715Y-11599284D01*
X12980284Y-11599284D01*
X13742284Y-9821285D02*
X13742284Y-9764716D01*
X13685715Y-9764716D01*
X13685715Y-9821285D01*
X13742284Y-9821285D01*
X13742284Y-10075285D02*
X13742284Y-10018716D01*
X13685715Y-10018716D01*
X13685715Y-10075285D01*
X13742284Y-10075285D01*
X13742284Y-10329285D02*
X13742284Y-10272716D01*
X13685715Y-10272716D01*
X13685715Y-10329285D01*
X13742284Y-10329285D01*
X13742284Y-10583285D02*
X13742284Y-10526716D01*
X13685715Y-10526716D01*
X13685715Y-10583285D01*
X13742284Y-10583285D01*
X13742284Y-10837285D02*
X13742284Y-10780716D01*
X13685715Y-10780716D01*
X13685715Y-10837285D01*
X13742284Y-10837285D01*
X13742284Y-11091285D02*
X13742284Y-11034716D01*
X13685715Y-11034716D01*
X13685715Y-11091285D01*
X13742284Y-11091285D01*
X13742284Y-11345284D02*
X13742284Y-11288715D01*
X13685715Y-11288715D01*
X13685715Y-11345284D01*
X13742284Y-11345284D01*
X13742284Y-11599284D02*
X13742284Y-11542715D01*
X13685715Y-11542715D01*
X13685715Y-11599284D01*
X13742284Y-11599284D01*
X15408284Y-9737285D02*
X15408284Y-9680716D01*
X15351715Y-9680716D01*
X15351715Y-9737285D01*
X15408284Y-9737285D01*
X15408284Y-9991285D02*
X15408284Y-9934716D01*
X15351715Y-9934716D01*
X15351715Y-9991285D01*
X15408284Y-9991285D01*
X15408284Y-10245285D02*
X15408284Y-10188716D01*
X15351715Y-10188716D01*
X15351715Y-10245285D01*
X15408284Y-10245285D01*
X15408284Y-10499285D02*
X15408284Y-10442716D01*
X15351715Y-10442716D01*
X15351715Y-10499285D01*
X15408284Y-10499285D01*
X15408284Y-10753285D02*
X15408284Y-10696716D01*
X15351715Y-10696716D01*
X15351715Y-10753285D01*
X15408284Y-10753285D01*
X15408284Y-11007285D02*
X15408284Y-10950716D01*
X15351715Y-10950716D01*
X15351715Y-11007285D01*
X15408284Y-11007285D01*
X15408284Y-11261284D02*
X15408284Y-11204715D01*
X15351715Y-11204715D01*
X15351715Y-11261284D01*
X15408284Y-11261284D01*
X15408284Y-11515284D02*
X15408284Y-11458715D01*
X15351715Y-11458715D01*
X15351715Y-11515284D01*
X15408284Y-11515284D01*
X16170284Y-9737285D02*
X16170284Y-9680716D01*
X16113715Y-9680716D01*
X16113715Y-9737285D01*
X16170284Y-9737285D01*
X16170284Y-9991285D02*
X16170284Y-9934716D01*
X16113715Y-9934716D01*
X16113715Y-9991285D01*
X16170284Y-9991285D01*
X16170284Y-10245285D02*
X16170284Y-10188716D01*
X16113715Y-10188716D01*
X16113715Y-10245285D01*
X16170284Y-10245285D01*
X16170284Y-10499285D02*
X16170284Y-10442716D01*
X16113715Y-10442716D01*
X16113715Y-10499285D01*
X16170284Y-10499285D01*
X16170284Y-10753285D02*
X16170284Y-10696716D01*
X16113715Y-10696716D01*
X16113715Y-10753285D01*
X16170284Y-10753285D01*
X16170284Y-11007285D02*
X16170284Y-10950716D01*
X16113715Y-10950716D01*
X16113715Y-11007285D01*
X16170284Y-11007285D01*
X16170284Y-11261284D02*
X16170284Y-11204715D01*
X16113715Y-11204715D01*
X16113715Y-11261284D01*
X16170284Y-11261284D01*
X16170284Y-11515284D02*
X16170284Y-11458715D01*
X16113715Y-11458715D01*
X16113715Y-11515284D01*
X16170284Y-11515284D01*
D10*
X10175000Y-9900000D02*
X10225000Y-9850000D01*
X10175000Y-9800000D01*
X10125000Y-9850000D01*
X10175000Y-9900000D01*
X10175000Y-10154000D02*
X10225000Y-10104000D01*
X10175000Y-10054000D01*
X10125000Y-10104000D01*
X10175000Y-10154000D01*
X10175000Y-10408000D02*
X10225000Y-10358000D01*
X10175000Y-10308000D01*
X10125000Y-10358000D01*
X10175000Y-10408000D01*
X10175000Y-10662000D02*
X10225000Y-10612000D01*
X10175000Y-10562000D01*
X10125000Y-10612000D01*
X10175000Y-10662000D01*
X10175000Y-10916000D02*
X10225000Y-10866000D01*
X10175000Y-10816000D01*
X10125000Y-10866000D01*
X10175000Y-10916000D01*
X10175000Y-11170000D02*
X10225000Y-11120000D01*
X10175000Y-11070000D01*
X10125000Y-11120000D01*
X10175000Y-11170000D01*
X10175000Y-11424000D02*
X10225000Y-11374000D01*
X10175000Y-11324000D01*
X10125000Y-11374000D01*
X10175000Y-11424000D01*
X10998000Y-8911000D02*
X11048000Y-8861000D01*
X10998000Y-8811000D01*
X10948000Y-8861000D01*
X10998000Y-8911000D01*
X10998000Y-9165000D02*
X11048000Y-9115000D01*
X10998000Y-9065000D01*
X10948000Y-9115000D01*
X10998000Y-9165000D01*
X10998000Y-9419000D02*
X11048000Y-9369000D01*
X10998000Y-9319000D01*
X10948000Y-9369000D01*
X10998000Y-9419000D01*
X10998000Y-9673000D02*
X11048000Y-9623000D01*
X10998000Y-9573000D01*
X10948000Y-9623000D01*
X10998000Y-9673000D01*
X10998000Y-9927000D02*
X11048000Y-9877000D01*
X10998000Y-9827000D01*
X10948000Y-9877000D01*
X10998000Y-9927000D01*
X10998000Y-10181000D02*
X11048000Y-10131000D01*
X10998000Y-10081000D01*
X10948000Y-10131000D01*
X10998000Y-10181000D01*
X10998000Y-10435000D02*
X11048000Y-10385000D01*
X10998000Y-10335000D01*
X10948000Y-10385000D01*
X10998000Y-10435000D01*
X10998000Y-10689000D02*
X11048000Y-10639000D01*
X10998000Y-10589000D01*
X10948000Y-10639000D01*
X10998000Y-10689000D01*
X10998000Y-10943000D02*
X11048000Y-10893000D01*
X10998000Y-10843000D01*
X10948000Y-10893000D01*
X10998000Y-10943000D01*
X10998000Y-11197000D02*
X11048000Y-11147000D01*
X10998000Y-11097000D01*
X10948000Y-11147000D01*
X10998000Y-11197000D01*
X10998000Y-11451000D02*
X11048000Y-11401000D01*
X10998000Y-11351000D01*
X10948000Y-11401000D01*
X10998000Y-11451000D01*
X10998000Y-11705000D02*
X11048000Y-11655000D01*
X10998000Y-11605000D01*
X10948000Y-11655000D01*
X10998000Y-11705000D01*
X10998000Y-11959000D02*
X11048000Y-11909000D01*
X10998000Y-11859000D01*
X10948000Y-11909000D01*
X10998000Y-11959000D01*
X10998000Y-12213000D02*
X11048000Y-12163000D01*
X10998000Y-12113000D01*
X10948000Y-12163000D01*
X10998000Y-12213000D01*
X10998000Y-12467000D02*
X11048000Y-12417000D01*
X10998000Y-12367000D01*
X10948000Y-12417000D01*
X10998000Y-12467000D01*
X12522000Y-8911000D02*
X12572000Y-8861000D01*
X12522000Y-8811000D01*
X12472000Y-8861000D01*
X12522000Y-8911000D01*
X12522000Y-9165000D02*
X12572000Y-9115000D01*
X12522000Y-9065000D01*
X12472000Y-9115000D01*
X12522000Y-9165000D01*
X12522000Y-9419000D02*
X12572000Y-9369000D01*
X12522000Y-9319000D01*
X12472000Y-9369000D01*
X12522000Y-9419000D01*
X12522000Y-9673000D02*
X12572000Y-9623000D01*
X12522000Y-9573000D01*
X12472000Y-9623000D01*
X12522000Y-9673000D01*
X12522000Y-9927000D02*
X12572000Y-9877000D01*
X12522000Y-9827000D01*
X12472000Y-9877000D01*
X12522000Y-9927000D01*
X12522000Y-10181000D02*
X12572000Y-10131000D01*
X12522000Y-10081000D01*
X12472000Y-10131000D01*
X12522000Y-10181000D01*
X12522000Y-10435000D02*
X12572000Y-10385000D01*
X12522000Y-10335000D01*
X12472000Y-10385000D01*
X12522000Y-10435000D01*
X12522000Y-10689000D02*
X12572000Y-10639000D01*
X12522000Y-10589000D01*
X12472000Y-10639000D01*
X12522000Y-10689000D01*
X12522000Y-10943000D02*
X12572000Y-10893000D01*
X12522000Y-10843000D01*
X12472000Y-10893000D01*
X12522000Y-10943000D01*
X12522000Y-11197000D02*
X12572000Y-11147000D01*
X12522000Y-11097000D01*
X12472000Y-11147000D01*
X12522000Y-11197000D01*
X12522000Y-11451000D02*
X12572000Y-11401000D01*
X12522000Y-11351000D01*
X12472000Y-11401000D01*
X12522000Y-11451000D01*
X12522000Y-11705000D02*
X12572000Y-11655000D01*
X12522000Y-11605000D01*
X12472000Y-11655000D01*
X12522000Y-11705000D01*
X12522000Y-11959000D02*
X12572000Y-11909000D01*
X12522000Y-11859000D01*
X12472000Y-11909000D01*
X12522000Y-11959000D01*
X12522000Y-12213000D02*
X12572000Y-12163000D01*
X12522000Y-12113000D01*
X12472000Y-12163000D01*
X12522000Y-12213000D01*
X12522000Y-12467000D02*
X12572000Y-12417000D01*
X12522000Y-12367000D01*
X12472000Y-12417000D01*
X12522000Y-12467000D01*
X13083000Y-12557000D02*
X13133000Y-12507000D01*
X13083000Y-12457000D01*
X13033000Y-12507000D01*
X13083000Y-12557000D01*
X13337000Y-12557000D02*
X13387000Y-12507000D01*
X13337000Y-12457000D01*
X13287000Y-12507000D01*
X13337000Y-12557000D01*
X13591000Y-12557000D02*
X13641000Y-12507000D01*
X13591000Y-12457000D01*
X13541000Y-12507000D01*
X13591000Y-12557000D01*
X13845000Y-12557000D02*
X13895000Y-12507000D01*
X13845000Y-12457000D01*
X13795000Y-12507000D01*
X13845000Y-12557000D01*
X14099000Y-12557000D02*
X14149000Y-12507000D01*
X14099000Y-12457000D01*
X14049000Y-12507000D01*
X14099000Y-12557000D01*
X14127000Y-8809000D02*
X14177000Y-8759000D01*
X14127000Y-8709000D01*
X14077000Y-8759000D01*
X14127000Y-8809000D01*
X14353000Y-12557000D02*
X14403000Y-12507000D01*
X14353000Y-12457000D01*
X14303000Y-12507000D01*
X14353000Y-12557000D01*
X14381000Y-8809000D02*
X14431000Y-8759000D01*
X14381000Y-8709000D01*
X14331000Y-8759000D01*
X14381000Y-8809000D01*
X14607000Y-12557000D02*
X14657000Y-12507000D01*
X14607000Y-12457000D01*
X14557000Y-12507000D01*
X14607000Y-12557000D01*
X14836000Y-9252000D02*
X14886000Y-9202000D01*
X14836000Y-9152000D01*
X14786000Y-9202000D01*
X14836000Y-9252000D01*
X14836000Y-9506000D02*
X14886000Y-9456000D01*
X14836000Y-9406000D01*
X14786000Y-9456000D01*
X14836000Y-9506000D01*
X14836000Y-9760000D02*
X14886000Y-9710000D01*
X14836000Y-9660000D01*
X14786000Y-9710000D01*
X14836000Y-9760000D01*
X14836000Y-10014000D02*
X14886000Y-9964000D01*
X14836000Y-9914000D01*
X14786000Y-9964000D01*
X14836000Y-10014000D01*
X14836000Y-10268000D02*
X14886000Y-10218000D01*
X14836000Y-10168000D01*
X14786000Y-10218000D01*
X14836000Y-10268000D01*
X14836000Y-10522000D02*
X14886000Y-10472000D01*
X14836000Y-10422000D01*
X14786000Y-10472000D01*
X14836000Y-10522000D01*
X14836000Y-10776000D02*
X14886000Y-10726000D01*
X14836000Y-10676000D01*
X14786000Y-10726000D01*
X14836000Y-10776000D01*
X14836000Y-11030000D02*
X14886000Y-10980000D01*
X14836000Y-10930000D01*
X14786000Y-10980000D01*
X14836000Y-11030000D01*
X14836000Y-11284000D02*
X14886000Y-11234000D01*
X14836000Y-11184000D01*
X14786000Y-11234000D01*
X14836000Y-11284000D01*
X14861000Y-12557000D02*
X14911000Y-12507000D01*
X14861000Y-12457000D01*
X14811000Y-12507000D01*
X14861000Y-12557000D01*
X14919000Y-8807000D02*
X14969000Y-8757000D01*
X14919000Y-8707000D01*
X14869000Y-8757000D01*
X14919000Y-8807000D01*
X15115000Y-12557000D02*
X15165000Y-12507000D01*
X15115000Y-12457000D01*
X15065000Y-12507000D01*
X15115000Y-12557000D01*
X15173000Y-8807000D02*
X15223000Y-8757000D01*
X15173000Y-8707000D01*
X15123000Y-8757000D01*
X15173000Y-8807000D01*
X15369000Y-12557000D02*
X15419000Y-12507000D01*
X15369000Y-12457000D01*
X15319000Y-12507000D01*
X15369000Y-12557000D01*
X15623000Y-12557000D02*
X15673000Y-12507000D01*
X15623000Y-12457000D01*
X15573000Y-12507000D01*
X15623000Y-12557000D01*
X15826000Y-8805000D02*
X15876000Y-8755000D01*
X15826000Y-8705000D01*
X15776000Y-8755000D01*
X15826000Y-8805000D01*
X15877000Y-12557000D02*
X15927000Y-12507000D01*
X15877000Y-12457000D01*
X15827000Y-12507000D01*
X15877000Y-12557000D01*
X16080000Y-8805000D02*
X16130000Y-8755000D01*
X16080000Y-8705000D01*
X16030000Y-8755000D01*
X16080000Y-8805000D01*
X17277500Y-9246000D02*
X17327500Y-9196000D01*
X17277500Y-9146000D01*
X17227500Y-9196000D01*
X17277500Y-9246000D01*
X17277500Y-9500000D02*
X17327500Y-9450000D01*
X17277500Y-9400000D01*
X17227500Y-9450000D01*
X17277500Y-9500000D01*
X17277500Y-9754000D02*
X17327500Y-9704000D01*
X17277500Y-9654000D01*
X17227500Y-9704000D01*
X17277500Y-9754000D01*
X17277500Y-10008000D02*
X17327500Y-9958000D01*
X17277500Y-9908000D01*
X17227500Y-9958000D01*
X17277500Y-10008000D01*
X17277500Y-10262000D02*
X17327500Y-10212000D01*
X17277500Y-10162000D01*
X17227500Y-10212000D01*
X17277500Y-10262000D01*
X17277500Y-10516000D02*
X17327500Y-10466000D01*
X17277500Y-10416000D01*
X17227500Y-10466000D01*
X17277500Y-10516000D01*
X17277500Y-10770000D02*
X17327500Y-10720000D01*
X17277500Y-10670000D01*
X17227500Y-10720000D01*
X17277500Y-10770000D01*
X17277500Y-11024000D02*
X17327500Y-10974000D01*
X17277500Y-10924000D01*
X17227500Y-10974000D01*
X17277500Y-11024000D01*
X17277500Y-11278000D02*
X17327500Y-11228000D01*
X17277500Y-11178000D01*
X17227500Y-11228000D01*
X17277500Y-11278000D01*
D11*
X9435619Y-13498524D02*
X9435619Y-13298524D01*
X9435619Y-13298524D02*
X9483238Y-13298524D01*
X9483238Y-13298524D02*
X9511810Y-13308048D01*
X9511810Y-13308048D02*
X9530857Y-13327095D01*
X9530857Y-13327095D02*
X9540381Y-13346143D01*
X9540381Y-13346143D02*
X9549905Y-13384238D01*
X9549905Y-13384238D02*
X9549905Y-13412809D01*
X9549905Y-13412809D02*
X9540381Y-13450905D01*
X9540381Y-13450905D02*
X9530857Y-13469952D01*
X9530857Y-13469952D02*
X9511810Y-13489000D01*
X9511810Y-13489000D02*
X9483238Y-13498524D01*
X9483238Y-13498524D02*
X9435619Y-13498524D01*
X9635619Y-13498524D02*
X9635619Y-13365190D01*
X9635619Y-13403286D02*
X9645143Y-13384238D01*
X9645143Y-13384238D02*
X9654667Y-13374714D01*
X9654667Y-13374714D02*
X9673714Y-13365190D01*
X9673714Y-13365190D02*
X9692762Y-13365190D01*
X9759429Y-13498524D02*
X9759429Y-13365190D01*
X9759429Y-13298524D02*
X9749905Y-13308048D01*
X9749905Y-13308048D02*
X9759429Y-13317571D01*
X9759429Y-13317571D02*
X9768952Y-13308048D01*
X9768952Y-13308048D02*
X9759429Y-13298524D01*
X9759429Y-13298524D02*
X9759429Y-13317571D01*
X9883238Y-13498524D02*
X9864190Y-13489000D01*
X9864190Y-13489000D02*
X9854667Y-13469952D01*
X9854667Y-13469952D02*
X9854667Y-13298524D01*
X9988000Y-13498524D02*
X9968952Y-13489000D01*
X9968952Y-13489000D02*
X9959429Y-13469952D01*
X9959429Y-13469952D02*
X9959429Y-13298524D01*
X10216571Y-13498524D02*
X10216571Y-13298524D01*
X10216571Y-13298524D02*
X10283238Y-13441381D01*
X10283238Y-13441381D02*
X10349905Y-13298524D01*
X10349905Y-13298524D02*
X10349905Y-13498524D01*
X10530857Y-13498524D02*
X10530857Y-13393762D01*
X10530857Y-13393762D02*
X10521333Y-13374714D01*
X10521333Y-13374714D02*
X10502286Y-13365190D01*
X10502286Y-13365190D02*
X10464190Y-13365190D01*
X10464190Y-13365190D02*
X10445143Y-13374714D01*
X10530857Y-13489000D02*
X10511810Y-13498524D01*
X10511810Y-13498524D02*
X10464190Y-13498524D01*
X10464190Y-13498524D02*
X10445143Y-13489000D01*
X10445143Y-13489000D02*
X10435619Y-13469952D01*
X10435619Y-13469952D02*
X10435619Y-13450905D01*
X10435619Y-13450905D02*
X10445143Y-13431857D01*
X10445143Y-13431857D02*
X10464190Y-13422333D01*
X10464190Y-13422333D02*
X10511810Y-13422333D01*
X10511810Y-13422333D02*
X10530857Y-13412809D01*
X10626095Y-13365190D02*
X10626095Y-13565190D01*
X10626095Y-13374714D02*
X10645143Y-13365190D01*
X10645143Y-13365190D02*
X10683238Y-13365190D01*
X10683238Y-13365190D02*
X10702286Y-13374714D01*
X10702286Y-13374714D02*
X10711810Y-13384238D01*
X10711810Y-13384238D02*
X10721333Y-13403286D01*
X10721333Y-13403286D02*
X10721333Y-13460428D01*
X10721333Y-13460428D02*
X10711810Y-13479476D01*
X10711810Y-13479476D02*
X10702286Y-13489000D01*
X10702286Y-13489000D02*
X10683238Y-13498524D01*
X10683238Y-13498524D02*
X10645143Y-13498524D01*
X10645143Y-13498524D02*
X10626095Y-13489000D01*
X10807048Y-13479476D02*
X10816571Y-13489000D01*
X10816571Y-13489000D02*
X10807048Y-13498524D01*
X10807048Y-13498524D02*
X10797524Y-13489000D01*
X10797524Y-13489000D02*
X10807048Y-13479476D01*
X10807048Y-13479476D02*
X10807048Y-13498524D01*
X10807048Y-13374714D02*
X10816571Y-13384238D01*
X10816571Y-13384238D02*
X10807048Y-13393762D01*
X10807048Y-13393762D02*
X10797524Y-13384238D01*
X10797524Y-13384238D02*
X10807048Y-13374714D01*
X10807048Y-13374714D02*
X10807048Y-13393762D01*
D12*
X9148000Y-13806000D02*
X9188000Y-13846000D01*
X9188000Y-13806000D02*
X9148000Y-13846000D01*
D11*
X9473714Y-13718524D02*
X9492762Y-13718524D01*
X9492762Y-13718524D02*
X9511810Y-13728048D01*
X9511810Y-13728048D02*
X9521333Y-13737571D01*
X9521333Y-13737571D02*
X9530857Y-13756619D01*
X9530857Y-13756619D02*
X9540381Y-13794714D01*
X9540381Y-13794714D02*
X9540381Y-13842333D01*
X9540381Y-13842333D02*
X9530857Y-13880428D01*
X9530857Y-13880428D02*
X9521333Y-13899476D01*
X9521333Y-13899476D02*
X9511810Y-13909000D01*
X9511810Y-13909000D02*
X9492762Y-13918524D01*
X9492762Y-13918524D02*
X9473714Y-13918524D01*
X9473714Y-13918524D02*
X9454667Y-13909000D01*
X9454667Y-13909000D02*
X9445143Y-13899476D01*
X9445143Y-13899476D02*
X9435619Y-13880428D01*
X9435619Y-13880428D02*
X9426095Y-13842333D01*
X9426095Y-13842333D02*
X9426095Y-13794714D01*
X9426095Y-13794714D02*
X9435619Y-13756619D01*
X9435619Y-13756619D02*
X9445143Y-13737571D01*
X9445143Y-13737571D02*
X9454667Y-13728048D01*
X9454667Y-13728048D02*
X9473714Y-13718524D01*
X9626095Y-13899476D02*
X9635619Y-13909000D01*
X9635619Y-13909000D02*
X9626095Y-13918524D01*
X9626095Y-13918524D02*
X9616571Y-13909000D01*
X9616571Y-13909000D02*
X9626095Y-13899476D01*
X9626095Y-13899476D02*
X9626095Y-13918524D01*
X9807048Y-13785190D02*
X9807048Y-13918524D01*
X9759429Y-13709000D02*
X9711810Y-13851857D01*
X9711810Y-13851857D02*
X9835619Y-13851857D01*
X9949905Y-13718524D02*
X9968952Y-13718524D01*
X9968952Y-13718524D02*
X9988000Y-13728048D01*
X9988000Y-13728048D02*
X9997524Y-13737571D01*
X9997524Y-13737571D02*
X10007048Y-13756619D01*
X10007048Y-13756619D02*
X10016571Y-13794714D01*
X10016571Y-13794714D02*
X10016571Y-13842333D01*
X10016571Y-13842333D02*
X10007048Y-13880428D01*
X10007048Y-13880428D02*
X9997524Y-13899476D01*
X9997524Y-13899476D02*
X9988000Y-13909000D01*
X9988000Y-13909000D02*
X9968952Y-13918524D01*
X9968952Y-13918524D02*
X9949905Y-13918524D01*
X9949905Y-13918524D02*
X9930857Y-13909000D01*
X9930857Y-13909000D02*
X9921333Y-13899476D01*
X9921333Y-13899476D02*
X9911810Y-13880428D01*
X9911810Y-13880428D02*
X9902286Y-13842333D01*
X9902286Y-13842333D02*
X9902286Y-13794714D01*
X9902286Y-13794714D02*
X9911810Y-13756619D01*
X9911810Y-13756619D02*
X9921333Y-13737571D01*
X9921333Y-13737571D02*
X9930857Y-13728048D01*
X9930857Y-13728048D02*
X9949905Y-13718524D01*
X10140381Y-13718524D02*
X10159429Y-13718524D01*
X10159429Y-13718524D02*
X10178476Y-13728048D01*
X10178476Y-13728048D02*
X10188000Y-13737571D01*
X10188000Y-13737571D02*
X10197524Y-13756619D01*
X10197524Y-13756619D02*
X10207048Y-13794714D01*
X10207048Y-13794714D02*
X10207048Y-13842333D01*
X10207048Y-13842333D02*
X10197524Y-13880428D01*
X10197524Y-13880428D02*
X10188000Y-13899476D01*
X10188000Y-13899476D02*
X10178476Y-13909000D01*
X10178476Y-13909000D02*
X10159429Y-13918524D01*
X10159429Y-13918524D02*
X10140381Y-13918524D01*
X10140381Y-13918524D02*
X10121333Y-13909000D01*
X10121333Y-13909000D02*
X10111810Y-13899476D01*
X10111810Y-13899476D02*
X10102286Y-13880428D01*
X10102286Y-13880428D02*
X10092762Y-13842333D01*
X10092762Y-13842333D02*
X10092762Y-13794714D01*
X10092762Y-13794714D02*
X10102286Y-13756619D01*
X10102286Y-13756619D02*
X10111810Y-13737571D01*
X10111810Y-13737571D02*
X10121333Y-13728048D01*
X10121333Y-13728048D02*
X10140381Y-13718524D01*
X10292762Y-13918524D02*
X10292762Y-13785190D01*
X10292762Y-13804238D02*
X10302286Y-13794714D01*
X10302286Y-13794714D02*
X10321333Y-13785190D01*
X10321333Y-13785190D02*
X10349905Y-13785190D01*
X10349905Y-13785190D02*
X10368952Y-13794714D01*
X10368952Y-13794714D02*
X10378476Y-13813762D01*
X10378476Y-13813762D02*
X10378476Y-13918524D01*
X10378476Y-13813762D02*
X10388000Y-13794714D01*
X10388000Y-13794714D02*
X10407048Y-13785190D01*
X10407048Y-13785190D02*
X10435619Y-13785190D01*
X10435619Y-13785190D02*
X10454667Y-13794714D01*
X10454667Y-13794714D02*
X10464191Y-13813762D01*
X10464191Y-13813762D02*
X10464191Y-13918524D01*
X10559429Y-13918524D02*
X10559429Y-13785190D01*
X10559429Y-13804238D02*
X10568952Y-13794714D01*
X10568952Y-13794714D02*
X10588000Y-13785190D01*
X10588000Y-13785190D02*
X10616572Y-13785190D01*
X10616572Y-13785190D02*
X10635619Y-13794714D01*
X10635619Y-13794714D02*
X10645143Y-13813762D01*
X10645143Y-13813762D02*
X10645143Y-13918524D01*
X10645143Y-13813762D02*
X10654667Y-13794714D01*
X10654667Y-13794714D02*
X10673714Y-13785190D01*
X10673714Y-13785190D02*
X10702286Y-13785190D01*
X10702286Y-13785190D02*
X10721333Y-13794714D01*
X10721333Y-13794714D02*
X10730857Y-13813762D01*
X10730857Y-13813762D02*
X10730857Y-13918524D01*
X11121333Y-13709000D02*
X10949905Y-13966143D01*
X11378476Y-13718524D02*
X11397524Y-13718524D01*
X11397524Y-13718524D02*
X11416572Y-13728048D01*
X11416572Y-13728048D02*
X11426095Y-13737571D01*
X11426095Y-13737571D02*
X11435619Y-13756619D01*
X11435619Y-13756619D02*
X11445143Y-13794714D01*
X11445143Y-13794714D02*
X11445143Y-13842333D01*
X11445143Y-13842333D02*
X11435619Y-13880428D01*
X11435619Y-13880428D02*
X11426095Y-13899476D01*
X11426095Y-13899476D02*
X11416572Y-13909000D01*
X11416572Y-13909000D02*
X11397524Y-13918524D01*
X11397524Y-13918524D02*
X11378476Y-13918524D01*
X11378476Y-13918524D02*
X11359429Y-13909000D01*
X11359429Y-13909000D02*
X11349905Y-13899476D01*
X11349905Y-13899476D02*
X11340381Y-13880428D01*
X11340381Y-13880428D02*
X11330857Y-13842333D01*
X11330857Y-13842333D02*
X11330857Y-13794714D01*
X11330857Y-13794714D02*
X11340381Y-13756619D01*
X11340381Y-13756619D02*
X11349905Y-13737571D01*
X11349905Y-13737571D02*
X11359429Y-13728048D01*
X11359429Y-13728048D02*
X11378476Y-13718524D01*
X11530857Y-13899476D02*
X11540381Y-13909000D01*
X11540381Y-13909000D02*
X11530857Y-13918524D01*
X11530857Y-13918524D02*
X11521333Y-13909000D01*
X11521333Y-13909000D02*
X11530857Y-13899476D01*
X11530857Y-13899476D02*
X11530857Y-13918524D01*
X11664191Y-13718524D02*
X11683238Y-13718524D01*
X11683238Y-13718524D02*
X11702286Y-13728048D01*
X11702286Y-13728048D02*
X11711810Y-13737571D01*
X11711810Y-13737571D02*
X11721333Y-13756619D01*
X11721333Y-13756619D02*
X11730857Y-13794714D01*
X11730857Y-13794714D02*
X11730857Y-13842333D01*
X11730857Y-13842333D02*
X11721333Y-13880428D01*
X11721333Y-13880428D02*
X11711810Y-13899476D01*
X11711810Y-13899476D02*
X11702286Y-13909000D01*
X11702286Y-13909000D02*
X11683238Y-13918524D01*
X11683238Y-13918524D02*
X11664191Y-13918524D01*
X11664191Y-13918524D02*
X11645143Y-13909000D01*
X11645143Y-13909000D02*
X11635619Y-13899476D01*
X11635619Y-13899476D02*
X11626095Y-13880428D01*
X11626095Y-13880428D02*
X11616572Y-13842333D01*
X11616572Y-13842333D02*
X11616572Y-13794714D01*
X11616572Y-13794714D02*
X11626095Y-13756619D01*
X11626095Y-13756619D02*
X11635619Y-13737571D01*
X11635619Y-13737571D02*
X11645143Y-13728048D01*
X11645143Y-13728048D02*
X11664191Y-13718524D01*
X11921333Y-13918524D02*
X11807048Y-13918524D01*
X11864191Y-13918524D02*
X11864191Y-13718524D01*
X11864191Y-13718524D02*
X11845143Y-13747095D01*
X11845143Y-13747095D02*
X11826095Y-13766143D01*
X11826095Y-13766143D02*
X11807048Y-13775667D01*
X12102286Y-13718524D02*
X12007048Y-13718524D01*
X12007048Y-13718524D02*
X11997524Y-13813762D01*
X11997524Y-13813762D02*
X12007048Y-13804238D01*
X12007048Y-13804238D02*
X12026095Y-13794714D01*
X12026095Y-13794714D02*
X12073714Y-13794714D01*
X12073714Y-13794714D02*
X12092762Y-13804238D01*
X12092762Y-13804238D02*
X12102286Y-13813762D01*
X12102286Y-13813762D02*
X12111810Y-13832809D01*
X12111810Y-13832809D02*
X12111810Y-13880428D01*
X12111810Y-13880428D02*
X12102286Y-13899476D01*
X12102286Y-13899476D02*
X12092762Y-13909000D01*
X12092762Y-13909000D02*
X12073714Y-13918524D01*
X12073714Y-13918524D02*
X12026095Y-13918524D01*
X12026095Y-13918524D02*
X12007048Y-13909000D01*
X12007048Y-13909000D02*
X11997524Y-13899476D01*
X12178476Y-13718524D02*
X12311810Y-13718524D01*
X12311810Y-13718524D02*
X12226095Y-13918524D01*
X12378476Y-13718524D02*
X12378476Y-13756619D01*
X12454667Y-13718524D02*
X12454667Y-13756619D01*
X12749905Y-13994714D02*
X12740381Y-13985190D01*
X12740381Y-13985190D02*
X12721334Y-13956619D01*
X12721334Y-13956619D02*
X12711810Y-13937571D01*
X12711810Y-13937571D02*
X12702286Y-13909000D01*
X12702286Y-13909000D02*
X12692762Y-13861381D01*
X12692762Y-13861381D02*
X12692762Y-13823286D01*
X12692762Y-13823286D02*
X12702286Y-13775667D01*
X12702286Y-13775667D02*
X12711810Y-13747095D01*
X12711810Y-13747095D02*
X12721334Y-13728048D01*
X12721334Y-13728048D02*
X12740381Y-13699476D01*
X12740381Y-13699476D02*
X12749905Y-13689952D01*
X12921334Y-13718524D02*
X12826095Y-13718524D01*
X12826095Y-13718524D02*
X12816572Y-13813762D01*
X12816572Y-13813762D02*
X12826095Y-13804238D01*
X12826095Y-13804238D02*
X12845143Y-13794714D01*
X12845143Y-13794714D02*
X12892762Y-13794714D01*
X12892762Y-13794714D02*
X12911810Y-13804238D01*
X12911810Y-13804238D02*
X12921334Y-13813762D01*
X12921334Y-13813762D02*
X12930857Y-13832809D01*
X12930857Y-13832809D02*
X12930857Y-13880428D01*
X12930857Y-13880428D02*
X12921334Y-13899476D01*
X12921334Y-13899476D02*
X12911810Y-13909000D01*
X12911810Y-13909000D02*
X12892762Y-13918524D01*
X12892762Y-13918524D02*
X12845143Y-13918524D01*
X12845143Y-13918524D02*
X12826095Y-13909000D01*
X12826095Y-13909000D02*
X12816572Y-13899476D01*
X13168953Y-13918524D02*
X13168953Y-13718524D01*
X13254667Y-13918524D02*
X13254667Y-13813762D01*
X13254667Y-13813762D02*
X13245143Y-13794714D01*
X13245143Y-13794714D02*
X13226096Y-13785190D01*
X13226096Y-13785190D02*
X13197524Y-13785190D01*
X13197524Y-13785190D02*
X13178476Y-13794714D01*
X13178476Y-13794714D02*
X13168953Y-13804238D01*
X13378476Y-13918524D02*
X13359429Y-13909000D01*
X13359429Y-13909000D02*
X13349905Y-13899476D01*
X13349905Y-13899476D02*
X13340381Y-13880428D01*
X13340381Y-13880428D02*
X13340381Y-13823286D01*
X13340381Y-13823286D02*
X13349905Y-13804238D01*
X13349905Y-13804238D02*
X13359429Y-13794714D01*
X13359429Y-13794714D02*
X13378476Y-13785190D01*
X13378476Y-13785190D02*
X13407048Y-13785190D01*
X13407048Y-13785190D02*
X13426096Y-13794714D01*
X13426096Y-13794714D02*
X13435619Y-13804238D01*
X13435619Y-13804238D02*
X13445143Y-13823286D01*
X13445143Y-13823286D02*
X13445143Y-13880428D01*
X13445143Y-13880428D02*
X13435619Y-13899476D01*
X13435619Y-13899476D02*
X13426096Y-13909000D01*
X13426096Y-13909000D02*
X13407048Y-13918524D01*
X13407048Y-13918524D02*
X13378476Y-13918524D01*
X13559429Y-13918524D02*
X13540381Y-13909000D01*
X13540381Y-13909000D02*
X13530857Y-13889952D01*
X13530857Y-13889952D02*
X13530857Y-13718524D01*
X13711810Y-13909000D02*
X13692762Y-13918524D01*
X13692762Y-13918524D02*
X13654667Y-13918524D01*
X13654667Y-13918524D02*
X13635619Y-13909000D01*
X13635619Y-13909000D02*
X13626096Y-13889952D01*
X13626096Y-13889952D02*
X13626096Y-13813762D01*
X13626096Y-13813762D02*
X13635619Y-13794714D01*
X13635619Y-13794714D02*
X13654667Y-13785190D01*
X13654667Y-13785190D02*
X13692762Y-13785190D01*
X13692762Y-13785190D02*
X13711810Y-13794714D01*
X13711810Y-13794714D02*
X13721334Y-13813762D01*
X13721334Y-13813762D02*
X13721334Y-13832809D01*
X13721334Y-13832809D02*
X13626096Y-13851857D01*
X13797524Y-13909000D02*
X13816572Y-13918524D01*
X13816572Y-13918524D02*
X13854667Y-13918524D01*
X13854667Y-13918524D02*
X13873715Y-13909000D01*
X13873715Y-13909000D02*
X13883238Y-13889952D01*
X13883238Y-13889952D02*
X13883238Y-13880428D01*
X13883238Y-13880428D02*
X13873715Y-13861381D01*
X13873715Y-13861381D02*
X13854667Y-13851857D01*
X13854667Y-13851857D02*
X13826096Y-13851857D01*
X13826096Y-13851857D02*
X13807048Y-13842333D01*
X13807048Y-13842333D02*
X13797524Y-13823286D01*
X13797524Y-13823286D02*
X13797524Y-13813762D01*
X13797524Y-13813762D02*
X13807048Y-13794714D01*
X13807048Y-13794714D02*
X13826096Y-13785190D01*
X13826096Y-13785190D02*
X13854667Y-13785190D01*
X13854667Y-13785190D02*
X13873715Y-13794714D01*
X13949905Y-13994714D02*
X13959429Y-13985190D01*
X13959429Y-13985190D02*
X13978477Y-13956619D01*
X13978477Y-13956619D02*
X13988000Y-13937571D01*
X13988000Y-13937571D02*
X13997524Y-13909000D01*
X13997524Y-13909000D02*
X14007048Y-13861381D01*
X14007048Y-13861381D02*
X14007048Y-13823286D01*
X14007048Y-13823286D02*
X13997524Y-13775667D01*
X13997524Y-13775667D02*
X13988000Y-13747095D01*
X13988000Y-13747095D02*
X13978477Y-13728048D01*
X13978477Y-13728048D02*
X13959429Y-13699476D01*
X13959429Y-13699476D02*
X13949905Y-13689952D01*
D13*
X9188000Y-14090000D02*
G75*
G03*
X9188000Y-14090000I-32500J0D01*
G01*
D11*
X9473714Y-13982524D02*
X9492762Y-13982524D01*
X9492762Y-13982524D02*
X9511810Y-13992048D01*
X9511810Y-13992048D02*
X9521333Y-14001571D01*
X9521333Y-14001571D02*
X9530857Y-14020619D01*
X9530857Y-14020619D02*
X9540381Y-14058714D01*
X9540381Y-14058714D02*
X9540381Y-14106333D01*
X9540381Y-14106333D02*
X9530857Y-14144428D01*
X9530857Y-14144428D02*
X9521333Y-14163476D01*
X9521333Y-14163476D02*
X9511810Y-14173000D01*
X9511810Y-14173000D02*
X9492762Y-14182524D01*
X9492762Y-14182524D02*
X9473714Y-14182524D01*
X9473714Y-14182524D02*
X9454667Y-14173000D01*
X9454667Y-14173000D02*
X9445143Y-14163476D01*
X9445143Y-14163476D02*
X9435619Y-14144428D01*
X9435619Y-14144428D02*
X9426095Y-14106333D01*
X9426095Y-14106333D02*
X9426095Y-14058714D01*
X9426095Y-14058714D02*
X9435619Y-14020619D01*
X9435619Y-14020619D02*
X9445143Y-14001571D01*
X9445143Y-14001571D02*
X9454667Y-13992048D01*
X9454667Y-13992048D02*
X9473714Y-13982524D01*
X9626095Y-14163476D02*
X9635619Y-14173000D01*
X9635619Y-14173000D02*
X9626095Y-14182524D01*
X9626095Y-14182524D02*
X9616571Y-14173000D01*
X9616571Y-14173000D02*
X9626095Y-14163476D01*
X9626095Y-14163476D02*
X9626095Y-14182524D01*
X9807048Y-13982524D02*
X9768952Y-13982524D01*
X9768952Y-13982524D02*
X9749905Y-13992048D01*
X9749905Y-13992048D02*
X9740381Y-14001571D01*
X9740381Y-14001571D02*
X9721333Y-14030143D01*
X9721333Y-14030143D02*
X9711810Y-14068238D01*
X9711810Y-14068238D02*
X9711810Y-14144428D01*
X9711810Y-14144428D02*
X9721333Y-14163476D01*
X9721333Y-14163476D02*
X9730857Y-14173000D01*
X9730857Y-14173000D02*
X9749905Y-14182524D01*
X9749905Y-14182524D02*
X9788000Y-14182524D01*
X9788000Y-14182524D02*
X9807048Y-14173000D01*
X9807048Y-14173000D02*
X9816571Y-14163476D01*
X9816571Y-14163476D02*
X9826095Y-14144428D01*
X9826095Y-14144428D02*
X9826095Y-14096809D01*
X9826095Y-14096809D02*
X9816571Y-14077762D01*
X9816571Y-14077762D02*
X9807048Y-14068238D01*
X9807048Y-14068238D02*
X9788000Y-14058714D01*
X9788000Y-14058714D02*
X9749905Y-14058714D01*
X9749905Y-14058714D02*
X9730857Y-14068238D01*
X9730857Y-14068238D02*
X9721333Y-14077762D01*
X9721333Y-14077762D02*
X9711810Y-14096809D01*
X10007048Y-13982524D02*
X9911810Y-13982524D01*
X9911810Y-13982524D02*
X9902286Y-14077762D01*
X9902286Y-14077762D02*
X9911810Y-14068238D01*
X9911810Y-14068238D02*
X9930857Y-14058714D01*
X9930857Y-14058714D02*
X9978476Y-14058714D01*
X9978476Y-14058714D02*
X9997524Y-14068238D01*
X9997524Y-14068238D02*
X10007048Y-14077762D01*
X10007048Y-14077762D02*
X10016571Y-14096809D01*
X10016571Y-14096809D02*
X10016571Y-14144428D01*
X10016571Y-14144428D02*
X10007048Y-14163476D01*
X10007048Y-14163476D02*
X9997524Y-14173000D01*
X9997524Y-14173000D02*
X9978476Y-14182524D01*
X9978476Y-14182524D02*
X9930857Y-14182524D01*
X9930857Y-14182524D02*
X9911810Y-14173000D01*
X9911810Y-14173000D02*
X9902286Y-14163476D01*
X10140381Y-13982524D02*
X10159429Y-13982524D01*
X10159429Y-13982524D02*
X10178476Y-13992048D01*
X10178476Y-13992048D02*
X10188000Y-14001571D01*
X10188000Y-14001571D02*
X10197524Y-14020619D01*
X10197524Y-14020619D02*
X10207048Y-14058714D01*
X10207048Y-14058714D02*
X10207048Y-14106333D01*
X10207048Y-14106333D02*
X10197524Y-14144428D01*
X10197524Y-14144428D02*
X10188000Y-14163476D01*
X10188000Y-14163476D02*
X10178476Y-14173000D01*
X10178476Y-14173000D02*
X10159429Y-14182524D01*
X10159429Y-14182524D02*
X10140381Y-14182524D01*
X10140381Y-14182524D02*
X10121333Y-14173000D01*
X10121333Y-14173000D02*
X10111810Y-14163476D01*
X10111810Y-14163476D02*
X10102286Y-14144428D01*
X10102286Y-14144428D02*
X10092762Y-14106333D01*
X10092762Y-14106333D02*
X10092762Y-14058714D01*
X10092762Y-14058714D02*
X10102286Y-14020619D01*
X10102286Y-14020619D02*
X10111810Y-14001571D01*
X10111810Y-14001571D02*
X10121333Y-13992048D01*
X10121333Y-13992048D02*
X10140381Y-13982524D01*
X10292762Y-14182524D02*
X10292762Y-14049190D01*
X10292762Y-14068238D02*
X10302286Y-14058714D01*
X10302286Y-14058714D02*
X10321333Y-14049190D01*
X10321333Y-14049190D02*
X10349905Y-14049190D01*
X10349905Y-14049190D02*
X10368952Y-14058714D01*
X10368952Y-14058714D02*
X10378476Y-14077762D01*
X10378476Y-14077762D02*
X10378476Y-14182524D01*
X10378476Y-14077762D02*
X10388000Y-14058714D01*
X10388000Y-14058714D02*
X10407048Y-14049190D01*
X10407048Y-14049190D02*
X10435619Y-14049190D01*
X10435619Y-14049190D02*
X10454667Y-14058714D01*
X10454667Y-14058714D02*
X10464191Y-14077762D01*
X10464191Y-14077762D02*
X10464191Y-14182524D01*
X10559429Y-14182524D02*
X10559429Y-14049190D01*
X10559429Y-14068238D02*
X10568952Y-14058714D01*
X10568952Y-14058714D02*
X10588000Y-14049190D01*
X10588000Y-14049190D02*
X10616572Y-14049190D01*
X10616572Y-14049190D02*
X10635619Y-14058714D01*
X10635619Y-14058714D02*
X10645143Y-14077762D01*
X10645143Y-14077762D02*
X10645143Y-14182524D01*
X10645143Y-14077762D02*
X10654667Y-14058714D01*
X10654667Y-14058714D02*
X10673714Y-14049190D01*
X10673714Y-14049190D02*
X10702286Y-14049190D01*
X10702286Y-14049190D02*
X10721333Y-14058714D01*
X10721333Y-14058714D02*
X10730857Y-14077762D01*
X10730857Y-14077762D02*
X10730857Y-14182524D01*
X11121333Y-13973000D02*
X10949905Y-14230143D01*
X11378476Y-13982524D02*
X11397524Y-13982524D01*
X11397524Y-13982524D02*
X11416572Y-13992048D01*
X11416572Y-13992048D02*
X11426095Y-14001571D01*
X11426095Y-14001571D02*
X11435619Y-14020619D01*
X11435619Y-14020619D02*
X11445143Y-14058714D01*
X11445143Y-14058714D02*
X11445143Y-14106333D01*
X11445143Y-14106333D02*
X11435619Y-14144428D01*
X11435619Y-14144428D02*
X11426095Y-14163476D01*
X11426095Y-14163476D02*
X11416572Y-14173000D01*
X11416572Y-14173000D02*
X11397524Y-14182524D01*
X11397524Y-14182524D02*
X11378476Y-14182524D01*
X11378476Y-14182524D02*
X11359429Y-14173000D01*
X11359429Y-14173000D02*
X11349905Y-14163476D01*
X11349905Y-14163476D02*
X11340381Y-14144428D01*
X11340381Y-14144428D02*
X11330857Y-14106333D01*
X11330857Y-14106333D02*
X11330857Y-14058714D01*
X11330857Y-14058714D02*
X11340381Y-14020619D01*
X11340381Y-14020619D02*
X11349905Y-14001571D01*
X11349905Y-14001571D02*
X11359429Y-13992048D01*
X11359429Y-13992048D02*
X11378476Y-13982524D01*
X11530857Y-14163476D02*
X11540381Y-14173000D01*
X11540381Y-14173000D02*
X11530857Y-14182524D01*
X11530857Y-14182524D02*
X11521333Y-14173000D01*
X11521333Y-14173000D02*
X11530857Y-14163476D01*
X11530857Y-14163476D02*
X11530857Y-14182524D01*
X11664191Y-13982524D02*
X11683238Y-13982524D01*
X11683238Y-13982524D02*
X11702286Y-13992048D01*
X11702286Y-13992048D02*
X11711810Y-14001571D01*
X11711810Y-14001571D02*
X11721333Y-14020619D01*
X11721333Y-14020619D02*
X11730857Y-14058714D01*
X11730857Y-14058714D02*
X11730857Y-14106333D01*
X11730857Y-14106333D02*
X11721333Y-14144428D01*
X11721333Y-14144428D02*
X11711810Y-14163476D01*
X11711810Y-14163476D02*
X11702286Y-14173000D01*
X11702286Y-14173000D02*
X11683238Y-14182524D01*
X11683238Y-14182524D02*
X11664191Y-14182524D01*
X11664191Y-14182524D02*
X11645143Y-14173000D01*
X11645143Y-14173000D02*
X11635619Y-14163476D01*
X11635619Y-14163476D02*
X11626095Y-14144428D01*
X11626095Y-14144428D02*
X11616572Y-14106333D01*
X11616572Y-14106333D02*
X11616572Y-14058714D01*
X11616572Y-14058714D02*
X11626095Y-14020619D01*
X11626095Y-14020619D02*
X11635619Y-14001571D01*
X11635619Y-14001571D02*
X11645143Y-13992048D01*
X11645143Y-13992048D02*
X11664191Y-13982524D01*
X11807048Y-14001571D02*
X11816572Y-13992048D01*
X11816572Y-13992048D02*
X11835619Y-13982524D01*
X11835619Y-13982524D02*
X11883238Y-13982524D01*
X11883238Y-13982524D02*
X11902286Y-13992048D01*
X11902286Y-13992048D02*
X11911810Y-14001571D01*
X11911810Y-14001571D02*
X11921333Y-14020619D01*
X11921333Y-14020619D02*
X11921333Y-14039667D01*
X11921333Y-14039667D02*
X11911810Y-14068238D01*
X11911810Y-14068238D02*
X11797524Y-14182524D01*
X11797524Y-14182524D02*
X11921333Y-14182524D01*
X12102286Y-13982524D02*
X12007048Y-13982524D01*
X12007048Y-13982524D02*
X11997524Y-14077762D01*
X11997524Y-14077762D02*
X12007048Y-14068238D01*
X12007048Y-14068238D02*
X12026095Y-14058714D01*
X12026095Y-14058714D02*
X12073714Y-14058714D01*
X12073714Y-14058714D02*
X12092762Y-14068238D01*
X12092762Y-14068238D02*
X12102286Y-14077762D01*
X12102286Y-14077762D02*
X12111810Y-14096809D01*
X12111810Y-14096809D02*
X12111810Y-14144428D01*
X12111810Y-14144428D02*
X12102286Y-14163476D01*
X12102286Y-14163476D02*
X12092762Y-14173000D01*
X12092762Y-14173000D02*
X12073714Y-14182524D01*
X12073714Y-14182524D02*
X12026095Y-14182524D01*
X12026095Y-14182524D02*
X12007048Y-14173000D01*
X12007048Y-14173000D02*
X11997524Y-14163476D01*
X12283238Y-13982524D02*
X12245143Y-13982524D01*
X12245143Y-13982524D02*
X12226095Y-13992048D01*
X12226095Y-13992048D02*
X12216572Y-14001571D01*
X12216572Y-14001571D02*
X12197524Y-14030143D01*
X12197524Y-14030143D02*
X12188000Y-14068238D01*
X12188000Y-14068238D02*
X12188000Y-14144428D01*
X12188000Y-14144428D02*
X12197524Y-14163476D01*
X12197524Y-14163476D02*
X12207048Y-14173000D01*
X12207048Y-14173000D02*
X12226095Y-14182524D01*
X12226095Y-14182524D02*
X12264191Y-14182524D01*
X12264191Y-14182524D02*
X12283238Y-14173000D01*
X12283238Y-14173000D02*
X12292762Y-14163476D01*
X12292762Y-14163476D02*
X12302286Y-14144428D01*
X12302286Y-14144428D02*
X12302286Y-14096809D01*
X12302286Y-14096809D02*
X12292762Y-14077762D01*
X12292762Y-14077762D02*
X12283238Y-14068238D01*
X12283238Y-14068238D02*
X12264191Y-14058714D01*
X12264191Y-14058714D02*
X12226095Y-14058714D01*
X12226095Y-14058714D02*
X12207048Y-14068238D01*
X12207048Y-14068238D02*
X12197524Y-14077762D01*
X12197524Y-14077762D02*
X12188000Y-14096809D01*
X12378476Y-13982524D02*
X12378476Y-14020619D01*
X12454667Y-13982524D02*
X12454667Y-14020619D01*
X12749905Y-14258714D02*
X12740381Y-14249190D01*
X12740381Y-14249190D02*
X12721334Y-14220619D01*
X12721334Y-14220619D02*
X12711810Y-14201571D01*
X12711810Y-14201571D02*
X12702286Y-14173000D01*
X12702286Y-14173000D02*
X12692762Y-14125381D01*
X12692762Y-14125381D02*
X12692762Y-14087286D01*
X12692762Y-14087286D02*
X12702286Y-14039667D01*
X12702286Y-14039667D02*
X12711810Y-14011095D01*
X12711810Y-14011095D02*
X12721334Y-13992048D01*
X12721334Y-13992048D02*
X12740381Y-13963476D01*
X12740381Y-13963476D02*
X12749905Y-13953952D01*
X12816572Y-14001571D02*
X12826095Y-13992048D01*
X12826095Y-13992048D02*
X12845143Y-13982524D01*
X12845143Y-13982524D02*
X12892762Y-13982524D01*
X12892762Y-13982524D02*
X12911810Y-13992048D01*
X12911810Y-13992048D02*
X12921334Y-14001571D01*
X12921334Y-14001571D02*
X12930857Y-14020619D01*
X12930857Y-14020619D02*
X12930857Y-14039667D01*
X12930857Y-14039667D02*
X12921334Y-14068238D01*
X12921334Y-14068238D02*
X12807048Y-14182524D01*
X12807048Y-14182524D02*
X12930857Y-14182524D01*
X13168953Y-14182524D02*
X13168953Y-13982524D01*
X13254667Y-14182524D02*
X13254667Y-14077762D01*
X13254667Y-14077762D02*
X13245143Y-14058714D01*
X13245143Y-14058714D02*
X13226096Y-14049190D01*
X13226096Y-14049190D02*
X13197524Y-14049190D01*
X13197524Y-14049190D02*
X13178476Y-14058714D01*
X13178476Y-14058714D02*
X13168953Y-14068238D01*
X13378476Y-14182524D02*
X13359429Y-14173000D01*
X13359429Y-14173000D02*
X13349905Y-14163476D01*
X13349905Y-14163476D02*
X13340381Y-14144428D01*
X13340381Y-14144428D02*
X13340381Y-14087286D01*
X13340381Y-14087286D02*
X13349905Y-14068238D01*
X13349905Y-14068238D02*
X13359429Y-14058714D01*
X13359429Y-14058714D02*
X13378476Y-14049190D01*
X13378476Y-14049190D02*
X13407048Y-14049190D01*
X13407048Y-14049190D02*
X13426096Y-14058714D01*
X13426096Y-14058714D02*
X13435619Y-14068238D01*
X13435619Y-14068238D02*
X13445143Y-14087286D01*
X13445143Y-14087286D02*
X13445143Y-14144428D01*
X13445143Y-14144428D02*
X13435619Y-14163476D01*
X13435619Y-14163476D02*
X13426096Y-14173000D01*
X13426096Y-14173000D02*
X13407048Y-14182524D01*
X13407048Y-14182524D02*
X13378476Y-14182524D01*
X13559429Y-14182524D02*
X13540381Y-14173000D01*
X13540381Y-14173000D02*
X13530857Y-14153952D01*
X13530857Y-14153952D02*
X13530857Y-13982524D01*
X13711810Y-14173000D02*
X13692762Y-14182524D01*
X13692762Y-14182524D02*
X13654667Y-14182524D01*
X13654667Y-14182524D02*
X13635619Y-14173000D01*
X13635619Y-14173000D02*
X13626096Y-14153952D01*
X13626096Y-14153952D02*
X13626096Y-14077762D01*
X13626096Y-14077762D02*
X13635619Y-14058714D01*
X13635619Y-14058714D02*
X13654667Y-14049190D01*
X13654667Y-14049190D02*
X13692762Y-14049190D01*
X13692762Y-14049190D02*
X13711810Y-14058714D01*
X13711810Y-14058714D02*
X13721334Y-14077762D01*
X13721334Y-14077762D02*
X13721334Y-14096809D01*
X13721334Y-14096809D02*
X13626096Y-14115857D01*
X13797524Y-14173000D02*
X13816572Y-14182524D01*
X13816572Y-14182524D02*
X13854667Y-14182524D01*
X13854667Y-14182524D02*
X13873715Y-14173000D01*
X13873715Y-14173000D02*
X13883238Y-14153952D01*
X13883238Y-14153952D02*
X13883238Y-14144428D01*
X13883238Y-14144428D02*
X13873715Y-14125381D01*
X13873715Y-14125381D02*
X13854667Y-14115857D01*
X13854667Y-14115857D02*
X13826096Y-14115857D01*
X13826096Y-14115857D02*
X13807048Y-14106333D01*
X13807048Y-14106333D02*
X13797524Y-14087286D01*
X13797524Y-14087286D02*
X13797524Y-14077762D01*
X13797524Y-14077762D02*
X13807048Y-14058714D01*
X13807048Y-14058714D02*
X13826096Y-14049190D01*
X13826096Y-14049190D02*
X13854667Y-14049190D01*
X13854667Y-14049190D02*
X13873715Y-14058714D01*
X13949905Y-14258714D02*
X13959429Y-14249190D01*
X13959429Y-14249190D02*
X13978477Y-14220619D01*
X13978477Y-14220619D02*
X13988000Y-14201571D01*
X13988000Y-14201571D02*
X13997524Y-14173000D01*
X13997524Y-14173000D02*
X14007048Y-14125381D01*
X14007048Y-14125381D02*
X14007048Y-14087286D01*
X14007048Y-14087286D02*
X13997524Y-14039667D01*
X13997524Y-14039667D02*
X13988000Y-14011095D01*
X13988000Y-14011095D02*
X13978477Y-13992048D01*
X13978477Y-13992048D02*
X13959429Y-13963476D01*
X13959429Y-13963476D02*
X13949905Y-13953952D01*
D14*
X9153000Y-14319000D02*
X9153000Y-14389000D01*
X9118000Y-14354000D02*
X9188000Y-14354000D01*
D11*
X9473714Y-14246524D02*
X9492762Y-14246524D01*
X9492762Y-14246524D02*
X9511810Y-14256048D01*
X9511810Y-14256048D02*
X9521333Y-14265571D01*
X9521333Y-14265571D02*
X9530857Y-14284619D01*
X9530857Y-14284619D02*
X9540381Y-14322714D01*
X9540381Y-14322714D02*
X9540381Y-14370333D01*
X9540381Y-14370333D02*
X9530857Y-14408428D01*
X9530857Y-14408428D02*
X9521333Y-14427476D01*
X9521333Y-14427476D02*
X9511810Y-14437000D01*
X9511810Y-14437000D02*
X9492762Y-14446524D01*
X9492762Y-14446524D02*
X9473714Y-14446524D01*
X9473714Y-14446524D02*
X9454667Y-14437000D01*
X9454667Y-14437000D02*
X9445143Y-14427476D01*
X9445143Y-14427476D02*
X9435619Y-14408428D01*
X9435619Y-14408428D02*
X9426095Y-14370333D01*
X9426095Y-14370333D02*
X9426095Y-14322714D01*
X9426095Y-14322714D02*
X9435619Y-14284619D01*
X9435619Y-14284619D02*
X9445143Y-14265571D01*
X9445143Y-14265571D02*
X9454667Y-14256048D01*
X9454667Y-14256048D02*
X9473714Y-14246524D01*
X9626095Y-14427476D02*
X9635619Y-14437000D01*
X9635619Y-14437000D02*
X9626095Y-14446524D01*
X9626095Y-14446524D02*
X9616571Y-14437000D01*
X9616571Y-14437000D02*
X9626095Y-14427476D01*
X9626095Y-14427476D02*
X9626095Y-14446524D01*
X9702286Y-14246524D02*
X9835619Y-14246524D01*
X9835619Y-14246524D02*
X9749905Y-14446524D01*
X9949905Y-14246524D02*
X9968952Y-14246524D01*
X9968952Y-14246524D02*
X9988000Y-14256048D01*
X9988000Y-14256048D02*
X9997524Y-14265571D01*
X9997524Y-14265571D02*
X10007048Y-14284619D01*
X10007048Y-14284619D02*
X10016571Y-14322714D01*
X10016571Y-14322714D02*
X10016571Y-14370333D01*
X10016571Y-14370333D02*
X10007048Y-14408428D01*
X10007048Y-14408428D02*
X9997524Y-14427476D01*
X9997524Y-14427476D02*
X9988000Y-14437000D01*
X9988000Y-14437000D02*
X9968952Y-14446524D01*
X9968952Y-14446524D02*
X9949905Y-14446524D01*
X9949905Y-14446524D02*
X9930857Y-14437000D01*
X9930857Y-14437000D02*
X9921333Y-14427476D01*
X9921333Y-14427476D02*
X9911810Y-14408428D01*
X9911810Y-14408428D02*
X9902286Y-14370333D01*
X9902286Y-14370333D02*
X9902286Y-14322714D01*
X9902286Y-14322714D02*
X9911810Y-14284619D01*
X9911810Y-14284619D02*
X9921333Y-14265571D01*
X9921333Y-14265571D02*
X9930857Y-14256048D01*
X9930857Y-14256048D02*
X9949905Y-14246524D01*
X10140381Y-14246524D02*
X10159429Y-14246524D01*
X10159429Y-14246524D02*
X10178476Y-14256048D01*
X10178476Y-14256048D02*
X10188000Y-14265571D01*
X10188000Y-14265571D02*
X10197524Y-14284619D01*
X10197524Y-14284619D02*
X10207048Y-14322714D01*
X10207048Y-14322714D02*
X10207048Y-14370333D01*
X10207048Y-14370333D02*
X10197524Y-14408428D01*
X10197524Y-14408428D02*
X10188000Y-14427476D01*
X10188000Y-14427476D02*
X10178476Y-14437000D01*
X10178476Y-14437000D02*
X10159429Y-14446524D01*
X10159429Y-14446524D02*
X10140381Y-14446524D01*
X10140381Y-14446524D02*
X10121333Y-14437000D01*
X10121333Y-14437000D02*
X10111810Y-14427476D01*
X10111810Y-14427476D02*
X10102286Y-14408428D01*
X10102286Y-14408428D02*
X10092762Y-14370333D01*
X10092762Y-14370333D02*
X10092762Y-14322714D01*
X10092762Y-14322714D02*
X10102286Y-14284619D01*
X10102286Y-14284619D02*
X10111810Y-14265571D01*
X10111810Y-14265571D02*
X10121333Y-14256048D01*
X10121333Y-14256048D02*
X10140381Y-14246524D01*
X10292762Y-14446524D02*
X10292762Y-14313190D01*
X10292762Y-14332238D02*
X10302286Y-14322714D01*
X10302286Y-14322714D02*
X10321333Y-14313190D01*
X10321333Y-14313190D02*
X10349905Y-14313190D01*
X10349905Y-14313190D02*
X10368952Y-14322714D01*
X10368952Y-14322714D02*
X10378476Y-14341762D01*
X10378476Y-14341762D02*
X10378476Y-14446524D01*
X10378476Y-14341762D02*
X10388000Y-14322714D01*
X10388000Y-14322714D02*
X10407048Y-14313190D01*
X10407048Y-14313190D02*
X10435619Y-14313190D01*
X10435619Y-14313190D02*
X10454667Y-14322714D01*
X10454667Y-14322714D02*
X10464191Y-14341762D01*
X10464191Y-14341762D02*
X10464191Y-14446524D01*
X10559429Y-14446524D02*
X10559429Y-14313190D01*
X10559429Y-14332238D02*
X10568952Y-14322714D01*
X10568952Y-14322714D02*
X10588000Y-14313190D01*
X10588000Y-14313190D02*
X10616572Y-14313190D01*
X10616572Y-14313190D02*
X10635619Y-14322714D01*
X10635619Y-14322714D02*
X10645143Y-14341762D01*
X10645143Y-14341762D02*
X10645143Y-14446524D01*
X10645143Y-14341762D02*
X10654667Y-14322714D01*
X10654667Y-14322714D02*
X10673714Y-14313190D01*
X10673714Y-14313190D02*
X10702286Y-14313190D01*
X10702286Y-14313190D02*
X10721333Y-14322714D01*
X10721333Y-14322714D02*
X10730857Y-14341762D01*
X10730857Y-14341762D02*
X10730857Y-14446524D01*
X11121333Y-14237000D02*
X10949905Y-14494143D01*
X11378476Y-14246524D02*
X11397524Y-14246524D01*
X11397524Y-14246524D02*
X11416572Y-14256048D01*
X11416572Y-14256048D02*
X11426095Y-14265571D01*
X11426095Y-14265571D02*
X11435619Y-14284619D01*
X11435619Y-14284619D02*
X11445143Y-14322714D01*
X11445143Y-14322714D02*
X11445143Y-14370333D01*
X11445143Y-14370333D02*
X11435619Y-14408428D01*
X11435619Y-14408428D02*
X11426095Y-14427476D01*
X11426095Y-14427476D02*
X11416572Y-14437000D01*
X11416572Y-14437000D02*
X11397524Y-14446524D01*
X11397524Y-14446524D02*
X11378476Y-14446524D01*
X11378476Y-14446524D02*
X11359429Y-14437000D01*
X11359429Y-14437000D02*
X11349905Y-14427476D01*
X11349905Y-14427476D02*
X11340381Y-14408428D01*
X11340381Y-14408428D02*
X11330857Y-14370333D01*
X11330857Y-14370333D02*
X11330857Y-14322714D01*
X11330857Y-14322714D02*
X11340381Y-14284619D01*
X11340381Y-14284619D02*
X11349905Y-14265571D01*
X11349905Y-14265571D02*
X11359429Y-14256048D01*
X11359429Y-14256048D02*
X11378476Y-14246524D01*
X11530857Y-14427476D02*
X11540381Y-14437000D01*
X11540381Y-14437000D02*
X11530857Y-14446524D01*
X11530857Y-14446524D02*
X11521333Y-14437000D01*
X11521333Y-14437000D02*
X11530857Y-14427476D01*
X11530857Y-14427476D02*
X11530857Y-14446524D01*
X11664191Y-14246524D02*
X11683238Y-14246524D01*
X11683238Y-14246524D02*
X11702286Y-14256048D01*
X11702286Y-14256048D02*
X11711810Y-14265571D01*
X11711810Y-14265571D02*
X11721333Y-14284619D01*
X11721333Y-14284619D02*
X11730857Y-14322714D01*
X11730857Y-14322714D02*
X11730857Y-14370333D01*
X11730857Y-14370333D02*
X11721333Y-14408428D01*
X11721333Y-14408428D02*
X11711810Y-14427476D01*
X11711810Y-14427476D02*
X11702286Y-14437000D01*
X11702286Y-14437000D02*
X11683238Y-14446524D01*
X11683238Y-14446524D02*
X11664191Y-14446524D01*
X11664191Y-14446524D02*
X11645143Y-14437000D01*
X11645143Y-14437000D02*
X11635619Y-14427476D01*
X11635619Y-14427476D02*
X11626095Y-14408428D01*
X11626095Y-14408428D02*
X11616572Y-14370333D01*
X11616572Y-14370333D02*
X11616572Y-14322714D01*
X11616572Y-14322714D02*
X11626095Y-14284619D01*
X11626095Y-14284619D02*
X11635619Y-14265571D01*
X11635619Y-14265571D02*
X11645143Y-14256048D01*
X11645143Y-14256048D02*
X11664191Y-14246524D01*
X11807048Y-14265571D02*
X11816572Y-14256048D01*
X11816572Y-14256048D02*
X11835619Y-14246524D01*
X11835619Y-14246524D02*
X11883238Y-14246524D01*
X11883238Y-14246524D02*
X11902286Y-14256048D01*
X11902286Y-14256048D02*
X11911810Y-14265571D01*
X11911810Y-14265571D02*
X11921333Y-14284619D01*
X11921333Y-14284619D02*
X11921333Y-14303667D01*
X11921333Y-14303667D02*
X11911810Y-14332238D01*
X11911810Y-14332238D02*
X11797524Y-14446524D01*
X11797524Y-14446524D02*
X11921333Y-14446524D01*
X11988000Y-14246524D02*
X12121333Y-14246524D01*
X12121333Y-14246524D02*
X12035619Y-14446524D01*
X12283238Y-14246524D02*
X12245143Y-14246524D01*
X12245143Y-14246524D02*
X12226095Y-14256048D01*
X12226095Y-14256048D02*
X12216572Y-14265571D01*
X12216572Y-14265571D02*
X12197524Y-14294143D01*
X12197524Y-14294143D02*
X12188000Y-14332238D01*
X12188000Y-14332238D02*
X12188000Y-14408428D01*
X12188000Y-14408428D02*
X12197524Y-14427476D01*
X12197524Y-14427476D02*
X12207048Y-14437000D01*
X12207048Y-14437000D02*
X12226095Y-14446524D01*
X12226095Y-14446524D02*
X12264191Y-14446524D01*
X12264191Y-14446524D02*
X12283238Y-14437000D01*
X12283238Y-14437000D02*
X12292762Y-14427476D01*
X12292762Y-14427476D02*
X12302286Y-14408428D01*
X12302286Y-14408428D02*
X12302286Y-14360809D01*
X12302286Y-14360809D02*
X12292762Y-14341762D01*
X12292762Y-14341762D02*
X12283238Y-14332238D01*
X12283238Y-14332238D02*
X12264191Y-14322714D01*
X12264191Y-14322714D02*
X12226095Y-14322714D01*
X12226095Y-14322714D02*
X12207048Y-14332238D01*
X12207048Y-14332238D02*
X12197524Y-14341762D01*
X12197524Y-14341762D02*
X12188000Y-14360809D01*
X12378476Y-14246524D02*
X12378476Y-14284619D01*
X12454667Y-14246524D02*
X12454667Y-14284619D01*
X12749905Y-14522714D02*
X12740381Y-14513190D01*
X12740381Y-14513190D02*
X12721334Y-14484619D01*
X12721334Y-14484619D02*
X12711810Y-14465571D01*
X12711810Y-14465571D02*
X12702286Y-14437000D01*
X12702286Y-14437000D02*
X12692762Y-14389381D01*
X12692762Y-14389381D02*
X12692762Y-14351286D01*
X12692762Y-14351286D02*
X12702286Y-14303667D01*
X12702286Y-14303667D02*
X12711810Y-14275095D01*
X12711810Y-14275095D02*
X12721334Y-14256048D01*
X12721334Y-14256048D02*
X12740381Y-14227476D01*
X12740381Y-14227476D02*
X12749905Y-14217952D01*
X12816572Y-14265571D02*
X12826095Y-14256048D01*
X12826095Y-14256048D02*
X12845143Y-14246524D01*
X12845143Y-14246524D02*
X12892762Y-14246524D01*
X12892762Y-14246524D02*
X12911810Y-14256048D01*
X12911810Y-14256048D02*
X12921334Y-14265571D01*
X12921334Y-14265571D02*
X12930857Y-14284619D01*
X12930857Y-14284619D02*
X12930857Y-14303667D01*
X12930857Y-14303667D02*
X12921334Y-14332238D01*
X12921334Y-14332238D02*
X12807048Y-14446524D01*
X12807048Y-14446524D02*
X12930857Y-14446524D01*
X13054667Y-14246524D02*
X13073715Y-14246524D01*
X13073715Y-14246524D02*
X13092762Y-14256048D01*
X13092762Y-14256048D02*
X13102286Y-14265571D01*
X13102286Y-14265571D02*
X13111810Y-14284619D01*
X13111810Y-14284619D02*
X13121334Y-14322714D01*
X13121334Y-14322714D02*
X13121334Y-14370333D01*
X13121334Y-14370333D02*
X13111810Y-14408428D01*
X13111810Y-14408428D02*
X13102286Y-14427476D01*
X13102286Y-14427476D02*
X13092762Y-14437000D01*
X13092762Y-14437000D02*
X13073715Y-14446524D01*
X13073715Y-14446524D02*
X13054667Y-14446524D01*
X13054667Y-14446524D02*
X13035619Y-14437000D01*
X13035619Y-14437000D02*
X13026095Y-14427476D01*
X13026095Y-14427476D02*
X13016572Y-14408428D01*
X13016572Y-14408428D02*
X13007048Y-14370333D01*
X13007048Y-14370333D02*
X13007048Y-14322714D01*
X13007048Y-14322714D02*
X13016572Y-14284619D01*
X13016572Y-14284619D02*
X13026095Y-14265571D01*
X13026095Y-14265571D02*
X13035619Y-14256048D01*
X13035619Y-14256048D02*
X13054667Y-14246524D01*
X13359429Y-14446524D02*
X13359429Y-14246524D01*
X13445143Y-14446524D02*
X13445143Y-14341762D01*
X13445143Y-14341762D02*
X13435619Y-14322714D01*
X13435619Y-14322714D02*
X13416572Y-14313190D01*
X13416572Y-14313190D02*
X13388000Y-14313190D01*
X13388000Y-14313190D02*
X13368953Y-14322714D01*
X13368953Y-14322714D02*
X13359429Y-14332238D01*
X13568953Y-14446524D02*
X13549905Y-14437000D01*
X13549905Y-14437000D02*
X13540381Y-14427476D01*
X13540381Y-14427476D02*
X13530857Y-14408428D01*
X13530857Y-14408428D02*
X13530857Y-14351286D01*
X13530857Y-14351286D02*
X13540381Y-14332238D01*
X13540381Y-14332238D02*
X13549905Y-14322714D01*
X13549905Y-14322714D02*
X13568953Y-14313190D01*
X13568953Y-14313190D02*
X13597524Y-14313190D01*
X13597524Y-14313190D02*
X13616572Y-14322714D01*
X13616572Y-14322714D02*
X13626096Y-14332238D01*
X13626096Y-14332238D02*
X13635619Y-14351286D01*
X13635619Y-14351286D02*
X13635619Y-14408428D01*
X13635619Y-14408428D02*
X13626096Y-14427476D01*
X13626096Y-14427476D02*
X13616572Y-14437000D01*
X13616572Y-14437000D02*
X13597524Y-14446524D01*
X13597524Y-14446524D02*
X13568953Y-14446524D01*
X13749905Y-14446524D02*
X13730857Y-14437000D01*
X13730857Y-14437000D02*
X13721334Y-14417952D01*
X13721334Y-14417952D02*
X13721334Y-14246524D01*
X13902286Y-14437000D02*
X13883238Y-14446524D01*
X13883238Y-14446524D02*
X13845143Y-14446524D01*
X13845143Y-14446524D02*
X13826096Y-14437000D01*
X13826096Y-14437000D02*
X13816572Y-14417952D01*
X13816572Y-14417952D02*
X13816572Y-14341762D01*
X13816572Y-14341762D02*
X13826096Y-14322714D01*
X13826096Y-14322714D02*
X13845143Y-14313190D01*
X13845143Y-14313190D02*
X13883238Y-14313190D01*
X13883238Y-14313190D02*
X13902286Y-14322714D01*
X13902286Y-14322714D02*
X13911810Y-14341762D01*
X13911810Y-14341762D02*
X13911810Y-14360809D01*
X13911810Y-14360809D02*
X13816572Y-14379857D01*
X13988000Y-14437000D02*
X14007048Y-14446524D01*
X14007048Y-14446524D02*
X14045143Y-14446524D01*
X14045143Y-14446524D02*
X14064191Y-14437000D01*
X14064191Y-14437000D02*
X14073715Y-14417952D01*
X14073715Y-14417952D02*
X14073715Y-14408428D01*
X14073715Y-14408428D02*
X14064191Y-14389381D01*
X14064191Y-14389381D02*
X14045143Y-14379857D01*
X14045143Y-14379857D02*
X14016572Y-14379857D01*
X14016572Y-14379857D02*
X13997524Y-14370333D01*
X13997524Y-14370333D02*
X13988000Y-14351286D01*
X13988000Y-14351286D02*
X13988000Y-14341762D01*
X13988000Y-14341762D02*
X13997524Y-14322714D01*
X13997524Y-14322714D02*
X14016572Y-14313190D01*
X14016572Y-14313190D02*
X14045143Y-14313190D01*
X14045143Y-14313190D02*
X14064191Y-14322714D01*
X14140381Y-14522714D02*
X14149905Y-14513190D01*
X14149905Y-14513190D02*
X14168953Y-14484619D01*
X14168953Y-14484619D02*
X14178477Y-14465571D01*
X14178477Y-14465571D02*
X14188000Y-14437000D01*
X14188000Y-14437000D02*
X14197524Y-14389381D01*
X14197524Y-14389381D02*
X14197524Y-14351286D01*
X14197524Y-14351286D02*
X14188000Y-14303667D01*
X14188000Y-14303667D02*
X14178477Y-14275095D01*
X14178477Y-14275095D02*
X14168953Y-14256048D01*
X14168953Y-14256048D02*
X14149905Y-14227476D01*
X14149905Y-14227476D02*
X14140381Y-14217952D01*
D15*
X9176285Y-14646284D02*
X9176285Y-14589715D01*
X9119716Y-14589715D01*
X9119716Y-14646284D01*
X9176285Y-14646284D01*
D11*
X9473714Y-14510524D02*
X9492762Y-14510524D01*
X9492762Y-14510524D02*
X9511810Y-14520048D01*
X9511810Y-14520048D02*
X9521333Y-14529571D01*
X9521333Y-14529571D02*
X9530857Y-14548619D01*
X9530857Y-14548619D02*
X9540381Y-14586714D01*
X9540381Y-14586714D02*
X9540381Y-14634333D01*
X9540381Y-14634333D02*
X9530857Y-14672428D01*
X9530857Y-14672428D02*
X9521333Y-14691476D01*
X9521333Y-14691476D02*
X9511810Y-14701000D01*
X9511810Y-14701000D02*
X9492762Y-14710524D01*
X9492762Y-14710524D02*
X9473714Y-14710524D01*
X9473714Y-14710524D02*
X9454667Y-14701000D01*
X9454667Y-14701000D02*
X9445143Y-14691476D01*
X9445143Y-14691476D02*
X9435619Y-14672428D01*
X9435619Y-14672428D02*
X9426095Y-14634333D01*
X9426095Y-14634333D02*
X9426095Y-14586714D01*
X9426095Y-14586714D02*
X9435619Y-14548619D01*
X9435619Y-14548619D02*
X9445143Y-14529571D01*
X9445143Y-14529571D02*
X9454667Y-14520048D01*
X9454667Y-14520048D02*
X9473714Y-14510524D01*
X9626095Y-14691476D02*
X9635619Y-14701000D01*
X9635619Y-14701000D02*
X9626095Y-14710524D01*
X9626095Y-14710524D02*
X9616571Y-14701000D01*
X9616571Y-14701000D02*
X9626095Y-14691476D01*
X9626095Y-14691476D02*
X9626095Y-14710524D01*
X9749905Y-14596238D02*
X9730857Y-14586714D01*
X9730857Y-14586714D02*
X9721333Y-14577190D01*
X9721333Y-14577190D02*
X9711810Y-14558143D01*
X9711810Y-14558143D02*
X9711810Y-14548619D01*
X9711810Y-14548619D02*
X9721333Y-14529571D01*
X9721333Y-14529571D02*
X9730857Y-14520048D01*
X9730857Y-14520048D02*
X9749905Y-14510524D01*
X9749905Y-14510524D02*
X9788000Y-14510524D01*
X9788000Y-14510524D02*
X9807048Y-14520048D01*
X9807048Y-14520048D02*
X9816571Y-14529571D01*
X9816571Y-14529571D02*
X9826095Y-14548619D01*
X9826095Y-14548619D02*
X9826095Y-14558143D01*
X9826095Y-14558143D02*
X9816571Y-14577190D01*
X9816571Y-14577190D02*
X9807048Y-14586714D01*
X9807048Y-14586714D02*
X9788000Y-14596238D01*
X9788000Y-14596238D02*
X9749905Y-14596238D01*
X9749905Y-14596238D02*
X9730857Y-14605762D01*
X9730857Y-14605762D02*
X9721333Y-14615286D01*
X9721333Y-14615286D02*
X9711810Y-14634333D01*
X9711810Y-14634333D02*
X9711810Y-14672428D01*
X9711810Y-14672428D02*
X9721333Y-14691476D01*
X9721333Y-14691476D02*
X9730857Y-14701000D01*
X9730857Y-14701000D02*
X9749905Y-14710524D01*
X9749905Y-14710524D02*
X9788000Y-14710524D01*
X9788000Y-14710524D02*
X9807048Y-14701000D01*
X9807048Y-14701000D02*
X9816571Y-14691476D01*
X9816571Y-14691476D02*
X9826095Y-14672428D01*
X9826095Y-14672428D02*
X9826095Y-14634333D01*
X9826095Y-14634333D02*
X9816571Y-14615286D01*
X9816571Y-14615286D02*
X9807048Y-14605762D01*
X9807048Y-14605762D02*
X9788000Y-14596238D01*
X9949905Y-14510524D02*
X9968952Y-14510524D01*
X9968952Y-14510524D02*
X9988000Y-14520048D01*
X9988000Y-14520048D02*
X9997524Y-14529571D01*
X9997524Y-14529571D02*
X10007048Y-14548619D01*
X10007048Y-14548619D02*
X10016571Y-14586714D01*
X10016571Y-14586714D02*
X10016571Y-14634333D01*
X10016571Y-14634333D02*
X10007048Y-14672428D01*
X10007048Y-14672428D02*
X9997524Y-14691476D01*
X9997524Y-14691476D02*
X9988000Y-14701000D01*
X9988000Y-14701000D02*
X9968952Y-14710524D01*
X9968952Y-14710524D02*
X9949905Y-14710524D01*
X9949905Y-14710524D02*
X9930857Y-14701000D01*
X9930857Y-14701000D02*
X9921333Y-14691476D01*
X9921333Y-14691476D02*
X9911810Y-14672428D01*
X9911810Y-14672428D02*
X9902286Y-14634333D01*
X9902286Y-14634333D02*
X9902286Y-14586714D01*
X9902286Y-14586714D02*
X9911810Y-14548619D01*
X9911810Y-14548619D02*
X9921333Y-14529571D01*
X9921333Y-14529571D02*
X9930857Y-14520048D01*
X9930857Y-14520048D02*
X9949905Y-14510524D01*
X10140381Y-14510524D02*
X10159429Y-14510524D01*
X10159429Y-14510524D02*
X10178476Y-14520048D01*
X10178476Y-14520048D02*
X10188000Y-14529571D01*
X10188000Y-14529571D02*
X10197524Y-14548619D01*
X10197524Y-14548619D02*
X10207048Y-14586714D01*
X10207048Y-14586714D02*
X10207048Y-14634333D01*
X10207048Y-14634333D02*
X10197524Y-14672428D01*
X10197524Y-14672428D02*
X10188000Y-14691476D01*
X10188000Y-14691476D02*
X10178476Y-14701000D01*
X10178476Y-14701000D02*
X10159429Y-14710524D01*
X10159429Y-14710524D02*
X10140381Y-14710524D01*
X10140381Y-14710524D02*
X10121333Y-14701000D01*
X10121333Y-14701000D02*
X10111810Y-14691476D01*
X10111810Y-14691476D02*
X10102286Y-14672428D01*
X10102286Y-14672428D02*
X10092762Y-14634333D01*
X10092762Y-14634333D02*
X10092762Y-14586714D01*
X10092762Y-14586714D02*
X10102286Y-14548619D01*
X10102286Y-14548619D02*
X10111810Y-14529571D01*
X10111810Y-14529571D02*
X10121333Y-14520048D01*
X10121333Y-14520048D02*
X10140381Y-14510524D01*
X10292762Y-14710524D02*
X10292762Y-14577190D01*
X10292762Y-14596238D02*
X10302286Y-14586714D01*
X10302286Y-14586714D02*
X10321333Y-14577190D01*
X10321333Y-14577190D02*
X10349905Y-14577190D01*
X10349905Y-14577190D02*
X10368952Y-14586714D01*
X10368952Y-14586714D02*
X10378476Y-14605762D01*
X10378476Y-14605762D02*
X10378476Y-14710524D01*
X10378476Y-14605762D02*
X10388000Y-14586714D01*
X10388000Y-14586714D02*
X10407048Y-14577190D01*
X10407048Y-14577190D02*
X10435619Y-14577190D01*
X10435619Y-14577190D02*
X10454667Y-14586714D01*
X10454667Y-14586714D02*
X10464191Y-14605762D01*
X10464191Y-14605762D02*
X10464191Y-14710524D01*
X10559429Y-14710524D02*
X10559429Y-14577190D01*
X10559429Y-14596238D02*
X10568952Y-14586714D01*
X10568952Y-14586714D02*
X10588000Y-14577190D01*
X10588000Y-14577190D02*
X10616572Y-14577190D01*
X10616572Y-14577190D02*
X10635619Y-14586714D01*
X10635619Y-14586714D02*
X10645143Y-14605762D01*
X10645143Y-14605762D02*
X10645143Y-14710524D01*
X10645143Y-14605762D02*
X10654667Y-14586714D01*
X10654667Y-14586714D02*
X10673714Y-14577190D01*
X10673714Y-14577190D02*
X10702286Y-14577190D01*
X10702286Y-14577190D02*
X10721333Y-14586714D01*
X10721333Y-14586714D02*
X10730857Y-14605762D01*
X10730857Y-14605762D02*
X10730857Y-14710524D01*
X11121333Y-14501000D02*
X10949905Y-14758143D01*
X11378476Y-14510524D02*
X11397524Y-14510524D01*
X11397524Y-14510524D02*
X11416572Y-14520048D01*
X11416572Y-14520048D02*
X11426095Y-14529571D01*
X11426095Y-14529571D02*
X11435619Y-14548619D01*
X11435619Y-14548619D02*
X11445143Y-14586714D01*
X11445143Y-14586714D02*
X11445143Y-14634333D01*
X11445143Y-14634333D02*
X11435619Y-14672428D01*
X11435619Y-14672428D02*
X11426095Y-14691476D01*
X11426095Y-14691476D02*
X11416572Y-14701000D01*
X11416572Y-14701000D02*
X11397524Y-14710524D01*
X11397524Y-14710524D02*
X11378476Y-14710524D01*
X11378476Y-14710524D02*
X11359429Y-14701000D01*
X11359429Y-14701000D02*
X11349905Y-14691476D01*
X11349905Y-14691476D02*
X11340381Y-14672428D01*
X11340381Y-14672428D02*
X11330857Y-14634333D01*
X11330857Y-14634333D02*
X11330857Y-14586714D01*
X11330857Y-14586714D02*
X11340381Y-14548619D01*
X11340381Y-14548619D02*
X11349905Y-14529571D01*
X11349905Y-14529571D02*
X11359429Y-14520048D01*
X11359429Y-14520048D02*
X11378476Y-14510524D01*
X11530857Y-14691476D02*
X11540381Y-14701000D01*
X11540381Y-14701000D02*
X11530857Y-14710524D01*
X11530857Y-14710524D02*
X11521333Y-14701000D01*
X11521333Y-14701000D02*
X11530857Y-14691476D01*
X11530857Y-14691476D02*
X11530857Y-14710524D01*
X11664191Y-14510524D02*
X11683238Y-14510524D01*
X11683238Y-14510524D02*
X11702286Y-14520048D01*
X11702286Y-14520048D02*
X11711810Y-14529571D01*
X11711810Y-14529571D02*
X11721333Y-14548619D01*
X11721333Y-14548619D02*
X11730857Y-14586714D01*
X11730857Y-14586714D02*
X11730857Y-14634333D01*
X11730857Y-14634333D02*
X11721333Y-14672428D01*
X11721333Y-14672428D02*
X11711810Y-14691476D01*
X11711810Y-14691476D02*
X11702286Y-14701000D01*
X11702286Y-14701000D02*
X11683238Y-14710524D01*
X11683238Y-14710524D02*
X11664191Y-14710524D01*
X11664191Y-14710524D02*
X11645143Y-14701000D01*
X11645143Y-14701000D02*
X11635619Y-14691476D01*
X11635619Y-14691476D02*
X11626095Y-14672428D01*
X11626095Y-14672428D02*
X11616572Y-14634333D01*
X11616572Y-14634333D02*
X11616572Y-14586714D01*
X11616572Y-14586714D02*
X11626095Y-14548619D01*
X11626095Y-14548619D02*
X11635619Y-14529571D01*
X11635619Y-14529571D02*
X11645143Y-14520048D01*
X11645143Y-14520048D02*
X11664191Y-14510524D01*
X11797524Y-14510524D02*
X11921333Y-14510524D01*
X11921333Y-14510524D02*
X11854667Y-14586714D01*
X11854667Y-14586714D02*
X11883238Y-14586714D01*
X11883238Y-14586714D02*
X11902286Y-14596238D01*
X11902286Y-14596238D02*
X11911810Y-14605762D01*
X11911810Y-14605762D02*
X11921333Y-14624809D01*
X11921333Y-14624809D02*
X11921333Y-14672428D01*
X11921333Y-14672428D02*
X11911810Y-14691476D01*
X11911810Y-14691476D02*
X11902286Y-14701000D01*
X11902286Y-14701000D02*
X11883238Y-14710524D01*
X11883238Y-14710524D02*
X11826095Y-14710524D01*
X11826095Y-14710524D02*
X11807048Y-14701000D01*
X11807048Y-14701000D02*
X11797524Y-14691476D01*
X12111810Y-14710524D02*
X11997524Y-14710524D01*
X12054667Y-14710524D02*
X12054667Y-14510524D01*
X12054667Y-14510524D02*
X12035619Y-14539095D01*
X12035619Y-14539095D02*
X12016572Y-14558143D01*
X12016572Y-14558143D02*
X11997524Y-14567667D01*
X12292762Y-14510524D02*
X12197524Y-14510524D01*
X12197524Y-14510524D02*
X12188000Y-14605762D01*
X12188000Y-14605762D02*
X12197524Y-14596238D01*
X12197524Y-14596238D02*
X12216572Y-14586714D01*
X12216572Y-14586714D02*
X12264191Y-14586714D01*
X12264191Y-14586714D02*
X12283238Y-14596238D01*
X12283238Y-14596238D02*
X12292762Y-14605762D01*
X12292762Y-14605762D02*
X12302286Y-14624809D01*
X12302286Y-14624809D02*
X12302286Y-14672428D01*
X12302286Y-14672428D02*
X12292762Y-14691476D01*
X12292762Y-14691476D02*
X12283238Y-14701000D01*
X12283238Y-14701000D02*
X12264191Y-14710524D01*
X12264191Y-14710524D02*
X12216572Y-14710524D01*
X12216572Y-14710524D02*
X12197524Y-14701000D01*
X12197524Y-14701000D02*
X12188000Y-14691476D01*
X12378476Y-14510524D02*
X12378476Y-14548619D01*
X12454667Y-14510524D02*
X12454667Y-14548619D01*
X12749905Y-14786714D02*
X12740381Y-14777190D01*
X12740381Y-14777190D02*
X12721334Y-14748619D01*
X12721334Y-14748619D02*
X12711810Y-14729571D01*
X12711810Y-14729571D02*
X12702286Y-14701000D01*
X12702286Y-14701000D02*
X12692762Y-14653381D01*
X12692762Y-14653381D02*
X12692762Y-14615286D01*
X12692762Y-14615286D02*
X12702286Y-14567667D01*
X12702286Y-14567667D02*
X12711810Y-14539095D01*
X12711810Y-14539095D02*
X12721334Y-14520048D01*
X12721334Y-14520048D02*
X12740381Y-14491476D01*
X12740381Y-14491476D02*
X12749905Y-14481952D01*
X12807048Y-14510524D02*
X12930857Y-14510524D01*
X12930857Y-14510524D02*
X12864191Y-14586714D01*
X12864191Y-14586714D02*
X12892762Y-14586714D01*
X12892762Y-14586714D02*
X12911810Y-14596238D01*
X12911810Y-14596238D02*
X12921334Y-14605762D01*
X12921334Y-14605762D02*
X12930857Y-14624809D01*
X12930857Y-14624809D02*
X12930857Y-14672428D01*
X12930857Y-14672428D02*
X12921334Y-14691476D01*
X12921334Y-14691476D02*
X12911810Y-14701000D01*
X12911810Y-14701000D02*
X12892762Y-14710524D01*
X12892762Y-14710524D02*
X12835619Y-14710524D01*
X12835619Y-14710524D02*
X12816572Y-14701000D01*
X12816572Y-14701000D02*
X12807048Y-14691476D01*
X13007048Y-14529571D02*
X13016572Y-14520048D01*
X13016572Y-14520048D02*
X13035619Y-14510524D01*
X13035619Y-14510524D02*
X13083238Y-14510524D01*
X13083238Y-14510524D02*
X13102286Y-14520048D01*
X13102286Y-14520048D02*
X13111810Y-14529571D01*
X13111810Y-14529571D02*
X13121334Y-14548619D01*
X13121334Y-14548619D02*
X13121334Y-14567667D01*
X13121334Y-14567667D02*
X13111810Y-14596238D01*
X13111810Y-14596238D02*
X12997524Y-14710524D01*
X12997524Y-14710524D02*
X13121334Y-14710524D01*
X13359429Y-14710524D02*
X13359429Y-14510524D01*
X13445143Y-14710524D02*
X13445143Y-14605762D01*
X13445143Y-14605762D02*
X13435619Y-14586714D01*
X13435619Y-14586714D02*
X13416572Y-14577190D01*
X13416572Y-14577190D02*
X13388000Y-14577190D01*
X13388000Y-14577190D02*
X13368953Y-14586714D01*
X13368953Y-14586714D02*
X13359429Y-14596238D01*
X13568953Y-14710524D02*
X13549905Y-14701000D01*
X13549905Y-14701000D02*
X13540381Y-14691476D01*
X13540381Y-14691476D02*
X13530857Y-14672428D01*
X13530857Y-14672428D02*
X13530857Y-14615286D01*
X13530857Y-14615286D02*
X13540381Y-14596238D01*
X13540381Y-14596238D02*
X13549905Y-14586714D01*
X13549905Y-14586714D02*
X13568953Y-14577190D01*
X13568953Y-14577190D02*
X13597524Y-14577190D01*
X13597524Y-14577190D02*
X13616572Y-14586714D01*
X13616572Y-14586714D02*
X13626096Y-14596238D01*
X13626096Y-14596238D02*
X13635619Y-14615286D01*
X13635619Y-14615286D02*
X13635619Y-14672428D01*
X13635619Y-14672428D02*
X13626096Y-14691476D01*
X13626096Y-14691476D02*
X13616572Y-14701000D01*
X13616572Y-14701000D02*
X13597524Y-14710524D01*
X13597524Y-14710524D02*
X13568953Y-14710524D01*
X13749905Y-14710524D02*
X13730857Y-14701000D01*
X13730857Y-14701000D02*
X13721334Y-14681952D01*
X13721334Y-14681952D02*
X13721334Y-14510524D01*
X13902286Y-14701000D02*
X13883238Y-14710524D01*
X13883238Y-14710524D02*
X13845143Y-14710524D01*
X13845143Y-14710524D02*
X13826096Y-14701000D01*
X13826096Y-14701000D02*
X13816572Y-14681952D01*
X13816572Y-14681952D02*
X13816572Y-14605762D01*
X13816572Y-14605762D02*
X13826096Y-14586714D01*
X13826096Y-14586714D02*
X13845143Y-14577190D01*
X13845143Y-14577190D02*
X13883238Y-14577190D01*
X13883238Y-14577190D02*
X13902286Y-14586714D01*
X13902286Y-14586714D02*
X13911810Y-14605762D01*
X13911810Y-14605762D02*
X13911810Y-14624809D01*
X13911810Y-14624809D02*
X13816572Y-14643857D01*
X13988000Y-14701000D02*
X14007048Y-14710524D01*
X14007048Y-14710524D02*
X14045143Y-14710524D01*
X14045143Y-14710524D02*
X14064191Y-14701000D01*
X14064191Y-14701000D02*
X14073715Y-14681952D01*
X14073715Y-14681952D02*
X14073715Y-14672428D01*
X14073715Y-14672428D02*
X14064191Y-14653381D01*
X14064191Y-14653381D02*
X14045143Y-14643857D01*
X14045143Y-14643857D02*
X14016572Y-14643857D01*
X14016572Y-14643857D02*
X13997524Y-14634333D01*
X13997524Y-14634333D02*
X13988000Y-14615286D01*
X13988000Y-14615286D02*
X13988000Y-14605762D01*
X13988000Y-14605762D02*
X13997524Y-14586714D01*
X13997524Y-14586714D02*
X14016572Y-14577190D01*
X14016572Y-14577190D02*
X14045143Y-14577190D01*
X14045143Y-14577190D02*
X14064191Y-14586714D01*
X14140381Y-14786714D02*
X14149905Y-14777190D01*
X14149905Y-14777190D02*
X14168953Y-14748619D01*
X14168953Y-14748619D02*
X14178477Y-14729571D01*
X14178477Y-14729571D02*
X14188000Y-14701000D01*
X14188000Y-14701000D02*
X14197524Y-14653381D01*
X14197524Y-14653381D02*
X14197524Y-14615286D01*
X14197524Y-14615286D02*
X14188000Y-14567667D01*
X14188000Y-14567667D02*
X14178477Y-14539095D01*
X14178477Y-14539095D02*
X14168953Y-14520048D01*
X14168953Y-14520048D02*
X14149905Y-14491476D01*
X14149905Y-14491476D02*
X14140381Y-14481952D01*
D10*
X9138000Y-14932000D02*
X9188000Y-14882000D01*
X9138000Y-14832000D01*
X9088000Y-14882000D01*
X9138000Y-14932000D01*
D11*
X9540381Y-14974524D02*
X9426095Y-14974524D01*
X9483238Y-14974524D02*
X9483238Y-14774524D01*
X9483238Y-14774524D02*
X9464190Y-14803095D01*
X9464190Y-14803095D02*
X9445143Y-14822143D01*
X9445143Y-14822143D02*
X9426095Y-14831667D01*
X9626095Y-14955476D02*
X9635619Y-14965000D01*
X9635619Y-14965000D02*
X9626095Y-14974524D01*
X9626095Y-14974524D02*
X9616571Y-14965000D01*
X9616571Y-14965000D02*
X9626095Y-14955476D01*
X9626095Y-14955476D02*
X9626095Y-14974524D01*
X9759429Y-14774524D02*
X9778476Y-14774524D01*
X9778476Y-14774524D02*
X9797524Y-14784048D01*
X9797524Y-14784048D02*
X9807048Y-14793571D01*
X9807048Y-14793571D02*
X9816571Y-14812619D01*
X9816571Y-14812619D02*
X9826095Y-14850714D01*
X9826095Y-14850714D02*
X9826095Y-14898333D01*
X9826095Y-14898333D02*
X9816571Y-14936428D01*
X9816571Y-14936428D02*
X9807048Y-14955476D01*
X9807048Y-14955476D02*
X9797524Y-14965000D01*
X9797524Y-14965000D02*
X9778476Y-14974524D01*
X9778476Y-14974524D02*
X9759429Y-14974524D01*
X9759429Y-14974524D02*
X9740381Y-14965000D01*
X9740381Y-14965000D02*
X9730857Y-14955476D01*
X9730857Y-14955476D02*
X9721333Y-14936428D01*
X9721333Y-14936428D02*
X9711810Y-14898333D01*
X9711810Y-14898333D02*
X9711810Y-14850714D01*
X9711810Y-14850714D02*
X9721333Y-14812619D01*
X9721333Y-14812619D02*
X9730857Y-14793571D01*
X9730857Y-14793571D02*
X9740381Y-14784048D01*
X9740381Y-14784048D02*
X9759429Y-14774524D01*
X9949905Y-14774524D02*
X9968952Y-14774524D01*
X9968952Y-14774524D02*
X9988000Y-14784048D01*
X9988000Y-14784048D02*
X9997524Y-14793571D01*
X9997524Y-14793571D02*
X10007048Y-14812619D01*
X10007048Y-14812619D02*
X10016571Y-14850714D01*
X10016571Y-14850714D02*
X10016571Y-14898333D01*
X10016571Y-14898333D02*
X10007048Y-14936428D01*
X10007048Y-14936428D02*
X9997524Y-14955476D01*
X9997524Y-14955476D02*
X9988000Y-14965000D01*
X9988000Y-14965000D02*
X9968952Y-14974524D01*
X9968952Y-14974524D02*
X9949905Y-14974524D01*
X9949905Y-14974524D02*
X9930857Y-14965000D01*
X9930857Y-14965000D02*
X9921333Y-14955476D01*
X9921333Y-14955476D02*
X9911810Y-14936428D01*
X9911810Y-14936428D02*
X9902286Y-14898333D01*
X9902286Y-14898333D02*
X9902286Y-14850714D01*
X9902286Y-14850714D02*
X9911810Y-14812619D01*
X9911810Y-14812619D02*
X9921333Y-14793571D01*
X9921333Y-14793571D02*
X9930857Y-14784048D01*
X9930857Y-14784048D02*
X9949905Y-14774524D01*
X10140381Y-14774524D02*
X10159429Y-14774524D01*
X10159429Y-14774524D02*
X10178476Y-14784048D01*
X10178476Y-14784048D02*
X10188000Y-14793571D01*
X10188000Y-14793571D02*
X10197524Y-14812619D01*
X10197524Y-14812619D02*
X10207048Y-14850714D01*
X10207048Y-14850714D02*
X10207048Y-14898333D01*
X10207048Y-14898333D02*
X10197524Y-14936428D01*
X10197524Y-14936428D02*
X10188000Y-14955476D01*
X10188000Y-14955476D02*
X10178476Y-14965000D01*
X10178476Y-14965000D02*
X10159429Y-14974524D01*
X10159429Y-14974524D02*
X10140381Y-14974524D01*
X10140381Y-14974524D02*
X10121333Y-14965000D01*
X10121333Y-14965000D02*
X10111810Y-14955476D01*
X10111810Y-14955476D02*
X10102286Y-14936428D01*
X10102286Y-14936428D02*
X10092762Y-14898333D01*
X10092762Y-14898333D02*
X10092762Y-14850714D01*
X10092762Y-14850714D02*
X10102286Y-14812619D01*
X10102286Y-14812619D02*
X10111810Y-14793571D01*
X10111810Y-14793571D02*
X10121333Y-14784048D01*
X10121333Y-14784048D02*
X10140381Y-14774524D01*
X10292762Y-14974524D02*
X10292762Y-14841190D01*
X10292762Y-14860238D02*
X10302286Y-14850714D01*
X10302286Y-14850714D02*
X10321333Y-14841190D01*
X10321333Y-14841190D02*
X10349905Y-14841190D01*
X10349905Y-14841190D02*
X10368952Y-14850714D01*
X10368952Y-14850714D02*
X10378476Y-14869762D01*
X10378476Y-14869762D02*
X10378476Y-14974524D01*
X10378476Y-14869762D02*
X10388000Y-14850714D01*
X10388000Y-14850714D02*
X10407048Y-14841190D01*
X10407048Y-14841190D02*
X10435619Y-14841190D01*
X10435619Y-14841190D02*
X10454667Y-14850714D01*
X10454667Y-14850714D02*
X10464191Y-14869762D01*
X10464191Y-14869762D02*
X10464191Y-14974524D01*
X10559429Y-14974524D02*
X10559429Y-14841190D01*
X10559429Y-14860238D02*
X10568952Y-14850714D01*
X10568952Y-14850714D02*
X10588000Y-14841190D01*
X10588000Y-14841190D02*
X10616572Y-14841190D01*
X10616572Y-14841190D02*
X10635619Y-14850714D01*
X10635619Y-14850714D02*
X10645143Y-14869762D01*
X10645143Y-14869762D02*
X10645143Y-14974524D01*
X10645143Y-14869762D02*
X10654667Y-14850714D01*
X10654667Y-14850714D02*
X10673714Y-14841190D01*
X10673714Y-14841190D02*
X10702286Y-14841190D01*
X10702286Y-14841190D02*
X10721333Y-14850714D01*
X10721333Y-14850714D02*
X10730857Y-14869762D01*
X10730857Y-14869762D02*
X10730857Y-14974524D01*
X11121333Y-14765000D02*
X10949905Y-15022143D01*
X11378476Y-14774524D02*
X11397524Y-14774524D01*
X11397524Y-14774524D02*
X11416572Y-14784048D01*
X11416572Y-14784048D02*
X11426095Y-14793571D01*
X11426095Y-14793571D02*
X11435619Y-14812619D01*
X11435619Y-14812619D02*
X11445143Y-14850714D01*
X11445143Y-14850714D02*
X11445143Y-14898333D01*
X11445143Y-14898333D02*
X11435619Y-14936428D01*
X11435619Y-14936428D02*
X11426095Y-14955476D01*
X11426095Y-14955476D02*
X11416572Y-14965000D01*
X11416572Y-14965000D02*
X11397524Y-14974524D01*
X11397524Y-14974524D02*
X11378476Y-14974524D01*
X11378476Y-14974524D02*
X11359429Y-14965000D01*
X11359429Y-14965000D02*
X11349905Y-14955476D01*
X11349905Y-14955476D02*
X11340381Y-14936428D01*
X11340381Y-14936428D02*
X11330857Y-14898333D01*
X11330857Y-14898333D02*
X11330857Y-14850714D01*
X11330857Y-14850714D02*
X11340381Y-14812619D01*
X11340381Y-14812619D02*
X11349905Y-14793571D01*
X11349905Y-14793571D02*
X11359429Y-14784048D01*
X11359429Y-14784048D02*
X11378476Y-14774524D01*
X11530857Y-14955476D02*
X11540381Y-14965000D01*
X11540381Y-14965000D02*
X11530857Y-14974524D01*
X11530857Y-14974524D02*
X11521333Y-14965000D01*
X11521333Y-14965000D02*
X11530857Y-14955476D01*
X11530857Y-14955476D02*
X11530857Y-14974524D01*
X11664191Y-14774524D02*
X11683238Y-14774524D01*
X11683238Y-14774524D02*
X11702286Y-14784048D01*
X11702286Y-14784048D02*
X11711810Y-14793571D01*
X11711810Y-14793571D02*
X11721333Y-14812619D01*
X11721333Y-14812619D02*
X11730857Y-14850714D01*
X11730857Y-14850714D02*
X11730857Y-14898333D01*
X11730857Y-14898333D02*
X11721333Y-14936428D01*
X11721333Y-14936428D02*
X11711810Y-14955476D01*
X11711810Y-14955476D02*
X11702286Y-14965000D01*
X11702286Y-14965000D02*
X11683238Y-14974524D01*
X11683238Y-14974524D02*
X11664191Y-14974524D01*
X11664191Y-14974524D02*
X11645143Y-14965000D01*
X11645143Y-14965000D02*
X11635619Y-14955476D01*
X11635619Y-14955476D02*
X11626095Y-14936428D01*
X11626095Y-14936428D02*
X11616572Y-14898333D01*
X11616572Y-14898333D02*
X11616572Y-14850714D01*
X11616572Y-14850714D02*
X11626095Y-14812619D01*
X11626095Y-14812619D02*
X11635619Y-14793571D01*
X11635619Y-14793571D02*
X11645143Y-14784048D01*
X11645143Y-14784048D02*
X11664191Y-14774524D01*
X11797524Y-14774524D02*
X11921333Y-14774524D01*
X11921333Y-14774524D02*
X11854667Y-14850714D01*
X11854667Y-14850714D02*
X11883238Y-14850714D01*
X11883238Y-14850714D02*
X11902286Y-14860238D01*
X11902286Y-14860238D02*
X11911810Y-14869762D01*
X11911810Y-14869762D02*
X11921333Y-14888809D01*
X11921333Y-14888809D02*
X11921333Y-14936428D01*
X11921333Y-14936428D02*
X11911810Y-14955476D01*
X11911810Y-14955476D02*
X11902286Y-14965000D01*
X11902286Y-14965000D02*
X11883238Y-14974524D01*
X11883238Y-14974524D02*
X11826095Y-14974524D01*
X11826095Y-14974524D02*
X11807048Y-14965000D01*
X11807048Y-14965000D02*
X11797524Y-14955476D01*
X12016572Y-14974524D02*
X12054667Y-14974524D01*
X12054667Y-14974524D02*
X12073714Y-14965000D01*
X12073714Y-14965000D02*
X12083238Y-14955476D01*
X12083238Y-14955476D02*
X12102286Y-14926905D01*
X12102286Y-14926905D02*
X12111810Y-14888809D01*
X12111810Y-14888809D02*
X12111810Y-14812619D01*
X12111810Y-14812619D02*
X12102286Y-14793571D01*
X12102286Y-14793571D02*
X12092762Y-14784048D01*
X12092762Y-14784048D02*
X12073714Y-14774524D01*
X12073714Y-14774524D02*
X12035619Y-14774524D01*
X12035619Y-14774524D02*
X12016572Y-14784048D01*
X12016572Y-14784048D02*
X12007048Y-14793571D01*
X12007048Y-14793571D02*
X11997524Y-14812619D01*
X11997524Y-14812619D02*
X11997524Y-14860238D01*
X11997524Y-14860238D02*
X12007048Y-14879286D01*
X12007048Y-14879286D02*
X12016572Y-14888809D01*
X12016572Y-14888809D02*
X12035619Y-14898333D01*
X12035619Y-14898333D02*
X12073714Y-14898333D01*
X12073714Y-14898333D02*
X12092762Y-14888809D01*
X12092762Y-14888809D02*
X12102286Y-14879286D01*
X12102286Y-14879286D02*
X12111810Y-14860238D01*
X12283238Y-14841190D02*
X12283238Y-14974524D01*
X12235619Y-14765000D02*
X12188000Y-14907857D01*
X12188000Y-14907857D02*
X12311810Y-14907857D01*
X12378476Y-14774524D02*
X12378476Y-14812619D01*
X12454667Y-14774524D02*
X12454667Y-14812619D01*
X12749905Y-15050714D02*
X12740381Y-15041190D01*
X12740381Y-15041190D02*
X12721334Y-15012619D01*
X12721334Y-15012619D02*
X12711810Y-14993571D01*
X12711810Y-14993571D02*
X12702286Y-14965000D01*
X12702286Y-14965000D02*
X12692762Y-14917381D01*
X12692762Y-14917381D02*
X12692762Y-14879286D01*
X12692762Y-14879286D02*
X12702286Y-14831667D01*
X12702286Y-14831667D02*
X12711810Y-14803095D01*
X12711810Y-14803095D02*
X12721334Y-14784048D01*
X12721334Y-14784048D02*
X12740381Y-14755476D01*
X12740381Y-14755476D02*
X12749905Y-14745952D01*
X12807048Y-14774524D02*
X12940381Y-14774524D01*
X12940381Y-14774524D02*
X12854667Y-14974524D01*
X12997524Y-14774524D02*
X13121334Y-14774524D01*
X13121334Y-14774524D02*
X13054667Y-14850714D01*
X13054667Y-14850714D02*
X13083238Y-14850714D01*
X13083238Y-14850714D02*
X13102286Y-14860238D01*
X13102286Y-14860238D02*
X13111810Y-14869762D01*
X13111810Y-14869762D02*
X13121334Y-14888809D01*
X13121334Y-14888809D02*
X13121334Y-14936428D01*
X13121334Y-14936428D02*
X13111810Y-14955476D01*
X13111810Y-14955476D02*
X13102286Y-14965000D01*
X13102286Y-14965000D02*
X13083238Y-14974524D01*
X13083238Y-14974524D02*
X13026095Y-14974524D01*
X13026095Y-14974524D02*
X13007048Y-14965000D01*
X13007048Y-14965000D02*
X12997524Y-14955476D01*
X13359429Y-14974524D02*
X13359429Y-14774524D01*
X13445143Y-14974524D02*
X13445143Y-14869762D01*
X13445143Y-14869762D02*
X13435619Y-14850714D01*
X13435619Y-14850714D02*
X13416572Y-14841190D01*
X13416572Y-14841190D02*
X13388000Y-14841190D01*
X13388000Y-14841190D02*
X13368953Y-14850714D01*
X13368953Y-14850714D02*
X13359429Y-14860238D01*
X13568953Y-14974524D02*
X13549905Y-14965000D01*
X13549905Y-14965000D02*
X13540381Y-14955476D01*
X13540381Y-14955476D02*
X13530857Y-14936428D01*
X13530857Y-14936428D02*
X13530857Y-14879286D01*
X13530857Y-14879286D02*
X13540381Y-14860238D01*
X13540381Y-14860238D02*
X13549905Y-14850714D01*
X13549905Y-14850714D02*
X13568953Y-14841190D01*
X13568953Y-14841190D02*
X13597524Y-14841190D01*
X13597524Y-14841190D02*
X13616572Y-14850714D01*
X13616572Y-14850714D02*
X13626096Y-14860238D01*
X13626096Y-14860238D02*
X13635619Y-14879286D01*
X13635619Y-14879286D02*
X13635619Y-14936428D01*
X13635619Y-14936428D02*
X13626096Y-14955476D01*
X13626096Y-14955476D02*
X13616572Y-14965000D01*
X13616572Y-14965000D02*
X13597524Y-14974524D01*
X13597524Y-14974524D02*
X13568953Y-14974524D01*
X13749905Y-14974524D02*
X13730857Y-14965000D01*
X13730857Y-14965000D02*
X13721334Y-14945952D01*
X13721334Y-14945952D02*
X13721334Y-14774524D01*
X13902286Y-14965000D02*
X13883238Y-14974524D01*
X13883238Y-14974524D02*
X13845143Y-14974524D01*
X13845143Y-14974524D02*
X13826096Y-14965000D01*
X13826096Y-14965000D02*
X13816572Y-14945952D01*
X13816572Y-14945952D02*
X13816572Y-14869762D01*
X13816572Y-14869762D02*
X13826096Y-14850714D01*
X13826096Y-14850714D02*
X13845143Y-14841190D01*
X13845143Y-14841190D02*
X13883238Y-14841190D01*
X13883238Y-14841190D02*
X13902286Y-14850714D01*
X13902286Y-14850714D02*
X13911810Y-14869762D01*
X13911810Y-14869762D02*
X13911810Y-14888809D01*
X13911810Y-14888809D02*
X13816572Y-14907857D01*
X13988000Y-14965000D02*
X14007048Y-14974524D01*
X14007048Y-14974524D02*
X14045143Y-14974524D01*
X14045143Y-14974524D02*
X14064191Y-14965000D01*
X14064191Y-14965000D02*
X14073715Y-14945952D01*
X14073715Y-14945952D02*
X14073715Y-14936428D01*
X14073715Y-14936428D02*
X14064191Y-14917381D01*
X14064191Y-14917381D02*
X14045143Y-14907857D01*
X14045143Y-14907857D02*
X14016572Y-14907857D01*
X14016572Y-14907857D02*
X13997524Y-14898333D01*
X13997524Y-14898333D02*
X13988000Y-14879286D01*
X13988000Y-14879286D02*
X13988000Y-14869762D01*
X13988000Y-14869762D02*
X13997524Y-14850714D01*
X13997524Y-14850714D02*
X14016572Y-14841190D01*
X14016572Y-14841190D02*
X14045143Y-14841190D01*
X14045143Y-14841190D02*
X14064191Y-14850714D01*
X14140381Y-15050714D02*
X14149905Y-15041190D01*
X14149905Y-15041190D02*
X14168953Y-15012619D01*
X14168953Y-15012619D02*
X14178477Y-14993571D01*
X14178477Y-14993571D02*
X14188000Y-14965000D01*
X14188000Y-14965000D02*
X14197524Y-14917381D01*
X14197524Y-14917381D02*
X14197524Y-14879286D01*
X14197524Y-14879286D02*
X14188000Y-14831667D01*
X14188000Y-14831667D02*
X14178477Y-14803095D01*
X14178477Y-14803095D02*
X14168953Y-14784048D01*
X14168953Y-14784048D02*
X14149905Y-14755476D01*
X14149905Y-14755476D02*
X14140381Y-14745952D01*
M02*
