%TF.GenerationSoftware,KiCad,Pcbnew,7.0.1*%
%TF.CreationDate,2023-10-26T15:35:27+00:00*%
%TF.ProjectId,Control_Board,436f6e74-726f-46c5-9f42-6f6172642e6b,rev?*%
%TF.SameCoordinates,Original*%
%TF.FileFunction,Drillmap*%
%TF.FilePolarity,Positive*%
%FSLAX45Y45*%
G04 Gerber Fmt 4.5, Leading zero omitted, Abs format (unit mm)*
G04 Created by KiCad (PCBNEW 7.0.1) date 2023-10-26 15:35:27*
%MOMM*%
%LPD*%
G01*
G04 APERTURE LIST*
%ADD10C,0.100000*%
%ADD11C,0.200000*%
G04 APERTURE END LIST*
D10*
X9686030Y-12697000D02*
G75*
G03*
X9686030Y-12697000I-148030J0D01*
G01*
X17573030Y-8695970D02*
G75*
G03*
X17573030Y-8695970I-148030J0D01*
G01*
X17069032Y-8657500D02*
G75*
G03*
X17069032Y-8657500I-141532J0D01*
G01*
X10265564Y-8657500D02*
G75*
G03*
X10265564Y-8657500I-141532J0D01*
G01*
X9675660Y-8695000D02*
G75*
G03*
X9675660Y-8695000I-146660J0D01*
G01*
X9193000Y-8258000D02*
X17731000Y-8258000D01*
X17731000Y-13181000D01*
X9193000Y-13181000D01*
X9193000Y-8258000D01*
X10311532Y-12567500D02*
G75*
G03*
X10311532Y-12567500I-141532J0D01*
G01*
X17573030Y-12702970D02*
G75*
G03*
X17573030Y-12702970I-148030J0D01*
G01*
X17069532Y-12580000D02*
G75*
G03*
X17069532Y-12580000I-141532J0D01*
G01*
D11*
X9435619Y-13498524D02*
X9435619Y-13298524D01*
X9435619Y-13298524D02*
X9483238Y-13298524D01*
X9483238Y-13298524D02*
X9511810Y-13308048D01*
X9511810Y-13308048D02*
X9530857Y-13327095D01*
X9530857Y-13327095D02*
X9540381Y-13346143D01*
X9540381Y-13346143D02*
X9549905Y-13384238D01*
X9549905Y-13384238D02*
X9549905Y-13412809D01*
X9549905Y-13412809D02*
X9540381Y-13450905D01*
X9540381Y-13450905D02*
X9530857Y-13469952D01*
X9530857Y-13469952D02*
X9511810Y-13489000D01*
X9511810Y-13489000D02*
X9483238Y-13498524D01*
X9483238Y-13498524D02*
X9435619Y-13498524D01*
X9635619Y-13498524D02*
X9635619Y-13365190D01*
X9635619Y-13403286D02*
X9645143Y-13384238D01*
X9645143Y-13384238D02*
X9654667Y-13374714D01*
X9654667Y-13374714D02*
X9673714Y-13365190D01*
X9673714Y-13365190D02*
X9692762Y-13365190D01*
X9759429Y-13498524D02*
X9759429Y-13365190D01*
X9759429Y-13298524D02*
X9749905Y-13308048D01*
X9749905Y-13308048D02*
X9759429Y-13317571D01*
X9759429Y-13317571D02*
X9768952Y-13308048D01*
X9768952Y-13308048D02*
X9759429Y-13298524D01*
X9759429Y-13298524D02*
X9759429Y-13317571D01*
X9883238Y-13498524D02*
X9864190Y-13489000D01*
X9864190Y-13489000D02*
X9854667Y-13469952D01*
X9854667Y-13469952D02*
X9854667Y-13298524D01*
X9988000Y-13498524D02*
X9968952Y-13489000D01*
X9968952Y-13489000D02*
X9959429Y-13469952D01*
X9959429Y-13469952D02*
X9959429Y-13298524D01*
X10216571Y-13498524D02*
X10216571Y-13298524D01*
X10216571Y-13298524D02*
X10283238Y-13441381D01*
X10283238Y-13441381D02*
X10349905Y-13298524D01*
X10349905Y-13298524D02*
X10349905Y-13498524D01*
X10530857Y-13498524D02*
X10530857Y-13393762D01*
X10530857Y-13393762D02*
X10521333Y-13374714D01*
X10521333Y-13374714D02*
X10502286Y-13365190D01*
X10502286Y-13365190D02*
X10464190Y-13365190D01*
X10464190Y-13365190D02*
X10445143Y-13374714D01*
X10530857Y-13489000D02*
X10511810Y-13498524D01*
X10511810Y-13498524D02*
X10464190Y-13498524D01*
X10464190Y-13498524D02*
X10445143Y-13489000D01*
X10445143Y-13489000D02*
X10435619Y-13469952D01*
X10435619Y-13469952D02*
X10435619Y-13450905D01*
X10435619Y-13450905D02*
X10445143Y-13431857D01*
X10445143Y-13431857D02*
X10464190Y-13422333D01*
X10464190Y-13422333D02*
X10511810Y-13422333D01*
X10511810Y-13422333D02*
X10530857Y-13412809D01*
X10626095Y-13365190D02*
X10626095Y-13565190D01*
X10626095Y-13374714D02*
X10645143Y-13365190D01*
X10645143Y-13365190D02*
X10683238Y-13365190D01*
X10683238Y-13365190D02*
X10702286Y-13374714D01*
X10702286Y-13374714D02*
X10711810Y-13384238D01*
X10711810Y-13384238D02*
X10721333Y-13403286D01*
X10721333Y-13403286D02*
X10721333Y-13460428D01*
X10721333Y-13460428D02*
X10711810Y-13479476D01*
X10711810Y-13479476D02*
X10702286Y-13489000D01*
X10702286Y-13489000D02*
X10683238Y-13498524D01*
X10683238Y-13498524D02*
X10645143Y-13498524D01*
X10645143Y-13498524D02*
X10626095Y-13489000D01*
X10807048Y-13479476D02*
X10816571Y-13489000D01*
X10816571Y-13489000D02*
X10807048Y-13498524D01*
X10807048Y-13498524D02*
X10797524Y-13489000D01*
X10797524Y-13489000D02*
X10807048Y-13479476D01*
X10807048Y-13479476D02*
X10807048Y-13498524D01*
X10807048Y-13374714D02*
X10816571Y-13384238D01*
X10816571Y-13384238D02*
X10807048Y-13393762D01*
X10807048Y-13393762D02*
X10797524Y-13384238D01*
X10797524Y-13384238D02*
X10807048Y-13374714D01*
X10807048Y-13374714D02*
X10807048Y-13393762D01*
M02*
