%TF.GenerationSoftware,KiCad,Pcbnew,7.0.1*%
%TF.CreationDate,2023-10-26T15:35:36+00:00*%
%TF.ProjectId,Control_Board,436f6e74-726f-46c5-9f42-6f6172642e6b,rev?*%
%TF.SameCoordinates,Original*%
%TF.FileFunction,Legend,Top*%
%TF.FilePolarity,Positive*%
%FSLAX45Y45*%
G04 Gerber Fmt 4.5, Leading zero omitted, Abs format (unit mm)*
G04 Created by KiCad (PCBNEW 7.0.1) date 2023-10-26 15:35:36*
%MOMM*%
%LPD*%
G01*
G04 APERTURE LIST*
%ADD10C,0.100000*%
%ADD11C,0.150000*%
%ADD12C,0.300000*%
%ADD13C,0.400000*%
%ADD14C,0.120000*%
%TA.AperFunction,Profile*%
%ADD15C,0.100000*%
%TD*%
G04 APERTURE END LIST*
D10*
D11*
X17700220Y-16600720D02*
X28500220Y-16600720D01*
X28500220Y-19800720D01*
X17700220Y-19800720D01*
X17700220Y-16600720D01*
D10*
D11*
X1000000Y-1000000D02*
X28700220Y-1000000D01*
X28700220Y-20000720D01*
X1000000Y-20000720D01*
X1000000Y-1000000D01*
D10*
D11*
X1200000Y-1200000D02*
X28500220Y-1200000D01*
X28500220Y-19800720D01*
X1200000Y-19800720D01*
X1200000Y-1200000D01*
D10*
D11*
X6000000Y-1200000D02*
X6000000Y-1000000D01*
D10*
D11*
X11000000Y-1200000D02*
X11000000Y-1000000D01*
D10*
D11*
X16000000Y-1200000D02*
X16000000Y-1000000D01*
D10*
D11*
X21000000Y-1200000D02*
X21000000Y-1000000D01*
D10*
D11*
X26000000Y-1200000D02*
X26000000Y-1000000D01*
D10*
D11*
X3599048Y-1160140D02*
X3524762Y-1160140D01*
X3561905Y-1160140D02*
X3561905Y-1030140D01*
X3561905Y-1030140D02*
X3549524Y-1048712D01*
X3549524Y-1048712D02*
X3537143Y-1061093D01*
X3537143Y-1061093D02*
X3524762Y-1067283D01*
D10*
D11*
X8524762Y-1042521D02*
X8530952Y-1036331D01*
X8530952Y-1036331D02*
X8543333Y-1030140D01*
X8543333Y-1030140D02*
X8574286Y-1030140D01*
X8574286Y-1030140D02*
X8586667Y-1036331D01*
X8586667Y-1036331D02*
X8592857Y-1042521D01*
X8592857Y-1042521D02*
X8599048Y-1054902D01*
X8599048Y-1054902D02*
X8599048Y-1067283D01*
X8599048Y-1067283D02*
X8592857Y-1085855D01*
X8592857Y-1085855D02*
X8518571Y-1160140D01*
X8518571Y-1160140D02*
X8599048Y-1160140D01*
D10*
D11*
X13518571Y-1030140D02*
X13599048Y-1030140D01*
X13599048Y-1030140D02*
X13555714Y-1079664D01*
X13555714Y-1079664D02*
X13574286Y-1079664D01*
X13574286Y-1079664D02*
X13586667Y-1085855D01*
X13586667Y-1085855D02*
X13592857Y-1092045D01*
X13592857Y-1092045D02*
X13599048Y-1104426D01*
X13599048Y-1104426D02*
X13599048Y-1135379D01*
X13599048Y-1135379D02*
X13592857Y-1147760D01*
X13592857Y-1147760D02*
X13586667Y-1153950D01*
X13586667Y-1153950D02*
X13574286Y-1160140D01*
X13574286Y-1160140D02*
X13537143Y-1160140D01*
X13537143Y-1160140D02*
X13524762Y-1153950D01*
X13524762Y-1153950D02*
X13518571Y-1147760D01*
D10*
D11*
X18586667Y-1073474D02*
X18586667Y-1160140D01*
X18555714Y-1023950D02*
X18524762Y-1116807D01*
X18524762Y-1116807D02*
X18605238Y-1116807D01*
D10*
D11*
X23592857Y-1030140D02*
X23530952Y-1030140D01*
X23530952Y-1030140D02*
X23524762Y-1092045D01*
X23524762Y-1092045D02*
X23530952Y-1085855D01*
X23530952Y-1085855D02*
X23543333Y-1079664D01*
X23543333Y-1079664D02*
X23574286Y-1079664D01*
X23574286Y-1079664D02*
X23586667Y-1085855D01*
X23586667Y-1085855D02*
X23592857Y-1092045D01*
X23592857Y-1092045D02*
X23599048Y-1104426D01*
X23599048Y-1104426D02*
X23599048Y-1135379D01*
X23599048Y-1135379D02*
X23592857Y-1147760D01*
X23592857Y-1147760D02*
X23586667Y-1153950D01*
X23586667Y-1153950D02*
X23574286Y-1160140D01*
X23574286Y-1160140D02*
X23543333Y-1160140D01*
X23543333Y-1160140D02*
X23530952Y-1153950D01*
X23530952Y-1153950D02*
X23524762Y-1147760D01*
D10*
D11*
X28586667Y-1030140D02*
X28561905Y-1030140D01*
X28561905Y-1030140D02*
X28549524Y-1036331D01*
X28549524Y-1036331D02*
X28543333Y-1042521D01*
X28543333Y-1042521D02*
X28530952Y-1061093D01*
X28530952Y-1061093D02*
X28524762Y-1085855D01*
X28524762Y-1085855D02*
X28524762Y-1135379D01*
X28524762Y-1135379D02*
X28530952Y-1147760D01*
X28530952Y-1147760D02*
X28537143Y-1153950D01*
X28537143Y-1153950D02*
X28549524Y-1160140D01*
X28549524Y-1160140D02*
X28574286Y-1160140D01*
X28574286Y-1160140D02*
X28586667Y-1153950D01*
X28586667Y-1153950D02*
X28592857Y-1147760D01*
X28592857Y-1147760D02*
X28599048Y-1135379D01*
X28599048Y-1135379D02*
X28599048Y-1104426D01*
X28599048Y-1104426D02*
X28592857Y-1092045D01*
X28592857Y-1092045D02*
X28586667Y-1085855D01*
X28586667Y-1085855D02*
X28574286Y-1079664D01*
X28574286Y-1079664D02*
X28549524Y-1079664D01*
X28549524Y-1079664D02*
X28537143Y-1085855D01*
X28537143Y-1085855D02*
X28530952Y-1092045D01*
X28530952Y-1092045D02*
X28524762Y-1104426D01*
D10*
D11*
X6000000Y-19800720D02*
X6000000Y-20000720D01*
D10*
D11*
X11000000Y-19800720D02*
X11000000Y-20000720D01*
D10*
D11*
X16000000Y-19800720D02*
X16000000Y-20000720D01*
D10*
D11*
X21000000Y-19800720D02*
X21000000Y-20000720D01*
D10*
D11*
X26000000Y-19800720D02*
X26000000Y-20000720D01*
D10*
D11*
X3599048Y-19960860D02*
X3524762Y-19960860D01*
X3561905Y-19960860D02*
X3561905Y-19830860D01*
X3561905Y-19830860D02*
X3549524Y-19849432D01*
X3549524Y-19849432D02*
X3537143Y-19861813D01*
X3537143Y-19861813D02*
X3524762Y-19868003D01*
D10*
D11*
X8524762Y-19843241D02*
X8530952Y-19837051D01*
X8530952Y-19837051D02*
X8543333Y-19830860D01*
X8543333Y-19830860D02*
X8574286Y-19830860D01*
X8574286Y-19830860D02*
X8586667Y-19837051D01*
X8586667Y-19837051D02*
X8592857Y-19843241D01*
X8592857Y-19843241D02*
X8599048Y-19855622D01*
X8599048Y-19855622D02*
X8599048Y-19868003D01*
X8599048Y-19868003D02*
X8592857Y-19886575D01*
X8592857Y-19886575D02*
X8518571Y-19960860D01*
X8518571Y-19960860D02*
X8599048Y-19960860D01*
D10*
D11*
X13518571Y-19830860D02*
X13599048Y-19830860D01*
X13599048Y-19830860D02*
X13555714Y-19880384D01*
X13555714Y-19880384D02*
X13574286Y-19880384D01*
X13574286Y-19880384D02*
X13586667Y-19886575D01*
X13586667Y-19886575D02*
X13592857Y-19892765D01*
X13592857Y-19892765D02*
X13599048Y-19905146D01*
X13599048Y-19905146D02*
X13599048Y-19936099D01*
X13599048Y-19936099D02*
X13592857Y-19948480D01*
X13592857Y-19948480D02*
X13586667Y-19954670D01*
X13586667Y-19954670D02*
X13574286Y-19960860D01*
X13574286Y-19960860D02*
X13537143Y-19960860D01*
X13537143Y-19960860D02*
X13524762Y-19954670D01*
X13524762Y-19954670D02*
X13518571Y-19948480D01*
D10*
D11*
X18586667Y-19874194D02*
X18586667Y-19960860D01*
X18555714Y-19824670D02*
X18524762Y-19917527D01*
X18524762Y-19917527D02*
X18605238Y-19917527D01*
D10*
D11*
X23592857Y-19830860D02*
X23530952Y-19830860D01*
X23530952Y-19830860D02*
X23524762Y-19892765D01*
X23524762Y-19892765D02*
X23530952Y-19886575D01*
X23530952Y-19886575D02*
X23543333Y-19880384D01*
X23543333Y-19880384D02*
X23574286Y-19880384D01*
X23574286Y-19880384D02*
X23586667Y-19886575D01*
X23586667Y-19886575D02*
X23592857Y-19892765D01*
X23592857Y-19892765D02*
X23599048Y-19905146D01*
X23599048Y-19905146D02*
X23599048Y-19936099D01*
X23599048Y-19936099D02*
X23592857Y-19948480D01*
X23592857Y-19948480D02*
X23586667Y-19954670D01*
X23586667Y-19954670D02*
X23574286Y-19960860D01*
X23574286Y-19960860D02*
X23543333Y-19960860D01*
X23543333Y-19960860D02*
X23530952Y-19954670D01*
X23530952Y-19954670D02*
X23524762Y-19948480D01*
D10*
D11*
X28586667Y-19830860D02*
X28561905Y-19830860D01*
X28561905Y-19830860D02*
X28549524Y-19837051D01*
X28549524Y-19837051D02*
X28543333Y-19843241D01*
X28543333Y-19843241D02*
X28530952Y-19861813D01*
X28530952Y-19861813D02*
X28524762Y-19886575D01*
X28524762Y-19886575D02*
X28524762Y-19936099D01*
X28524762Y-19936099D02*
X28530952Y-19948480D01*
X28530952Y-19948480D02*
X28537143Y-19954670D01*
X28537143Y-19954670D02*
X28549524Y-19960860D01*
X28549524Y-19960860D02*
X28574286Y-19960860D01*
X28574286Y-19960860D02*
X28586667Y-19954670D01*
X28586667Y-19954670D02*
X28592857Y-19948480D01*
X28592857Y-19948480D02*
X28599048Y-19936099D01*
X28599048Y-19936099D02*
X28599048Y-19905146D01*
X28599048Y-19905146D02*
X28592857Y-19892765D01*
X28592857Y-19892765D02*
X28586667Y-19886575D01*
X28586667Y-19886575D02*
X28574286Y-19880384D01*
X28574286Y-19880384D02*
X28549524Y-19880384D01*
X28549524Y-19880384D02*
X28537143Y-19886575D01*
X28537143Y-19886575D02*
X28530952Y-19892765D01*
X28530952Y-19892765D02*
X28524762Y-19905146D01*
D10*
D11*
X1000000Y-6000000D02*
X1200000Y-6000000D01*
D10*
D11*
X1000000Y-11000000D02*
X1200000Y-11000000D01*
D10*
D11*
X1000000Y-16000000D02*
X1200000Y-16000000D01*
D10*
D11*
X1069048Y-3522998D02*
X1130952Y-3522998D01*
X1056667Y-3560140D02*
X1100000Y-3430140D01*
X1100000Y-3430140D02*
X1143333Y-3560140D01*
D10*
D11*
X1109286Y-8492045D02*
X1127857Y-8498236D01*
X1127857Y-8498236D02*
X1134048Y-8504426D01*
X1134048Y-8504426D02*
X1140238Y-8516807D01*
X1140238Y-8516807D02*
X1140238Y-8535379D01*
X1140238Y-8535379D02*
X1134048Y-8547760D01*
X1134048Y-8547760D02*
X1127857Y-8553950D01*
X1127857Y-8553950D02*
X1115476Y-8560140D01*
X1115476Y-8560140D02*
X1065952Y-8560140D01*
X1065952Y-8560140D02*
X1065952Y-8430140D01*
X1065952Y-8430140D02*
X1109286Y-8430140D01*
X1109286Y-8430140D02*
X1121667Y-8436331D01*
X1121667Y-8436331D02*
X1127857Y-8442521D01*
X1127857Y-8442521D02*
X1134048Y-8454902D01*
X1134048Y-8454902D02*
X1134048Y-8467283D01*
X1134048Y-8467283D02*
X1127857Y-8479664D01*
X1127857Y-8479664D02*
X1121667Y-8485855D01*
X1121667Y-8485855D02*
X1109286Y-8492045D01*
X1109286Y-8492045D02*
X1065952Y-8492045D01*
D10*
D11*
X1140238Y-13547759D02*
X1134048Y-13553950D01*
X1134048Y-13553950D02*
X1115476Y-13560140D01*
X1115476Y-13560140D02*
X1103095Y-13560140D01*
X1103095Y-13560140D02*
X1084524Y-13553950D01*
X1084524Y-13553950D02*
X1072143Y-13541569D01*
X1072143Y-13541569D02*
X1065952Y-13529188D01*
X1065952Y-13529188D02*
X1059762Y-13504426D01*
X1059762Y-13504426D02*
X1059762Y-13485855D01*
X1059762Y-13485855D02*
X1065952Y-13461093D01*
X1065952Y-13461093D02*
X1072143Y-13448712D01*
X1072143Y-13448712D02*
X1084524Y-13436331D01*
X1084524Y-13436331D02*
X1103095Y-13430140D01*
X1103095Y-13430140D02*
X1115476Y-13430140D01*
X1115476Y-13430140D02*
X1134048Y-13436331D01*
X1134048Y-13436331D02*
X1140238Y-13442521D01*
D10*
D11*
X1065952Y-18560140D02*
X1065952Y-18430140D01*
X1065952Y-18430140D02*
X1096905Y-18430140D01*
X1096905Y-18430140D02*
X1115476Y-18436331D01*
X1115476Y-18436331D02*
X1127857Y-18448712D01*
X1127857Y-18448712D02*
X1134048Y-18461093D01*
X1134048Y-18461093D02*
X1140238Y-18485855D01*
X1140238Y-18485855D02*
X1140238Y-18504426D01*
X1140238Y-18504426D02*
X1134048Y-18529188D01*
X1134048Y-18529188D02*
X1127857Y-18541569D01*
X1127857Y-18541569D02*
X1115476Y-18553950D01*
X1115476Y-18553950D02*
X1096905Y-18560140D01*
X1096905Y-18560140D02*
X1065952Y-18560140D01*
D10*
D11*
X28700220Y-6000000D02*
X28500220Y-6000000D01*
D10*
D11*
X28700220Y-11000000D02*
X28500220Y-11000000D01*
D10*
D11*
X28700220Y-16000000D02*
X28500220Y-16000000D01*
D10*
D11*
X28569268Y-3522998D02*
X28631172Y-3522998D01*
X28556887Y-3560140D02*
X28600220Y-3430140D01*
X28600220Y-3430140D02*
X28643553Y-3560140D01*
D10*
D11*
X28609506Y-8492045D02*
X28628077Y-8498236D01*
X28628077Y-8498236D02*
X28634268Y-8504426D01*
X28634268Y-8504426D02*
X28640458Y-8516807D01*
X28640458Y-8516807D02*
X28640458Y-8535379D01*
X28640458Y-8535379D02*
X28634268Y-8547760D01*
X28634268Y-8547760D02*
X28628077Y-8553950D01*
X28628077Y-8553950D02*
X28615696Y-8560140D01*
X28615696Y-8560140D02*
X28566172Y-8560140D01*
X28566172Y-8560140D02*
X28566172Y-8430140D01*
X28566172Y-8430140D02*
X28609506Y-8430140D01*
X28609506Y-8430140D02*
X28621887Y-8436331D01*
X28621887Y-8436331D02*
X28628077Y-8442521D01*
X28628077Y-8442521D02*
X28634268Y-8454902D01*
X28634268Y-8454902D02*
X28634268Y-8467283D01*
X28634268Y-8467283D02*
X28628077Y-8479664D01*
X28628077Y-8479664D02*
X28621887Y-8485855D01*
X28621887Y-8485855D02*
X28609506Y-8492045D01*
X28609506Y-8492045D02*
X28566172Y-8492045D01*
D10*
D11*
X28640458Y-13547759D02*
X28634268Y-13553950D01*
X28634268Y-13553950D02*
X28615696Y-13560140D01*
X28615696Y-13560140D02*
X28603315Y-13560140D01*
X28603315Y-13560140D02*
X28584744Y-13553950D01*
X28584744Y-13553950D02*
X28572363Y-13541569D01*
X28572363Y-13541569D02*
X28566172Y-13529188D01*
X28566172Y-13529188D02*
X28559982Y-13504426D01*
X28559982Y-13504426D02*
X28559982Y-13485855D01*
X28559982Y-13485855D02*
X28566172Y-13461093D01*
X28566172Y-13461093D02*
X28572363Y-13448712D01*
X28572363Y-13448712D02*
X28584744Y-13436331D01*
X28584744Y-13436331D02*
X28603315Y-13430140D01*
X28603315Y-13430140D02*
X28615696Y-13430140D01*
X28615696Y-13430140D02*
X28634268Y-13436331D01*
X28634268Y-13436331D02*
X28640458Y-13442521D01*
D10*
D11*
X28566172Y-18560140D02*
X28566172Y-18430140D01*
X28566172Y-18430140D02*
X28597125Y-18430140D01*
X28597125Y-18430140D02*
X28615696Y-18436331D01*
X28615696Y-18436331D02*
X28628077Y-18448712D01*
X28628077Y-18448712D02*
X28634268Y-18461093D01*
X28634268Y-18461093D02*
X28640458Y-18485855D01*
X28640458Y-18485855D02*
X28640458Y-18504426D01*
X28640458Y-18504426D02*
X28634268Y-18529188D01*
X28634268Y-18529188D02*
X28628077Y-18541569D01*
X28628077Y-18541569D02*
X28615696Y-18553950D01*
X28615696Y-18553950D02*
X28597125Y-18560140D01*
X28597125Y-18560140D02*
X28566172Y-18560140D01*
D10*
D11*
X20035934Y-19380113D02*
X20035934Y-19230113D01*
X20035934Y-19230113D02*
X20071649Y-19230113D01*
X20071649Y-19230113D02*
X20093077Y-19237256D01*
X20093077Y-19237256D02*
X20107363Y-19251541D01*
X20107363Y-19251541D02*
X20114506Y-19265827D01*
X20114506Y-19265827D02*
X20121649Y-19294399D01*
X20121649Y-19294399D02*
X20121649Y-19315827D01*
X20121649Y-19315827D02*
X20114506Y-19344399D01*
X20114506Y-19344399D02*
X20107363Y-19358684D01*
X20107363Y-19358684D02*
X20093077Y-19372970D01*
X20093077Y-19372970D02*
X20071649Y-19380113D01*
X20071649Y-19380113D02*
X20035934Y-19380113D01*
X20250220Y-19380113D02*
X20250220Y-19301541D01*
X20250220Y-19301541D02*
X20243077Y-19287256D01*
X20243077Y-19287256D02*
X20228791Y-19280113D01*
X20228791Y-19280113D02*
X20200220Y-19280113D01*
X20200220Y-19280113D02*
X20185934Y-19287256D01*
X20250220Y-19372970D02*
X20235934Y-19380113D01*
X20235934Y-19380113D02*
X20200220Y-19380113D01*
X20200220Y-19380113D02*
X20185934Y-19372970D01*
X20185934Y-19372970D02*
X20178791Y-19358684D01*
X20178791Y-19358684D02*
X20178791Y-19344399D01*
X20178791Y-19344399D02*
X20185934Y-19330113D01*
X20185934Y-19330113D02*
X20200220Y-19322970D01*
X20200220Y-19322970D02*
X20235934Y-19322970D01*
X20235934Y-19322970D02*
X20250220Y-19315827D01*
X20300220Y-19280113D02*
X20357363Y-19280113D01*
X20321649Y-19230113D02*
X20321649Y-19358684D01*
X20321649Y-19358684D02*
X20328791Y-19372970D01*
X20328791Y-19372970D02*
X20343077Y-19380113D01*
X20343077Y-19380113D02*
X20357363Y-19380113D01*
X20464506Y-19372970D02*
X20450220Y-19380113D01*
X20450220Y-19380113D02*
X20421649Y-19380113D01*
X20421649Y-19380113D02*
X20407363Y-19372970D01*
X20407363Y-19372970D02*
X20400220Y-19358684D01*
X20400220Y-19358684D02*
X20400220Y-19301541D01*
X20400220Y-19301541D02*
X20407363Y-19287256D01*
X20407363Y-19287256D02*
X20421649Y-19280113D01*
X20421649Y-19280113D02*
X20450220Y-19280113D01*
X20450220Y-19280113D02*
X20464506Y-19287256D01*
X20464506Y-19287256D02*
X20471649Y-19301541D01*
X20471649Y-19301541D02*
X20471649Y-19315827D01*
X20471649Y-19315827D02*
X20400220Y-19330113D01*
X20535934Y-19365827D02*
X20543077Y-19372970D01*
X20543077Y-19372970D02*
X20535934Y-19380113D01*
X20535934Y-19380113D02*
X20528791Y-19372970D01*
X20528791Y-19372970D02*
X20535934Y-19365827D01*
X20535934Y-19365827D02*
X20535934Y-19380113D01*
X20535934Y-19287256D02*
X20543077Y-19294399D01*
X20543077Y-19294399D02*
X20535934Y-19301541D01*
X20535934Y-19301541D02*
X20528791Y-19294399D01*
X20528791Y-19294399D02*
X20535934Y-19287256D01*
X20535934Y-19287256D02*
X20535934Y-19301541D01*
D10*
D11*
X17700220Y-19450720D02*
X28500220Y-19450720D01*
D10*
D11*
X17835934Y-19660113D02*
X17835934Y-19510113D01*
X17921649Y-19660113D02*
X17857363Y-19574399D01*
X17921649Y-19510113D02*
X17835934Y-19595827D01*
X17985934Y-19660113D02*
X17985934Y-19560113D01*
X17985934Y-19510113D02*
X17978791Y-19517256D01*
X17978791Y-19517256D02*
X17985934Y-19524399D01*
X17985934Y-19524399D02*
X17993077Y-19517256D01*
X17993077Y-19517256D02*
X17985934Y-19510113D01*
X17985934Y-19510113D02*
X17985934Y-19524399D01*
X18143077Y-19645827D02*
X18135934Y-19652970D01*
X18135934Y-19652970D02*
X18114506Y-19660113D01*
X18114506Y-19660113D02*
X18100220Y-19660113D01*
X18100220Y-19660113D02*
X18078791Y-19652970D01*
X18078791Y-19652970D02*
X18064506Y-19638684D01*
X18064506Y-19638684D02*
X18057363Y-19624399D01*
X18057363Y-19624399D02*
X18050220Y-19595827D01*
X18050220Y-19595827D02*
X18050220Y-19574399D01*
X18050220Y-19574399D02*
X18057363Y-19545827D01*
X18057363Y-19545827D02*
X18064506Y-19531541D01*
X18064506Y-19531541D02*
X18078791Y-19517256D01*
X18078791Y-19517256D02*
X18100220Y-19510113D01*
X18100220Y-19510113D02*
X18114506Y-19510113D01*
X18114506Y-19510113D02*
X18135934Y-19517256D01*
X18135934Y-19517256D02*
X18143077Y-19524399D01*
X18271649Y-19660113D02*
X18271649Y-19581541D01*
X18271649Y-19581541D02*
X18264506Y-19567256D01*
X18264506Y-19567256D02*
X18250220Y-19560113D01*
X18250220Y-19560113D02*
X18221649Y-19560113D01*
X18221649Y-19560113D02*
X18207363Y-19567256D01*
X18271649Y-19652970D02*
X18257363Y-19660113D01*
X18257363Y-19660113D02*
X18221649Y-19660113D01*
X18221649Y-19660113D02*
X18207363Y-19652970D01*
X18207363Y-19652970D02*
X18200220Y-19638684D01*
X18200220Y-19638684D02*
X18200220Y-19624399D01*
X18200220Y-19624399D02*
X18207363Y-19610113D01*
X18207363Y-19610113D02*
X18221649Y-19602970D01*
X18221649Y-19602970D02*
X18257363Y-19602970D01*
X18257363Y-19602970D02*
X18271649Y-19595827D01*
X18407363Y-19660113D02*
X18407363Y-19510113D01*
X18407363Y-19652970D02*
X18393077Y-19660113D01*
X18393077Y-19660113D02*
X18364506Y-19660113D01*
X18364506Y-19660113D02*
X18350220Y-19652970D01*
X18350220Y-19652970D02*
X18343077Y-19645827D01*
X18343077Y-19645827D02*
X18335934Y-19631541D01*
X18335934Y-19631541D02*
X18335934Y-19588684D01*
X18335934Y-19588684D02*
X18343077Y-19574399D01*
X18343077Y-19574399D02*
X18350220Y-19567256D01*
X18350220Y-19567256D02*
X18364506Y-19560113D01*
X18364506Y-19560113D02*
X18393077Y-19560113D01*
X18393077Y-19560113D02*
X18407363Y-19567256D01*
X18593077Y-19581541D02*
X18643077Y-19581541D01*
X18664506Y-19660113D02*
X18593077Y-19660113D01*
X18593077Y-19660113D02*
X18593077Y-19510113D01*
X18593077Y-19510113D02*
X18664506Y-19510113D01*
X18728791Y-19645827D02*
X18735934Y-19652970D01*
X18735934Y-19652970D02*
X18728791Y-19660113D01*
X18728791Y-19660113D02*
X18721649Y-19652970D01*
X18721649Y-19652970D02*
X18728791Y-19645827D01*
X18728791Y-19645827D02*
X18728791Y-19660113D01*
X18800220Y-19660113D02*
X18800220Y-19510113D01*
X18800220Y-19510113D02*
X18835934Y-19510113D01*
X18835934Y-19510113D02*
X18857363Y-19517256D01*
X18857363Y-19517256D02*
X18871649Y-19531541D01*
X18871649Y-19531541D02*
X18878792Y-19545827D01*
X18878792Y-19545827D02*
X18885934Y-19574399D01*
X18885934Y-19574399D02*
X18885934Y-19595827D01*
X18885934Y-19595827D02*
X18878792Y-19624399D01*
X18878792Y-19624399D02*
X18871649Y-19638684D01*
X18871649Y-19638684D02*
X18857363Y-19652970D01*
X18857363Y-19652970D02*
X18835934Y-19660113D01*
X18835934Y-19660113D02*
X18800220Y-19660113D01*
X18950220Y-19645827D02*
X18957363Y-19652970D01*
X18957363Y-19652970D02*
X18950220Y-19660113D01*
X18950220Y-19660113D02*
X18943077Y-19652970D01*
X18943077Y-19652970D02*
X18950220Y-19645827D01*
X18950220Y-19645827D02*
X18950220Y-19660113D01*
X19014506Y-19617256D02*
X19085934Y-19617256D01*
X19000220Y-19660113D02*
X19050220Y-19510113D01*
X19050220Y-19510113D02*
X19100220Y-19660113D01*
X19150220Y-19645827D02*
X19157363Y-19652970D01*
X19157363Y-19652970D02*
X19150220Y-19660113D01*
X19150220Y-19660113D02*
X19143077Y-19652970D01*
X19143077Y-19652970D02*
X19150220Y-19645827D01*
X19150220Y-19645827D02*
X19150220Y-19660113D01*
X19450220Y-19660113D02*
X19450220Y-19510113D01*
X19464506Y-19602970D02*
X19507363Y-19660113D01*
X19507363Y-19560113D02*
X19450220Y-19617256D01*
X19571649Y-19660113D02*
X19571649Y-19560113D01*
X19571649Y-19510113D02*
X19564506Y-19517256D01*
X19564506Y-19517256D02*
X19571649Y-19524399D01*
X19571649Y-19524399D02*
X19578792Y-19517256D01*
X19578792Y-19517256D02*
X19571649Y-19510113D01*
X19571649Y-19510113D02*
X19571649Y-19524399D01*
X19707363Y-19652970D02*
X19693077Y-19660113D01*
X19693077Y-19660113D02*
X19664506Y-19660113D01*
X19664506Y-19660113D02*
X19650220Y-19652970D01*
X19650220Y-19652970D02*
X19643077Y-19645827D01*
X19643077Y-19645827D02*
X19635934Y-19631541D01*
X19635934Y-19631541D02*
X19635934Y-19588684D01*
X19635934Y-19588684D02*
X19643077Y-19574399D01*
X19643077Y-19574399D02*
X19650220Y-19567256D01*
X19650220Y-19567256D02*
X19664506Y-19560113D01*
X19664506Y-19560113D02*
X19693077Y-19560113D01*
X19693077Y-19560113D02*
X19707363Y-19567256D01*
X19835934Y-19660113D02*
X19835934Y-19581541D01*
X19835934Y-19581541D02*
X19828792Y-19567256D01*
X19828792Y-19567256D02*
X19814506Y-19560113D01*
X19814506Y-19560113D02*
X19785934Y-19560113D01*
X19785934Y-19560113D02*
X19771649Y-19567256D01*
X19835934Y-19652970D02*
X19821649Y-19660113D01*
X19821649Y-19660113D02*
X19785934Y-19660113D01*
X19785934Y-19660113D02*
X19771649Y-19652970D01*
X19771649Y-19652970D02*
X19764506Y-19638684D01*
X19764506Y-19638684D02*
X19764506Y-19624399D01*
X19764506Y-19624399D02*
X19771649Y-19610113D01*
X19771649Y-19610113D02*
X19785934Y-19602970D01*
X19785934Y-19602970D02*
X19821649Y-19602970D01*
X19821649Y-19602970D02*
X19835934Y-19595827D01*
X19971649Y-19660113D02*
X19971649Y-19510113D01*
X19971649Y-19652970D02*
X19957363Y-19660113D01*
X19957363Y-19660113D02*
X19928792Y-19660113D01*
X19928792Y-19660113D02*
X19914506Y-19652970D01*
X19914506Y-19652970D02*
X19907363Y-19645827D01*
X19907363Y-19645827D02*
X19900220Y-19631541D01*
X19900220Y-19631541D02*
X19900220Y-19588684D01*
X19900220Y-19588684D02*
X19907363Y-19574399D01*
X19907363Y-19574399D02*
X19914506Y-19567256D01*
X19914506Y-19567256D02*
X19928792Y-19560113D01*
X19928792Y-19560113D02*
X19957363Y-19560113D01*
X19957363Y-19560113D02*
X19971649Y-19567256D01*
X20143077Y-19510113D02*
X20243077Y-19510113D01*
X20243077Y-19510113D02*
X20178792Y-19660113D01*
X20300220Y-19645827D02*
X20307363Y-19652970D01*
X20307363Y-19652970D02*
X20300220Y-19660113D01*
X20300220Y-19660113D02*
X20293077Y-19652970D01*
X20293077Y-19652970D02*
X20300220Y-19645827D01*
X20300220Y-19645827D02*
X20300220Y-19660113D01*
X20400220Y-19510113D02*
X20414506Y-19510113D01*
X20414506Y-19510113D02*
X20428792Y-19517256D01*
X20428792Y-19517256D02*
X20435934Y-19524399D01*
X20435934Y-19524399D02*
X20443077Y-19538684D01*
X20443077Y-19538684D02*
X20450220Y-19567256D01*
X20450220Y-19567256D02*
X20450220Y-19602970D01*
X20450220Y-19602970D02*
X20443077Y-19631541D01*
X20443077Y-19631541D02*
X20435934Y-19645827D01*
X20435934Y-19645827D02*
X20428792Y-19652970D01*
X20428792Y-19652970D02*
X20414506Y-19660113D01*
X20414506Y-19660113D02*
X20400220Y-19660113D01*
X20400220Y-19660113D02*
X20385934Y-19652970D01*
X20385934Y-19652970D02*
X20378792Y-19645827D01*
X20378792Y-19645827D02*
X20371649Y-19631541D01*
X20371649Y-19631541D02*
X20364506Y-19602970D01*
X20364506Y-19602970D02*
X20364506Y-19567256D01*
X20364506Y-19567256D02*
X20371649Y-19538684D01*
X20371649Y-19538684D02*
X20378792Y-19524399D01*
X20378792Y-19524399D02*
X20385934Y-19517256D01*
X20385934Y-19517256D02*
X20400220Y-19510113D01*
X20514506Y-19645827D02*
X20521649Y-19652970D01*
X20521649Y-19652970D02*
X20514506Y-19660113D01*
X20514506Y-19660113D02*
X20507363Y-19652970D01*
X20507363Y-19652970D02*
X20514506Y-19645827D01*
X20514506Y-19645827D02*
X20514506Y-19660113D01*
X20664506Y-19660113D02*
X20578792Y-19660113D01*
X20621649Y-19660113D02*
X20621649Y-19510113D01*
X20621649Y-19510113D02*
X20607363Y-19531541D01*
X20607363Y-19531541D02*
X20593077Y-19545827D01*
X20593077Y-19545827D02*
X20578792Y-19552970D01*
D10*
D11*
X17700220Y-19150720D02*
X28500220Y-19150720D01*
D10*
D12*
X26421648Y-19380113D02*
X26371648Y-19308684D01*
X26335934Y-19380113D02*
X26335934Y-19230113D01*
X26335934Y-19230113D02*
X26393077Y-19230113D01*
X26393077Y-19230113D02*
X26407363Y-19237256D01*
X26407363Y-19237256D02*
X26414506Y-19244399D01*
X26414506Y-19244399D02*
X26421648Y-19258684D01*
X26421648Y-19258684D02*
X26421648Y-19280113D01*
X26421648Y-19280113D02*
X26414506Y-19294399D01*
X26414506Y-19294399D02*
X26407363Y-19301541D01*
X26407363Y-19301541D02*
X26393077Y-19308684D01*
X26393077Y-19308684D02*
X26335934Y-19308684D01*
X26543077Y-19372970D02*
X26528791Y-19380113D01*
X26528791Y-19380113D02*
X26500220Y-19380113D01*
X26500220Y-19380113D02*
X26485934Y-19372970D01*
X26485934Y-19372970D02*
X26478791Y-19358684D01*
X26478791Y-19358684D02*
X26478791Y-19301541D01*
X26478791Y-19301541D02*
X26485934Y-19287256D01*
X26485934Y-19287256D02*
X26500220Y-19280113D01*
X26500220Y-19280113D02*
X26528791Y-19280113D01*
X26528791Y-19280113D02*
X26543077Y-19287256D01*
X26543077Y-19287256D02*
X26550220Y-19301541D01*
X26550220Y-19301541D02*
X26550220Y-19315827D01*
X26550220Y-19315827D02*
X26478791Y-19330113D01*
X26600220Y-19280113D02*
X26635934Y-19380113D01*
X26635934Y-19380113D02*
X26671648Y-19280113D01*
X26728791Y-19365827D02*
X26735934Y-19372970D01*
X26735934Y-19372970D02*
X26728791Y-19380113D01*
X26728791Y-19380113D02*
X26721648Y-19372970D01*
X26721648Y-19372970D02*
X26728791Y-19365827D01*
X26728791Y-19365827D02*
X26728791Y-19380113D01*
X26728791Y-19287256D02*
X26735934Y-19294399D01*
X26735934Y-19294399D02*
X26728791Y-19301541D01*
X26728791Y-19301541D02*
X26721648Y-19294399D01*
X26721648Y-19294399D02*
X26728791Y-19287256D01*
X26728791Y-19287256D02*
X26728791Y-19301541D01*
D10*
D11*
X17828791Y-19372970D02*
X17850220Y-19380113D01*
X17850220Y-19380113D02*
X17885934Y-19380113D01*
X17885934Y-19380113D02*
X17900220Y-19372970D01*
X17900220Y-19372970D02*
X17907363Y-19365827D01*
X17907363Y-19365827D02*
X17914506Y-19351541D01*
X17914506Y-19351541D02*
X17914506Y-19337256D01*
X17914506Y-19337256D02*
X17907363Y-19322970D01*
X17907363Y-19322970D02*
X17900220Y-19315827D01*
X17900220Y-19315827D02*
X17885934Y-19308684D01*
X17885934Y-19308684D02*
X17857363Y-19301541D01*
X17857363Y-19301541D02*
X17843077Y-19294399D01*
X17843077Y-19294399D02*
X17835934Y-19287256D01*
X17835934Y-19287256D02*
X17828791Y-19272970D01*
X17828791Y-19272970D02*
X17828791Y-19258684D01*
X17828791Y-19258684D02*
X17835934Y-19244399D01*
X17835934Y-19244399D02*
X17843077Y-19237256D01*
X17843077Y-19237256D02*
X17857363Y-19230113D01*
X17857363Y-19230113D02*
X17893077Y-19230113D01*
X17893077Y-19230113D02*
X17914506Y-19237256D01*
X17978791Y-19380113D02*
X17978791Y-19280113D01*
X17978791Y-19230113D02*
X17971649Y-19237256D01*
X17971649Y-19237256D02*
X17978791Y-19244399D01*
X17978791Y-19244399D02*
X17985934Y-19237256D01*
X17985934Y-19237256D02*
X17978791Y-19230113D01*
X17978791Y-19230113D02*
X17978791Y-19244399D01*
X18035934Y-19280113D02*
X18114506Y-19280113D01*
X18114506Y-19280113D02*
X18035934Y-19380113D01*
X18035934Y-19380113D02*
X18114506Y-19380113D01*
X18228791Y-19372970D02*
X18214506Y-19380113D01*
X18214506Y-19380113D02*
X18185934Y-19380113D01*
X18185934Y-19380113D02*
X18171649Y-19372970D01*
X18171649Y-19372970D02*
X18164506Y-19358684D01*
X18164506Y-19358684D02*
X18164506Y-19301541D01*
X18164506Y-19301541D02*
X18171649Y-19287256D01*
X18171649Y-19287256D02*
X18185934Y-19280113D01*
X18185934Y-19280113D02*
X18214506Y-19280113D01*
X18214506Y-19280113D02*
X18228791Y-19287256D01*
X18228791Y-19287256D02*
X18235934Y-19301541D01*
X18235934Y-19301541D02*
X18235934Y-19315827D01*
X18235934Y-19315827D02*
X18164506Y-19330113D01*
X18300220Y-19365827D02*
X18307363Y-19372970D01*
X18307363Y-19372970D02*
X18300220Y-19380113D01*
X18300220Y-19380113D02*
X18293077Y-19372970D01*
X18293077Y-19372970D02*
X18300220Y-19365827D01*
X18300220Y-19365827D02*
X18300220Y-19380113D01*
X18300220Y-19287256D02*
X18307363Y-19294399D01*
X18307363Y-19294399D02*
X18300220Y-19301541D01*
X18300220Y-19301541D02*
X18293077Y-19294399D01*
X18293077Y-19294399D02*
X18300220Y-19287256D01*
X18300220Y-19287256D02*
X18300220Y-19301541D01*
X18478791Y-19337256D02*
X18550220Y-19337256D01*
X18464506Y-19380113D02*
X18514506Y-19230113D01*
X18514506Y-19230113D02*
X18564506Y-19380113D01*
X18678791Y-19280113D02*
X18678791Y-19380113D01*
X18643077Y-19222970D02*
X18607363Y-19330113D01*
X18607363Y-19330113D02*
X18700220Y-19330113D01*
D10*
D11*
X26335934Y-19660113D02*
X26335934Y-19510113D01*
X26471649Y-19660113D02*
X26471649Y-19510113D01*
X26471649Y-19652970D02*
X26457363Y-19660113D01*
X26457363Y-19660113D02*
X26428791Y-19660113D01*
X26428791Y-19660113D02*
X26414506Y-19652970D01*
X26414506Y-19652970D02*
X26407363Y-19645827D01*
X26407363Y-19645827D02*
X26400220Y-19631541D01*
X26400220Y-19631541D02*
X26400220Y-19588684D01*
X26400220Y-19588684D02*
X26407363Y-19574399D01*
X26407363Y-19574399D02*
X26414506Y-19567256D01*
X26414506Y-19567256D02*
X26428791Y-19560113D01*
X26428791Y-19560113D02*
X26457363Y-19560113D01*
X26457363Y-19560113D02*
X26471649Y-19567256D01*
X26543077Y-19645827D02*
X26550220Y-19652970D01*
X26550220Y-19652970D02*
X26543077Y-19660113D01*
X26543077Y-19660113D02*
X26535934Y-19652970D01*
X26535934Y-19652970D02*
X26543077Y-19645827D01*
X26543077Y-19645827D02*
X26543077Y-19660113D01*
X26543077Y-19567256D02*
X26550220Y-19574399D01*
X26550220Y-19574399D02*
X26543077Y-19581541D01*
X26543077Y-19581541D02*
X26535934Y-19574399D01*
X26535934Y-19574399D02*
X26543077Y-19567256D01*
X26543077Y-19567256D02*
X26543077Y-19581541D01*
X26807363Y-19660113D02*
X26721649Y-19660113D01*
X26764506Y-19660113D02*
X26764506Y-19510113D01*
X26764506Y-19510113D02*
X26750220Y-19531541D01*
X26750220Y-19531541D02*
X26735934Y-19545827D01*
X26735934Y-19545827D02*
X26721649Y-19552970D01*
X26978791Y-19502970D02*
X26850220Y-19695827D01*
X27107363Y-19660113D02*
X27021649Y-19660113D01*
X27064506Y-19660113D02*
X27064506Y-19510113D01*
X27064506Y-19510113D02*
X27050220Y-19531541D01*
X27050220Y-19531541D02*
X27035934Y-19545827D01*
X27035934Y-19545827D02*
X27021649Y-19552970D01*
D10*
D11*
X17700220Y-18750720D02*
X28500220Y-18750720D01*
D10*
D13*
X17843077Y-18823244D02*
X17957363Y-18823244D01*
X17875220Y-19023244D02*
X17900220Y-18823244D01*
X17997839Y-19023244D02*
X18014506Y-18889910D01*
X18022839Y-18823244D02*
X18012125Y-18832768D01*
X18012125Y-18832768D02*
X18020458Y-18842291D01*
X18020458Y-18842291D02*
X18031172Y-18832768D01*
X18031172Y-18832768D02*
X18022839Y-18823244D01*
X18022839Y-18823244D02*
X18020458Y-18842291D01*
X18079982Y-18889910D02*
X18156172Y-18889910D01*
X18116887Y-18823244D02*
X18095458Y-18994672D01*
X18095458Y-18994672D02*
X18102601Y-19013720D01*
X18102601Y-19013720D02*
X18120458Y-19023244D01*
X18120458Y-19023244D02*
X18139506Y-19023244D01*
X18233553Y-19023244D02*
X18215696Y-19013720D01*
X18215696Y-19013720D02*
X18208553Y-18994672D01*
X18208553Y-18994672D02*
X18229982Y-18823244D01*
X18385934Y-19013720D02*
X18365696Y-19023244D01*
X18365696Y-19023244D02*
X18327601Y-19023244D01*
X18327601Y-19023244D02*
X18309744Y-19013720D01*
X18309744Y-19013720D02*
X18302601Y-18994672D01*
X18302601Y-18994672D02*
X18312125Y-18918482D01*
X18312125Y-18918482D02*
X18324029Y-18899434D01*
X18324029Y-18899434D02*
X18344268Y-18889910D01*
X18344268Y-18889910D02*
X18382363Y-18889910D01*
X18382363Y-18889910D02*
X18400220Y-18899434D01*
X18400220Y-18899434D02*
X18407363Y-18918482D01*
X18407363Y-18918482D02*
X18404982Y-18937530D01*
X18404982Y-18937530D02*
X18307363Y-18956577D01*
X18481172Y-19004196D02*
X18489506Y-19013720D01*
X18489506Y-19013720D02*
X18478791Y-19023244D01*
X18478791Y-19023244D02*
X18470458Y-19013720D01*
X18470458Y-19013720D02*
X18481172Y-19004196D01*
X18481172Y-19004196D02*
X18478791Y-19023244D01*
X18494268Y-18899434D02*
X18502601Y-18908958D01*
X18502601Y-18908958D02*
X18491887Y-18918482D01*
X18491887Y-18918482D02*
X18483553Y-18908958D01*
X18483553Y-18908958D02*
X18494268Y-18899434D01*
X18494268Y-18899434D02*
X18491887Y-18918482D01*
D10*
D11*
X17885934Y-18561541D02*
X17835934Y-18561541D01*
X17835934Y-18640113D02*
X17835934Y-18490113D01*
X17835934Y-18490113D02*
X17907363Y-18490113D01*
X17964506Y-18640113D02*
X17964506Y-18540113D01*
X17964506Y-18490113D02*
X17957363Y-18497256D01*
X17957363Y-18497256D02*
X17964506Y-18504399D01*
X17964506Y-18504399D02*
X17971649Y-18497256D01*
X17971649Y-18497256D02*
X17964506Y-18490113D01*
X17964506Y-18490113D02*
X17964506Y-18504399D01*
X18057363Y-18640113D02*
X18043077Y-18632970D01*
X18043077Y-18632970D02*
X18035934Y-18618684D01*
X18035934Y-18618684D02*
X18035934Y-18490113D01*
X18171649Y-18632970D02*
X18157363Y-18640113D01*
X18157363Y-18640113D02*
X18128791Y-18640113D01*
X18128791Y-18640113D02*
X18114506Y-18632970D01*
X18114506Y-18632970D02*
X18107363Y-18618684D01*
X18107363Y-18618684D02*
X18107363Y-18561541D01*
X18107363Y-18561541D02*
X18114506Y-18547256D01*
X18114506Y-18547256D02*
X18128791Y-18540113D01*
X18128791Y-18540113D02*
X18157363Y-18540113D01*
X18157363Y-18540113D02*
X18171649Y-18547256D01*
X18171649Y-18547256D02*
X18178791Y-18561541D01*
X18178791Y-18561541D02*
X18178791Y-18575827D01*
X18178791Y-18575827D02*
X18107363Y-18590113D01*
X18243077Y-18625827D02*
X18250220Y-18632970D01*
X18250220Y-18632970D02*
X18243077Y-18640113D01*
X18243077Y-18640113D02*
X18235934Y-18632970D01*
X18235934Y-18632970D02*
X18243077Y-18625827D01*
X18243077Y-18625827D02*
X18243077Y-18640113D01*
X18243077Y-18547256D02*
X18250220Y-18554399D01*
X18250220Y-18554399D02*
X18243077Y-18561541D01*
X18243077Y-18561541D02*
X18235934Y-18554399D01*
X18235934Y-18554399D02*
X18243077Y-18547256D01*
X18243077Y-18547256D02*
X18243077Y-18561541D01*
X18514506Y-18625827D02*
X18507363Y-18632970D01*
X18507363Y-18632970D02*
X18485934Y-18640113D01*
X18485934Y-18640113D02*
X18471649Y-18640113D01*
X18471649Y-18640113D02*
X18450220Y-18632970D01*
X18450220Y-18632970D02*
X18435934Y-18618684D01*
X18435934Y-18618684D02*
X18428791Y-18604399D01*
X18428791Y-18604399D02*
X18421649Y-18575827D01*
X18421649Y-18575827D02*
X18421649Y-18554399D01*
X18421649Y-18554399D02*
X18428791Y-18525827D01*
X18428791Y-18525827D02*
X18435934Y-18511541D01*
X18435934Y-18511541D02*
X18450220Y-18497256D01*
X18450220Y-18497256D02*
X18471649Y-18490113D01*
X18471649Y-18490113D02*
X18485934Y-18490113D01*
X18485934Y-18490113D02*
X18507363Y-18497256D01*
X18507363Y-18497256D02*
X18514506Y-18504399D01*
X18600220Y-18640113D02*
X18585934Y-18632970D01*
X18585934Y-18632970D02*
X18578791Y-18625827D01*
X18578791Y-18625827D02*
X18571649Y-18611541D01*
X18571649Y-18611541D02*
X18571649Y-18568684D01*
X18571649Y-18568684D02*
X18578791Y-18554399D01*
X18578791Y-18554399D02*
X18585934Y-18547256D01*
X18585934Y-18547256D02*
X18600220Y-18540113D01*
X18600220Y-18540113D02*
X18621649Y-18540113D01*
X18621649Y-18540113D02*
X18635934Y-18547256D01*
X18635934Y-18547256D02*
X18643077Y-18554399D01*
X18643077Y-18554399D02*
X18650220Y-18568684D01*
X18650220Y-18568684D02*
X18650220Y-18611541D01*
X18650220Y-18611541D02*
X18643077Y-18625827D01*
X18643077Y-18625827D02*
X18635934Y-18632970D01*
X18635934Y-18632970D02*
X18621649Y-18640113D01*
X18621649Y-18640113D02*
X18600220Y-18640113D01*
X18714506Y-18540113D02*
X18714506Y-18640113D01*
X18714506Y-18554399D02*
X18721649Y-18547256D01*
X18721649Y-18547256D02*
X18735934Y-18540113D01*
X18735934Y-18540113D02*
X18757363Y-18540113D01*
X18757363Y-18540113D02*
X18771649Y-18547256D01*
X18771649Y-18547256D02*
X18778791Y-18561541D01*
X18778791Y-18561541D02*
X18778791Y-18640113D01*
X18828791Y-18540113D02*
X18885934Y-18540113D01*
X18850220Y-18490113D02*
X18850220Y-18618684D01*
X18850220Y-18618684D02*
X18857363Y-18632970D01*
X18857363Y-18632970D02*
X18871649Y-18640113D01*
X18871649Y-18640113D02*
X18885934Y-18640113D01*
X18935934Y-18640113D02*
X18935934Y-18540113D01*
X18935934Y-18568684D02*
X18943077Y-18554399D01*
X18943077Y-18554399D02*
X18950220Y-18547256D01*
X18950220Y-18547256D02*
X18964506Y-18540113D01*
X18964506Y-18540113D02*
X18978791Y-18540113D01*
X19050220Y-18640113D02*
X19035934Y-18632970D01*
X19035934Y-18632970D02*
X19028791Y-18625827D01*
X19028791Y-18625827D02*
X19021649Y-18611541D01*
X19021649Y-18611541D02*
X19021649Y-18568684D01*
X19021649Y-18568684D02*
X19028791Y-18554399D01*
X19028791Y-18554399D02*
X19035934Y-18547256D01*
X19035934Y-18547256D02*
X19050220Y-18540113D01*
X19050220Y-18540113D02*
X19071649Y-18540113D01*
X19071649Y-18540113D02*
X19085934Y-18547256D01*
X19085934Y-18547256D02*
X19093077Y-18554399D01*
X19093077Y-18554399D02*
X19100220Y-18568684D01*
X19100220Y-18568684D02*
X19100220Y-18611541D01*
X19100220Y-18611541D02*
X19093077Y-18625827D01*
X19093077Y-18625827D02*
X19085934Y-18632970D01*
X19085934Y-18632970D02*
X19071649Y-18640113D01*
X19071649Y-18640113D02*
X19050220Y-18640113D01*
X19185934Y-18640113D02*
X19171649Y-18632970D01*
X19171649Y-18632970D02*
X19164506Y-18618684D01*
X19164506Y-18618684D02*
X19164506Y-18490113D01*
X19207363Y-18654399D02*
X19321649Y-18654399D01*
X19407363Y-18561541D02*
X19428791Y-18568684D01*
X19428791Y-18568684D02*
X19435934Y-18575827D01*
X19435934Y-18575827D02*
X19443077Y-18590113D01*
X19443077Y-18590113D02*
X19443077Y-18611541D01*
X19443077Y-18611541D02*
X19435934Y-18625827D01*
X19435934Y-18625827D02*
X19428791Y-18632970D01*
X19428791Y-18632970D02*
X19414506Y-18640113D01*
X19414506Y-18640113D02*
X19357363Y-18640113D01*
X19357363Y-18640113D02*
X19357363Y-18490113D01*
X19357363Y-18490113D02*
X19407363Y-18490113D01*
X19407363Y-18490113D02*
X19421649Y-18497256D01*
X19421649Y-18497256D02*
X19428791Y-18504399D01*
X19428791Y-18504399D02*
X19435934Y-18518684D01*
X19435934Y-18518684D02*
X19435934Y-18532970D01*
X19435934Y-18532970D02*
X19428791Y-18547256D01*
X19428791Y-18547256D02*
X19421649Y-18554399D01*
X19421649Y-18554399D02*
X19407363Y-18561541D01*
X19407363Y-18561541D02*
X19357363Y-18561541D01*
X19528791Y-18640113D02*
X19514506Y-18632970D01*
X19514506Y-18632970D02*
X19507363Y-18625827D01*
X19507363Y-18625827D02*
X19500220Y-18611541D01*
X19500220Y-18611541D02*
X19500220Y-18568684D01*
X19500220Y-18568684D02*
X19507363Y-18554399D01*
X19507363Y-18554399D02*
X19514506Y-18547256D01*
X19514506Y-18547256D02*
X19528791Y-18540113D01*
X19528791Y-18540113D02*
X19550220Y-18540113D01*
X19550220Y-18540113D02*
X19564506Y-18547256D01*
X19564506Y-18547256D02*
X19571649Y-18554399D01*
X19571649Y-18554399D02*
X19578791Y-18568684D01*
X19578791Y-18568684D02*
X19578791Y-18611541D01*
X19578791Y-18611541D02*
X19571649Y-18625827D01*
X19571649Y-18625827D02*
X19564506Y-18632970D01*
X19564506Y-18632970D02*
X19550220Y-18640113D01*
X19550220Y-18640113D02*
X19528791Y-18640113D01*
X19707363Y-18640113D02*
X19707363Y-18561541D01*
X19707363Y-18561541D02*
X19700220Y-18547256D01*
X19700220Y-18547256D02*
X19685934Y-18540113D01*
X19685934Y-18540113D02*
X19657363Y-18540113D01*
X19657363Y-18540113D02*
X19643077Y-18547256D01*
X19707363Y-18632970D02*
X19693077Y-18640113D01*
X19693077Y-18640113D02*
X19657363Y-18640113D01*
X19657363Y-18640113D02*
X19643077Y-18632970D01*
X19643077Y-18632970D02*
X19635934Y-18618684D01*
X19635934Y-18618684D02*
X19635934Y-18604399D01*
X19635934Y-18604399D02*
X19643077Y-18590113D01*
X19643077Y-18590113D02*
X19657363Y-18582970D01*
X19657363Y-18582970D02*
X19693077Y-18582970D01*
X19693077Y-18582970D02*
X19707363Y-18575827D01*
X19778791Y-18640113D02*
X19778791Y-18540113D01*
X19778791Y-18568684D02*
X19785934Y-18554399D01*
X19785934Y-18554399D02*
X19793077Y-18547256D01*
X19793077Y-18547256D02*
X19807363Y-18540113D01*
X19807363Y-18540113D02*
X19821649Y-18540113D01*
X19935934Y-18640113D02*
X19935934Y-18490113D01*
X19935934Y-18632970D02*
X19921648Y-18640113D01*
X19921648Y-18640113D02*
X19893077Y-18640113D01*
X19893077Y-18640113D02*
X19878791Y-18632970D01*
X19878791Y-18632970D02*
X19871648Y-18625827D01*
X19871648Y-18625827D02*
X19864506Y-18611541D01*
X19864506Y-18611541D02*
X19864506Y-18568684D01*
X19864506Y-18568684D02*
X19871648Y-18554399D01*
X19871648Y-18554399D02*
X19878791Y-18547256D01*
X19878791Y-18547256D02*
X19893077Y-18540113D01*
X19893077Y-18540113D02*
X19921648Y-18540113D01*
X19921648Y-18540113D02*
X19935934Y-18547256D01*
X20007363Y-18625827D02*
X20014506Y-18632970D01*
X20014506Y-18632970D02*
X20007363Y-18640113D01*
X20007363Y-18640113D02*
X20000220Y-18632970D01*
X20000220Y-18632970D02*
X20007363Y-18625827D01*
X20007363Y-18625827D02*
X20007363Y-18640113D01*
X20078791Y-18640113D02*
X20078791Y-18490113D01*
X20093077Y-18582970D02*
X20135934Y-18640113D01*
X20135934Y-18540113D02*
X20078791Y-18597256D01*
X20200220Y-18640113D02*
X20200220Y-18540113D01*
X20200220Y-18490113D02*
X20193077Y-18497256D01*
X20193077Y-18497256D02*
X20200220Y-18504399D01*
X20200220Y-18504399D02*
X20207363Y-18497256D01*
X20207363Y-18497256D02*
X20200220Y-18490113D01*
X20200220Y-18490113D02*
X20200220Y-18504399D01*
X20335934Y-18632970D02*
X20321649Y-18640113D01*
X20321649Y-18640113D02*
X20293077Y-18640113D01*
X20293077Y-18640113D02*
X20278791Y-18632970D01*
X20278791Y-18632970D02*
X20271649Y-18625827D01*
X20271649Y-18625827D02*
X20264506Y-18611541D01*
X20264506Y-18611541D02*
X20264506Y-18568684D01*
X20264506Y-18568684D02*
X20271649Y-18554399D01*
X20271649Y-18554399D02*
X20278791Y-18547256D01*
X20278791Y-18547256D02*
X20293077Y-18540113D01*
X20293077Y-18540113D02*
X20321649Y-18540113D01*
X20321649Y-18540113D02*
X20335934Y-18547256D01*
X20464506Y-18640113D02*
X20464506Y-18561541D01*
X20464506Y-18561541D02*
X20457363Y-18547256D01*
X20457363Y-18547256D02*
X20443077Y-18540113D01*
X20443077Y-18540113D02*
X20414506Y-18540113D01*
X20414506Y-18540113D02*
X20400220Y-18547256D01*
X20464506Y-18632970D02*
X20450220Y-18640113D01*
X20450220Y-18640113D02*
X20414506Y-18640113D01*
X20414506Y-18640113D02*
X20400220Y-18632970D01*
X20400220Y-18632970D02*
X20393077Y-18618684D01*
X20393077Y-18618684D02*
X20393077Y-18604399D01*
X20393077Y-18604399D02*
X20400220Y-18590113D01*
X20400220Y-18590113D02*
X20414506Y-18582970D01*
X20414506Y-18582970D02*
X20450220Y-18582970D01*
X20450220Y-18582970D02*
X20464506Y-18575827D01*
X20600220Y-18640113D02*
X20600220Y-18490113D01*
X20600220Y-18632970D02*
X20585934Y-18640113D01*
X20585934Y-18640113D02*
X20557363Y-18640113D01*
X20557363Y-18640113D02*
X20543077Y-18632970D01*
X20543077Y-18632970D02*
X20535934Y-18625827D01*
X20535934Y-18625827D02*
X20528791Y-18611541D01*
X20528791Y-18611541D02*
X20528791Y-18568684D01*
X20528791Y-18568684D02*
X20535934Y-18554399D01*
X20535934Y-18554399D02*
X20543077Y-18547256D01*
X20543077Y-18547256D02*
X20557363Y-18540113D01*
X20557363Y-18540113D02*
X20585934Y-18540113D01*
X20585934Y-18540113D02*
X20600220Y-18547256D01*
X20635934Y-18654399D02*
X20750220Y-18654399D01*
X20785934Y-18540113D02*
X20785934Y-18690113D01*
X20785934Y-18547256D02*
X20800220Y-18540113D01*
X20800220Y-18540113D02*
X20828791Y-18540113D01*
X20828791Y-18540113D02*
X20843077Y-18547256D01*
X20843077Y-18547256D02*
X20850220Y-18554399D01*
X20850220Y-18554399D02*
X20857363Y-18568684D01*
X20857363Y-18568684D02*
X20857363Y-18611541D01*
X20857363Y-18611541D02*
X20850220Y-18625827D01*
X20850220Y-18625827D02*
X20843077Y-18632970D01*
X20843077Y-18632970D02*
X20828791Y-18640113D01*
X20828791Y-18640113D02*
X20800220Y-18640113D01*
X20800220Y-18640113D02*
X20785934Y-18632970D01*
X20985934Y-18632970D02*
X20971649Y-18640113D01*
X20971649Y-18640113D02*
X20943077Y-18640113D01*
X20943077Y-18640113D02*
X20928791Y-18632970D01*
X20928791Y-18632970D02*
X20921649Y-18625827D01*
X20921649Y-18625827D02*
X20914506Y-18611541D01*
X20914506Y-18611541D02*
X20914506Y-18568684D01*
X20914506Y-18568684D02*
X20921649Y-18554399D01*
X20921649Y-18554399D02*
X20928791Y-18547256D01*
X20928791Y-18547256D02*
X20943077Y-18540113D01*
X20943077Y-18540113D02*
X20971649Y-18540113D01*
X20971649Y-18540113D02*
X20985934Y-18547256D01*
X21050220Y-18640113D02*
X21050220Y-18490113D01*
X21050220Y-18547256D02*
X21064506Y-18540113D01*
X21064506Y-18540113D02*
X21093077Y-18540113D01*
X21093077Y-18540113D02*
X21107363Y-18547256D01*
X21107363Y-18547256D02*
X21114506Y-18554399D01*
X21114506Y-18554399D02*
X21121649Y-18568684D01*
X21121649Y-18568684D02*
X21121649Y-18611541D01*
X21121649Y-18611541D02*
X21114506Y-18625827D01*
X21114506Y-18625827D02*
X21107363Y-18632970D01*
X21107363Y-18632970D02*
X21093077Y-18640113D01*
X21093077Y-18640113D02*
X21064506Y-18640113D01*
X21064506Y-18640113D02*
X21050220Y-18632970D01*
D10*
D11*
X17700220Y-18150720D02*
X28500220Y-18150720D01*
D10*
D11*
X17828791Y-18362970D02*
X17850220Y-18370113D01*
X17850220Y-18370113D02*
X17885934Y-18370113D01*
X17885934Y-18370113D02*
X17900220Y-18362970D01*
X17900220Y-18362970D02*
X17907363Y-18355827D01*
X17907363Y-18355827D02*
X17914506Y-18341541D01*
X17914506Y-18341541D02*
X17914506Y-18327256D01*
X17914506Y-18327256D02*
X17907363Y-18312970D01*
X17907363Y-18312970D02*
X17900220Y-18305827D01*
X17900220Y-18305827D02*
X17885934Y-18298684D01*
X17885934Y-18298684D02*
X17857363Y-18291541D01*
X17857363Y-18291541D02*
X17843077Y-18284399D01*
X17843077Y-18284399D02*
X17835934Y-18277256D01*
X17835934Y-18277256D02*
X17828791Y-18262970D01*
X17828791Y-18262970D02*
X17828791Y-18248684D01*
X17828791Y-18248684D02*
X17835934Y-18234399D01*
X17835934Y-18234399D02*
X17843077Y-18227256D01*
X17843077Y-18227256D02*
X17857363Y-18220113D01*
X17857363Y-18220113D02*
X17893077Y-18220113D01*
X17893077Y-18220113D02*
X17914506Y-18227256D01*
X17978791Y-18370113D02*
X17978791Y-18220113D01*
X18043077Y-18370113D02*
X18043077Y-18291541D01*
X18043077Y-18291541D02*
X18035934Y-18277256D01*
X18035934Y-18277256D02*
X18021649Y-18270113D01*
X18021649Y-18270113D02*
X18000220Y-18270113D01*
X18000220Y-18270113D02*
X17985934Y-18277256D01*
X17985934Y-18277256D02*
X17978791Y-18284399D01*
X18171649Y-18362970D02*
X18157363Y-18370113D01*
X18157363Y-18370113D02*
X18128791Y-18370113D01*
X18128791Y-18370113D02*
X18114506Y-18362970D01*
X18114506Y-18362970D02*
X18107363Y-18348684D01*
X18107363Y-18348684D02*
X18107363Y-18291541D01*
X18107363Y-18291541D02*
X18114506Y-18277256D01*
X18114506Y-18277256D02*
X18128791Y-18270113D01*
X18128791Y-18270113D02*
X18157363Y-18270113D01*
X18157363Y-18270113D02*
X18171649Y-18277256D01*
X18171649Y-18277256D02*
X18178791Y-18291541D01*
X18178791Y-18291541D02*
X18178791Y-18305827D01*
X18178791Y-18305827D02*
X18107363Y-18320113D01*
X18300220Y-18362970D02*
X18285934Y-18370113D01*
X18285934Y-18370113D02*
X18257363Y-18370113D01*
X18257363Y-18370113D02*
X18243077Y-18362970D01*
X18243077Y-18362970D02*
X18235934Y-18348684D01*
X18235934Y-18348684D02*
X18235934Y-18291541D01*
X18235934Y-18291541D02*
X18243077Y-18277256D01*
X18243077Y-18277256D02*
X18257363Y-18270113D01*
X18257363Y-18270113D02*
X18285934Y-18270113D01*
X18285934Y-18270113D02*
X18300220Y-18277256D01*
X18300220Y-18277256D02*
X18307363Y-18291541D01*
X18307363Y-18291541D02*
X18307363Y-18305827D01*
X18307363Y-18305827D02*
X18235934Y-18320113D01*
X18350220Y-18270113D02*
X18407363Y-18270113D01*
X18371648Y-18220113D02*
X18371648Y-18348684D01*
X18371648Y-18348684D02*
X18378791Y-18362970D01*
X18378791Y-18362970D02*
X18393077Y-18370113D01*
X18393077Y-18370113D02*
X18407363Y-18370113D01*
X18457363Y-18355827D02*
X18464506Y-18362970D01*
X18464506Y-18362970D02*
X18457363Y-18370113D01*
X18457363Y-18370113D02*
X18450220Y-18362970D01*
X18450220Y-18362970D02*
X18457363Y-18355827D01*
X18457363Y-18355827D02*
X18457363Y-18370113D01*
X18457363Y-18277256D02*
X18464506Y-18284399D01*
X18464506Y-18284399D02*
X18457363Y-18291541D01*
X18457363Y-18291541D02*
X18450220Y-18284399D01*
X18450220Y-18284399D02*
X18457363Y-18277256D01*
X18457363Y-18277256D02*
X18457363Y-18291541D01*
D10*
D12*
D10*
D11*
D10*
D11*
D10*
D11*
D10*
D11*
D10*
D11*
X19700220Y-19150720D02*
X19700220Y-19450720D01*
D10*
D11*
X26100220Y-19150720D02*
X26100220Y-19800720D01*
D14*
X14965000Y-12837500D02*
X14965000Y-13057500D01*
X14473750Y-12840000D02*
X14473750Y-13060000D01*
X13970000Y-12840000D02*
X13970000Y-13060000D01*
X13207500Y-12840000D02*
X13207500Y-13060000D01*
X12897500Y-12837500D02*
X16050000Y-12837500D01*
X16050000Y-13060000D01*
X12897500Y-13060000D01*
X12897500Y-12837500D01*
X15220000Y-12840000D02*
X15220000Y-13060000D01*
X14220000Y-12840000D02*
X14220000Y-13060000D01*
X15750000Y-12840000D02*
X15750000Y-13057500D01*
X15510000Y-12840000D02*
X15510000Y-13060000D01*
X13710000Y-12837500D02*
X13710000Y-13057500D01*
X14725000Y-12837500D02*
X14725000Y-13057500D01*
X13490000Y-12840000D02*
X13490000Y-13060000D01*
D11*
X9924032Y-8455000D02*
X17131532Y-8455000D01*
X17131532Y-12772500D01*
X9924032Y-12772500D01*
X9924032Y-8455000D01*
X13118809Y-9547762D02*
X13118809Y-9447762D01*
X13118809Y-9447762D02*
X13156905Y-9447762D01*
X13156905Y-9447762D02*
X13166428Y-9452524D01*
X13166428Y-9452524D02*
X13171190Y-9457286D01*
X13171190Y-9457286D02*
X13175952Y-9466810D01*
X13175952Y-9466810D02*
X13175952Y-9481095D01*
X13175952Y-9481095D02*
X13171190Y-9490619D01*
X13171190Y-9490619D02*
X13166428Y-9495381D01*
X13166428Y-9495381D02*
X13156905Y-9500143D01*
X13156905Y-9500143D02*
X13118809Y-9500143D01*
X13275952Y-9538238D02*
X13271190Y-9543000D01*
X13271190Y-9543000D02*
X13256905Y-9547762D01*
X13256905Y-9547762D02*
X13247381Y-9547762D01*
X13247381Y-9547762D02*
X13233095Y-9543000D01*
X13233095Y-9543000D02*
X13223571Y-9533476D01*
X13223571Y-9533476D02*
X13218809Y-9523952D01*
X13218809Y-9523952D02*
X13214048Y-9504905D01*
X13214048Y-9504905D02*
X13214048Y-9490619D01*
X13214048Y-9490619D02*
X13218809Y-9471571D01*
X13218809Y-9471571D02*
X13223571Y-9462048D01*
X13223571Y-9462048D02*
X13233095Y-9452524D01*
X13233095Y-9452524D02*
X13247381Y-9447762D01*
X13247381Y-9447762D02*
X13256905Y-9447762D01*
X13256905Y-9447762D02*
X13271190Y-9452524D01*
X13271190Y-9452524D02*
X13275952Y-9457286D01*
X13352143Y-9495381D02*
X13318809Y-9495381D01*
X13318809Y-9547762D02*
X13318809Y-9447762D01*
X13318809Y-9447762D02*
X13366428Y-9447762D01*
X13418809Y-9490619D02*
X13409286Y-9485857D01*
X13409286Y-9485857D02*
X13404524Y-9481095D01*
X13404524Y-9481095D02*
X13399762Y-9471571D01*
X13399762Y-9471571D02*
X13399762Y-9466810D01*
X13399762Y-9466810D02*
X13404524Y-9457286D01*
X13404524Y-9457286D02*
X13409286Y-9452524D01*
X13409286Y-9452524D02*
X13418809Y-9447762D01*
X13418809Y-9447762D02*
X13437857Y-9447762D01*
X13437857Y-9447762D02*
X13447381Y-9452524D01*
X13447381Y-9452524D02*
X13452143Y-9457286D01*
X13452143Y-9457286D02*
X13456905Y-9466810D01*
X13456905Y-9466810D02*
X13456905Y-9471571D01*
X13456905Y-9471571D02*
X13452143Y-9481095D01*
X13452143Y-9481095D02*
X13447381Y-9485857D01*
X13447381Y-9485857D02*
X13437857Y-9490619D01*
X13437857Y-9490619D02*
X13418809Y-9490619D01*
X13418809Y-9490619D02*
X13409286Y-9495381D01*
X13409286Y-9495381D02*
X13404524Y-9500143D01*
X13404524Y-9500143D02*
X13399762Y-9509667D01*
X13399762Y-9509667D02*
X13399762Y-9528714D01*
X13399762Y-9528714D02*
X13404524Y-9538238D01*
X13404524Y-9538238D02*
X13409286Y-9543000D01*
X13409286Y-9543000D02*
X13418809Y-9547762D01*
X13418809Y-9547762D02*
X13437857Y-9547762D01*
X13437857Y-9547762D02*
X13447381Y-9543000D01*
X13447381Y-9543000D02*
X13452143Y-9538238D01*
X13452143Y-9538238D02*
X13456905Y-9528714D01*
X13456905Y-9528714D02*
X13456905Y-9509667D01*
X13456905Y-9509667D02*
X13452143Y-9500143D01*
X13452143Y-9500143D02*
X13447381Y-9495381D01*
X13447381Y-9495381D02*
X13437857Y-9490619D01*
X13547381Y-9447762D02*
X13499762Y-9447762D01*
X13499762Y-9447762D02*
X13495000Y-9495381D01*
X13495000Y-9495381D02*
X13499762Y-9490619D01*
X13499762Y-9490619D02*
X13509286Y-9485857D01*
X13509286Y-9485857D02*
X13533095Y-9485857D01*
X13533095Y-9485857D02*
X13542619Y-9490619D01*
X13542619Y-9490619D02*
X13547381Y-9495381D01*
X13547381Y-9495381D02*
X13552143Y-9504905D01*
X13552143Y-9504905D02*
X13552143Y-9528714D01*
X13552143Y-9528714D02*
X13547381Y-9538238D01*
X13547381Y-9538238D02*
X13542619Y-9543000D01*
X13542619Y-9543000D02*
X13533095Y-9547762D01*
X13533095Y-9547762D02*
X13509286Y-9547762D01*
X13509286Y-9547762D02*
X13499762Y-9543000D01*
X13499762Y-9543000D02*
X13495000Y-9538238D01*
X13585476Y-9447762D02*
X13652143Y-9447762D01*
X13652143Y-9447762D02*
X13609286Y-9547762D01*
X13733095Y-9481095D02*
X13733095Y-9547762D01*
X13709286Y-9443000D02*
X13685476Y-9514429D01*
X13685476Y-9514429D02*
X13747381Y-9514429D01*
X10498000Y-11500952D02*
X10502762Y-11486667D01*
X10502762Y-11486667D02*
X10502762Y-11462857D01*
X10502762Y-11462857D02*
X10498000Y-11453333D01*
X10498000Y-11453333D02*
X10493238Y-11448571D01*
X10493238Y-11448571D02*
X10483714Y-11443809D01*
X10483714Y-11443809D02*
X10474190Y-11443809D01*
X10474190Y-11443809D02*
X10464667Y-11448571D01*
X10464667Y-11448571D02*
X10459905Y-11453333D01*
X10459905Y-11453333D02*
X10455143Y-11462857D01*
X10455143Y-11462857D02*
X10450381Y-11481905D01*
X10450381Y-11481905D02*
X10445619Y-11491428D01*
X10445619Y-11491428D02*
X10440857Y-11496190D01*
X10440857Y-11496190D02*
X10431333Y-11500952D01*
X10431333Y-11500952D02*
X10421810Y-11500952D01*
X10421810Y-11500952D02*
X10412286Y-11496190D01*
X10412286Y-11496190D02*
X10407524Y-11491428D01*
X10407524Y-11491428D02*
X10402762Y-11481905D01*
X10402762Y-11481905D02*
X10402762Y-11458095D01*
X10402762Y-11458095D02*
X10407524Y-11443809D01*
X10498000Y-11405714D02*
X10502762Y-11391428D01*
X10502762Y-11391428D02*
X10502762Y-11367619D01*
X10502762Y-11367619D02*
X10498000Y-11358095D01*
X10498000Y-11358095D02*
X10493238Y-11353333D01*
X10493238Y-11353333D02*
X10483714Y-11348571D01*
X10483714Y-11348571D02*
X10474190Y-11348571D01*
X10474190Y-11348571D02*
X10464667Y-11353333D01*
X10464667Y-11353333D02*
X10459905Y-11358095D01*
X10459905Y-11358095D02*
X10455143Y-11367619D01*
X10455143Y-11367619D02*
X10450381Y-11386667D01*
X10450381Y-11386667D02*
X10445619Y-11396190D01*
X10445619Y-11396190D02*
X10440857Y-11400952D01*
X10440857Y-11400952D02*
X10431333Y-11405714D01*
X10431333Y-11405714D02*
X10421810Y-11405714D01*
X10421810Y-11405714D02*
X10412286Y-11400952D01*
X10412286Y-11400952D02*
X10407524Y-11396190D01*
X10407524Y-11396190D02*
X10402762Y-11386667D01*
X10402762Y-11386667D02*
X10402762Y-11362857D01*
X10402762Y-11362857D02*
X10407524Y-11348571D01*
X10502762Y-11305714D02*
X10402762Y-11305714D01*
X10402762Y-11305714D02*
X10402762Y-11281905D01*
X10402762Y-11281905D02*
X10407524Y-11267619D01*
X10407524Y-11267619D02*
X10417048Y-11258095D01*
X10417048Y-11258095D02*
X10426571Y-11253333D01*
X10426571Y-11253333D02*
X10445619Y-11248571D01*
X10445619Y-11248571D02*
X10459905Y-11248571D01*
X10459905Y-11248571D02*
X10478952Y-11253333D01*
X10478952Y-11253333D02*
X10488476Y-11258095D01*
X10488476Y-11258095D02*
X10498000Y-11267619D01*
X10498000Y-11267619D02*
X10502762Y-11281905D01*
X10502762Y-11281905D02*
X10502762Y-11305714D01*
X10502762Y-11153333D02*
X10502762Y-11210476D01*
X10502762Y-11181905D02*
X10402762Y-11181905D01*
X10402762Y-11181905D02*
X10417048Y-11191428D01*
X10417048Y-11191428D02*
X10426571Y-11200952D01*
X10426571Y-11200952D02*
X10431333Y-11210476D01*
X10402762Y-11120000D02*
X10402762Y-11058095D01*
X10402762Y-11058095D02*
X10440857Y-11091429D01*
X10440857Y-11091429D02*
X10440857Y-11077143D01*
X10440857Y-11077143D02*
X10445619Y-11067619D01*
X10445619Y-11067619D02*
X10450381Y-11062857D01*
X10450381Y-11062857D02*
X10459905Y-11058095D01*
X10459905Y-11058095D02*
X10483714Y-11058095D01*
X10483714Y-11058095D02*
X10493238Y-11062857D01*
X10493238Y-11062857D02*
X10498000Y-11067619D01*
X10498000Y-11067619D02*
X10502762Y-11077143D01*
X10502762Y-11077143D02*
X10502762Y-11105714D01*
X10502762Y-11105714D02*
X10498000Y-11115238D01*
X10498000Y-11115238D02*
X10493238Y-11120000D01*
X10402762Y-10996190D02*
X10402762Y-10986667D01*
X10402762Y-10986667D02*
X10407524Y-10977143D01*
X10407524Y-10977143D02*
X10412286Y-10972381D01*
X10412286Y-10972381D02*
X10421810Y-10967619D01*
X10421810Y-10967619D02*
X10440857Y-10962857D01*
X10440857Y-10962857D02*
X10464667Y-10962857D01*
X10464667Y-10962857D02*
X10483714Y-10967619D01*
X10483714Y-10967619D02*
X10493238Y-10972381D01*
X10493238Y-10972381D02*
X10498000Y-10977143D01*
X10498000Y-10977143D02*
X10502762Y-10986667D01*
X10502762Y-10986667D02*
X10502762Y-10996190D01*
X10502762Y-10996190D02*
X10498000Y-11005714D01*
X10498000Y-11005714D02*
X10493238Y-11010476D01*
X10493238Y-11010476D02*
X10483714Y-11015238D01*
X10483714Y-11015238D02*
X10464667Y-11020000D01*
X10464667Y-11020000D02*
X10440857Y-11020000D01*
X10440857Y-11020000D02*
X10421810Y-11015238D01*
X10421810Y-11015238D02*
X10412286Y-11010476D01*
X10412286Y-11010476D02*
X10407524Y-11005714D01*
X10407524Y-11005714D02*
X10402762Y-10996190D01*
X10502762Y-10915238D02*
X10502762Y-10896190D01*
X10502762Y-10896190D02*
X10498000Y-10886667D01*
X10498000Y-10886667D02*
X10493238Y-10881905D01*
X10493238Y-10881905D02*
X10478952Y-10872381D01*
X10478952Y-10872381D02*
X10459905Y-10867619D01*
X10459905Y-10867619D02*
X10421810Y-10867619D01*
X10421810Y-10867619D02*
X10412286Y-10872381D01*
X10412286Y-10872381D02*
X10407524Y-10877143D01*
X10407524Y-10877143D02*
X10402762Y-10886667D01*
X10402762Y-10886667D02*
X10402762Y-10905714D01*
X10402762Y-10905714D02*
X10407524Y-10915238D01*
X10407524Y-10915238D02*
X10412286Y-10920000D01*
X10412286Y-10920000D02*
X10421810Y-10924762D01*
X10421810Y-10924762D02*
X10445619Y-10924762D01*
X10445619Y-10924762D02*
X10455143Y-10920000D01*
X10455143Y-10920000D02*
X10459905Y-10915238D01*
X10459905Y-10915238D02*
X10464667Y-10905714D01*
X10464667Y-10905714D02*
X10464667Y-10886667D01*
X10464667Y-10886667D02*
X10459905Y-10877143D01*
X10459905Y-10877143D02*
X10455143Y-10872381D01*
X10455143Y-10872381D02*
X10445619Y-10867619D01*
X10412286Y-10753333D02*
X10407524Y-10748571D01*
X10407524Y-10748571D02*
X10402762Y-10739048D01*
X10402762Y-10739048D02*
X10402762Y-10715238D01*
X10402762Y-10715238D02*
X10407524Y-10705714D01*
X10407524Y-10705714D02*
X10412286Y-10700952D01*
X10412286Y-10700952D02*
X10421810Y-10696190D01*
X10421810Y-10696190D02*
X10431333Y-10696190D01*
X10431333Y-10696190D02*
X10445619Y-10700952D01*
X10445619Y-10700952D02*
X10502762Y-10758095D01*
X10502762Y-10758095D02*
X10502762Y-10696190D01*
X10493238Y-10653333D02*
X10498000Y-10648571D01*
X10498000Y-10648571D02*
X10502762Y-10653333D01*
X10502762Y-10653333D02*
X10498000Y-10658095D01*
X10498000Y-10658095D02*
X10493238Y-10653333D01*
X10493238Y-10653333D02*
X10502762Y-10653333D01*
X10436095Y-10562857D02*
X10502762Y-10562857D01*
X10398000Y-10586667D02*
X10469429Y-10610476D01*
X10469429Y-10610476D02*
X10469429Y-10548571D01*
X10412286Y-10515238D02*
X10407524Y-10510476D01*
X10407524Y-10510476D02*
X10402762Y-10500952D01*
X10402762Y-10500952D02*
X10402762Y-10477143D01*
X10402762Y-10477143D02*
X10407524Y-10467619D01*
X10407524Y-10467619D02*
X10412286Y-10462857D01*
X10412286Y-10462857D02*
X10421810Y-10458095D01*
X10421810Y-10458095D02*
X10431333Y-10458095D01*
X10431333Y-10458095D02*
X10445619Y-10462857D01*
X10445619Y-10462857D02*
X10502762Y-10520000D01*
X10502762Y-10520000D02*
X10502762Y-10458095D01*
X10402762Y-10420000D02*
X10421810Y-10420000D01*
X10402762Y-10381905D02*
X10421810Y-10381905D01*
X10402762Y-10243809D02*
X10402762Y-10224762D01*
X10402762Y-10224762D02*
X10407524Y-10215238D01*
X10407524Y-10215238D02*
X10417048Y-10205714D01*
X10417048Y-10205714D02*
X10436095Y-10200952D01*
X10436095Y-10200952D02*
X10469429Y-10200952D01*
X10469429Y-10200952D02*
X10488476Y-10205714D01*
X10488476Y-10205714D02*
X10498000Y-10215238D01*
X10498000Y-10215238D02*
X10502762Y-10224762D01*
X10502762Y-10224762D02*
X10502762Y-10243809D01*
X10502762Y-10243809D02*
X10498000Y-10253333D01*
X10498000Y-10253333D02*
X10488476Y-10262857D01*
X10488476Y-10262857D02*
X10469429Y-10267619D01*
X10469429Y-10267619D02*
X10436095Y-10267619D01*
X10436095Y-10267619D02*
X10417048Y-10262857D01*
X10417048Y-10262857D02*
X10407524Y-10253333D01*
X10407524Y-10253333D02*
X10402762Y-10243809D01*
X10502762Y-10110476D02*
X10502762Y-10158095D01*
X10502762Y-10158095D02*
X10402762Y-10158095D01*
X10450381Y-10077143D02*
X10450381Y-10043809D01*
X10502762Y-10029524D02*
X10502762Y-10077143D01*
X10502762Y-10077143D02*
X10402762Y-10077143D01*
X10402762Y-10077143D02*
X10402762Y-10029524D01*
X10502762Y-9986667D02*
X10402762Y-9986667D01*
X10402762Y-9986667D02*
X10402762Y-9962857D01*
X10402762Y-9962857D02*
X10407524Y-9948571D01*
X10407524Y-9948571D02*
X10417048Y-9939048D01*
X10417048Y-9939048D02*
X10426571Y-9934286D01*
X10426571Y-9934286D02*
X10445619Y-9929524D01*
X10445619Y-9929524D02*
X10459905Y-9929524D01*
X10459905Y-9929524D02*
X10478952Y-9934286D01*
X10478952Y-9934286D02*
X10488476Y-9939048D01*
X10488476Y-9939048D02*
X10498000Y-9948571D01*
X10498000Y-9948571D02*
X10502762Y-9962857D01*
X10502762Y-9962857D02*
X10502762Y-9986667D01*
X10502762Y-9767619D02*
X10402762Y-9767619D01*
X10498000Y-9767619D02*
X10502762Y-9777143D01*
X10502762Y-9777143D02*
X10502762Y-9796190D01*
X10502762Y-9796190D02*
X10498000Y-9805714D01*
X10498000Y-9805714D02*
X10493238Y-9810476D01*
X10493238Y-9810476D02*
X10483714Y-9815238D01*
X10483714Y-9815238D02*
X10455143Y-9815238D01*
X10455143Y-9815238D02*
X10445619Y-9810476D01*
X10445619Y-9810476D02*
X10440857Y-9805714D01*
X10440857Y-9805714D02*
X10436095Y-9796190D01*
X10436095Y-9796190D02*
X10436095Y-9777143D01*
X10436095Y-9777143D02*
X10440857Y-9767619D01*
X10502762Y-9720000D02*
X10436095Y-9720000D01*
X10402762Y-9720000D02*
X10407524Y-9724762D01*
X10407524Y-9724762D02*
X10412286Y-9720000D01*
X10412286Y-9720000D02*
X10407524Y-9715238D01*
X10407524Y-9715238D02*
X10402762Y-9720000D01*
X10402762Y-9720000D02*
X10412286Y-9720000D01*
X10498000Y-9677143D02*
X10502762Y-9667619D01*
X10502762Y-9667619D02*
X10502762Y-9648571D01*
X10502762Y-9648571D02*
X10498000Y-9639048D01*
X10498000Y-9639048D02*
X10488476Y-9634286D01*
X10488476Y-9634286D02*
X10483714Y-9634286D01*
X10483714Y-9634286D02*
X10474190Y-9639048D01*
X10474190Y-9639048D02*
X10469429Y-9648571D01*
X10469429Y-9648571D02*
X10469429Y-9662857D01*
X10469429Y-9662857D02*
X10464667Y-9672381D01*
X10464667Y-9672381D02*
X10455143Y-9677143D01*
X10455143Y-9677143D02*
X10450381Y-9677143D01*
X10450381Y-9677143D02*
X10440857Y-9672381D01*
X10440857Y-9672381D02*
X10436095Y-9662857D01*
X10436095Y-9662857D02*
X10436095Y-9648571D01*
X10436095Y-9648571D02*
X10440857Y-9639048D01*
X10436095Y-9591428D02*
X10536095Y-9591428D01*
X10440857Y-9591428D02*
X10436095Y-9581905D01*
X10436095Y-9581905D02*
X10436095Y-9562857D01*
X10436095Y-9562857D02*
X10440857Y-9553333D01*
X10440857Y-9553333D02*
X10445619Y-9548571D01*
X10445619Y-9548571D02*
X10455143Y-9543809D01*
X10455143Y-9543809D02*
X10483714Y-9543809D01*
X10483714Y-9543809D02*
X10493238Y-9548571D01*
X10493238Y-9548571D02*
X10498000Y-9553333D01*
X10498000Y-9553333D02*
X10502762Y-9562857D01*
X10502762Y-9562857D02*
X10502762Y-9581905D01*
X10502762Y-9581905D02*
X10498000Y-9591428D01*
X10502762Y-9486667D02*
X10498000Y-9496190D01*
X10498000Y-9496190D02*
X10488476Y-9500952D01*
X10488476Y-9500952D02*
X10402762Y-9500952D01*
X10502762Y-9405714D02*
X10450381Y-9405714D01*
X10450381Y-9405714D02*
X10440857Y-9410476D01*
X10440857Y-9410476D02*
X10436095Y-9420000D01*
X10436095Y-9420000D02*
X10436095Y-9439047D01*
X10436095Y-9439047D02*
X10440857Y-9448571D01*
X10498000Y-9405714D02*
X10502762Y-9415238D01*
X10502762Y-9415238D02*
X10502762Y-9439047D01*
X10502762Y-9439047D02*
X10498000Y-9448571D01*
X10498000Y-9448571D02*
X10488476Y-9453333D01*
X10488476Y-9453333D02*
X10478952Y-9453333D01*
X10478952Y-9453333D02*
X10469429Y-9448571D01*
X10469429Y-9448571D02*
X10464667Y-9439047D01*
X10464667Y-9439047D02*
X10464667Y-9415238D01*
X10464667Y-9415238D02*
X10459905Y-9405714D01*
X10436095Y-9367619D02*
X10502762Y-9343809D01*
X10436095Y-9320000D02*
X10502762Y-9343809D01*
X10502762Y-9343809D02*
X10526571Y-9353333D01*
X10526571Y-9353333D02*
X10531333Y-9358095D01*
X10531333Y-9358095D02*
X10536095Y-9367619D01*
X10757762Y-11714048D02*
X10710143Y-11747381D01*
X10757762Y-11771190D02*
X10657762Y-11771190D01*
X10657762Y-11771190D02*
X10657762Y-11733095D01*
X10657762Y-11733095D02*
X10662524Y-11723571D01*
X10662524Y-11723571D02*
X10667286Y-11718809D01*
X10667286Y-11718809D02*
X10676810Y-11714048D01*
X10676810Y-11714048D02*
X10691095Y-11714048D01*
X10691095Y-11714048D02*
X10700619Y-11718809D01*
X10700619Y-11718809D02*
X10705381Y-11723571D01*
X10705381Y-11723571D02*
X10710143Y-11733095D01*
X10710143Y-11733095D02*
X10710143Y-11771190D01*
X10753000Y-11633095D02*
X10757762Y-11642619D01*
X10757762Y-11642619D02*
X10757762Y-11661667D01*
X10757762Y-11661667D02*
X10753000Y-11671190D01*
X10753000Y-11671190D02*
X10743476Y-11675952D01*
X10743476Y-11675952D02*
X10705381Y-11675952D01*
X10705381Y-11675952D02*
X10695857Y-11671190D01*
X10695857Y-11671190D02*
X10691095Y-11661667D01*
X10691095Y-11661667D02*
X10691095Y-11642619D01*
X10691095Y-11642619D02*
X10695857Y-11633095D01*
X10695857Y-11633095D02*
X10705381Y-11628333D01*
X10705381Y-11628333D02*
X10714905Y-11628333D01*
X10714905Y-11628333D02*
X10724429Y-11675952D01*
X10753000Y-11590238D02*
X10757762Y-11580714D01*
X10757762Y-11580714D02*
X10757762Y-11561667D01*
X10757762Y-11561667D02*
X10753000Y-11552143D01*
X10753000Y-11552143D02*
X10743476Y-11547381D01*
X10743476Y-11547381D02*
X10738714Y-11547381D01*
X10738714Y-11547381D02*
X10729190Y-11552143D01*
X10729190Y-11552143D02*
X10724429Y-11561667D01*
X10724429Y-11561667D02*
X10724429Y-11575952D01*
X10724429Y-11575952D02*
X10719667Y-11585476D01*
X10719667Y-11585476D02*
X10710143Y-11590238D01*
X10710143Y-11590238D02*
X10705381Y-11590238D01*
X10705381Y-11590238D02*
X10695857Y-11585476D01*
X10695857Y-11585476D02*
X10691095Y-11575952D01*
X10691095Y-11575952D02*
X10691095Y-11561667D01*
X10691095Y-11561667D02*
X10695857Y-11552143D01*
X10753000Y-11466428D02*
X10757762Y-11475952D01*
X10757762Y-11475952D02*
X10757762Y-11495000D01*
X10757762Y-11495000D02*
X10753000Y-11504524D01*
X10753000Y-11504524D02*
X10743476Y-11509286D01*
X10743476Y-11509286D02*
X10705381Y-11509286D01*
X10705381Y-11509286D02*
X10695857Y-11504524D01*
X10695857Y-11504524D02*
X10691095Y-11495000D01*
X10691095Y-11495000D02*
X10691095Y-11475952D01*
X10691095Y-11475952D02*
X10695857Y-11466428D01*
X10695857Y-11466428D02*
X10705381Y-11461667D01*
X10705381Y-11461667D02*
X10714905Y-11461667D01*
X10714905Y-11461667D02*
X10724429Y-11509286D01*
X10691095Y-11433095D02*
X10691095Y-11395000D01*
X10657762Y-11418809D02*
X10743476Y-11418809D01*
X10743476Y-11418809D02*
X10753000Y-11414047D01*
X10753000Y-11414047D02*
X10757762Y-11404524D01*
X10757762Y-11404524D02*
X10757762Y-11395000D01*
X10757762Y-11285476D02*
X10657762Y-11285476D01*
X10657762Y-11285476D02*
X10657762Y-11247381D01*
X10657762Y-11247381D02*
X10662524Y-11237857D01*
X10662524Y-11237857D02*
X10667286Y-11233095D01*
X10667286Y-11233095D02*
X10676810Y-11228333D01*
X10676810Y-11228333D02*
X10691095Y-11228333D01*
X10691095Y-11228333D02*
X10700619Y-11233095D01*
X10700619Y-11233095D02*
X10705381Y-11237857D01*
X10705381Y-11237857D02*
X10710143Y-11247381D01*
X10710143Y-11247381D02*
X10710143Y-11285476D01*
X10757762Y-11185476D02*
X10691095Y-11185476D01*
X10657762Y-11185476D02*
X10662524Y-11190238D01*
X10662524Y-11190238D02*
X10667286Y-11185476D01*
X10667286Y-11185476D02*
X10662524Y-11180714D01*
X10662524Y-11180714D02*
X10657762Y-11185476D01*
X10657762Y-11185476D02*
X10667286Y-11185476D01*
X10691095Y-11137857D02*
X10757762Y-11137857D01*
X10700619Y-11137857D02*
X10695857Y-11133095D01*
X10695857Y-11133095D02*
X10691095Y-11123571D01*
X10691095Y-11123571D02*
X10691095Y-11109286D01*
X10691095Y-11109286D02*
X10695857Y-11099762D01*
X10695857Y-11099762D02*
X10705381Y-11095000D01*
X10705381Y-11095000D02*
X10757762Y-11095000D01*
X13442500Y-12858738D02*
X13442500Y-12958738D01*
X13442500Y-12958738D02*
X13419167Y-12887309D01*
X13419167Y-12887309D02*
X13395833Y-12958738D01*
X13395833Y-12958738D02*
X13395833Y-12858738D01*
X13332500Y-12925405D02*
X13332500Y-12858738D01*
X13362500Y-12925405D02*
X13362500Y-12873024D01*
X13362500Y-12873024D02*
X13359167Y-12863500D01*
X13359167Y-12863500D02*
X13352500Y-12858738D01*
X13352500Y-12858738D02*
X13342500Y-12858738D01*
X13342500Y-12858738D02*
X13335833Y-12863500D01*
X13335833Y-12863500D02*
X13332500Y-12868262D01*
X13309167Y-12925405D02*
X13282500Y-12925405D01*
X13299167Y-12958738D02*
X13299167Y-12873024D01*
X13299167Y-12873024D02*
X13295833Y-12863500D01*
X13295833Y-12863500D02*
X13289167Y-12858738D01*
X13289167Y-12858738D02*
X13282500Y-12858738D01*
X13232500Y-12863500D02*
X13239167Y-12858738D01*
X13239167Y-12858738D02*
X13252500Y-12858738D01*
X13252500Y-12858738D02*
X13259167Y-12863500D01*
X13259167Y-12863500D02*
X13262500Y-12873024D01*
X13262500Y-12873024D02*
X13262500Y-12911119D01*
X13262500Y-12911119D02*
X13259167Y-12920643D01*
X13259167Y-12920643D02*
X13252500Y-12925405D01*
X13252500Y-12925405D02*
X13239167Y-12925405D01*
X13239167Y-12925405D02*
X13232500Y-12920643D01*
X13232500Y-12920643D02*
X13229167Y-12911119D01*
X13229167Y-12911119D02*
X13229167Y-12901595D01*
X13229167Y-12901595D02*
X13262500Y-12892071D01*
X14891309Y-12863738D02*
X14917976Y-12911357D01*
X14937024Y-12863738D02*
X14937024Y-12963738D01*
X14937024Y-12963738D02*
X14906547Y-12963738D01*
X14906547Y-12963738D02*
X14898928Y-12958976D01*
X14898928Y-12958976D02*
X14895119Y-12954214D01*
X14895119Y-12954214D02*
X14891309Y-12944690D01*
X14891309Y-12944690D02*
X14891309Y-12930405D01*
X14891309Y-12930405D02*
X14895119Y-12920881D01*
X14895119Y-12920881D02*
X14898928Y-12916119D01*
X14898928Y-12916119D02*
X14906547Y-12911357D01*
X14906547Y-12911357D02*
X14937024Y-12911357D01*
X14860833Y-12868500D02*
X14849405Y-12863738D01*
X14849405Y-12863738D02*
X14830357Y-12863738D01*
X14830357Y-12863738D02*
X14822738Y-12868500D01*
X14822738Y-12868500D02*
X14818928Y-12873262D01*
X14818928Y-12873262D02*
X14815119Y-12882786D01*
X14815119Y-12882786D02*
X14815119Y-12892309D01*
X14815119Y-12892309D02*
X14818928Y-12901833D01*
X14818928Y-12901833D02*
X14822738Y-12906595D01*
X14822738Y-12906595D02*
X14830357Y-12911357D01*
X14830357Y-12911357D02*
X14845595Y-12916119D01*
X14845595Y-12916119D02*
X14853214Y-12920881D01*
X14853214Y-12920881D02*
X14857024Y-12925643D01*
X14857024Y-12925643D02*
X14860833Y-12935167D01*
X14860833Y-12935167D02*
X14860833Y-12944690D01*
X14860833Y-12944690D02*
X14857024Y-12954214D01*
X14857024Y-12954214D02*
X14853214Y-12958976D01*
X14853214Y-12958976D02*
X14845595Y-12963738D01*
X14845595Y-12963738D02*
X14826547Y-12963738D01*
X14826547Y-12963738D02*
X14815119Y-12958976D01*
X14792262Y-12963738D02*
X14746547Y-12963738D01*
X14769405Y-12863738D02*
X14769405Y-12963738D01*
X15478095Y-12961238D02*
X15428571Y-12961238D01*
X15428571Y-12961238D02*
X15455238Y-12923143D01*
X15455238Y-12923143D02*
X15443809Y-12923143D01*
X15443809Y-12923143D02*
X15436190Y-12918381D01*
X15436190Y-12918381D02*
X15432381Y-12913619D01*
X15432381Y-12913619D02*
X15428571Y-12904095D01*
X15428571Y-12904095D02*
X15428571Y-12880286D01*
X15428571Y-12880286D02*
X15432381Y-12870762D01*
X15432381Y-12870762D02*
X15436190Y-12866000D01*
X15436190Y-12866000D02*
X15443809Y-12861238D01*
X15443809Y-12861238D02*
X15466667Y-12861238D01*
X15466667Y-12861238D02*
X15474286Y-12866000D01*
X15474286Y-12866000D02*
X15478095Y-12870762D01*
X15394286Y-12870762D02*
X15390476Y-12866000D01*
X15390476Y-12866000D02*
X15394286Y-12861238D01*
X15394286Y-12861238D02*
X15398095Y-12866000D01*
X15398095Y-12866000D02*
X15394286Y-12870762D01*
X15394286Y-12870762D02*
X15394286Y-12861238D01*
X15363809Y-12961238D02*
X15314286Y-12961238D01*
X15314286Y-12961238D02*
X15340952Y-12923143D01*
X15340952Y-12923143D02*
X15329524Y-12923143D01*
X15329524Y-12923143D02*
X15321905Y-12918381D01*
X15321905Y-12918381D02*
X15318095Y-12913619D01*
X15318095Y-12913619D02*
X15314286Y-12904095D01*
X15314286Y-12904095D02*
X15314286Y-12880286D01*
X15314286Y-12880286D02*
X15318095Y-12870762D01*
X15318095Y-12870762D02*
X15321905Y-12866000D01*
X15321905Y-12866000D02*
X15329524Y-12861238D01*
X15329524Y-12861238D02*
X15352381Y-12861238D01*
X15352381Y-12861238D02*
X15360000Y-12866000D01*
X15360000Y-12866000D02*
X15363809Y-12870762D01*
X15291428Y-12961238D02*
X15264762Y-12861238D01*
X15264762Y-12861238D02*
X15238095Y-12961238D01*
X14194643Y-12868500D02*
X14183214Y-12863738D01*
X14183214Y-12863738D02*
X14164167Y-12863738D01*
X14164167Y-12863738D02*
X14156547Y-12868500D01*
X14156547Y-12868500D02*
X14152738Y-12873262D01*
X14152738Y-12873262D02*
X14148928Y-12882786D01*
X14148928Y-12882786D02*
X14148928Y-12892309D01*
X14148928Y-12892309D02*
X14152738Y-12901833D01*
X14152738Y-12901833D02*
X14156547Y-12906595D01*
X14156547Y-12906595D02*
X14164167Y-12911357D01*
X14164167Y-12911357D02*
X14179405Y-12916119D01*
X14179405Y-12916119D02*
X14187024Y-12920881D01*
X14187024Y-12920881D02*
X14190833Y-12925643D01*
X14190833Y-12925643D02*
X14194643Y-12935167D01*
X14194643Y-12935167D02*
X14194643Y-12944690D01*
X14194643Y-12944690D02*
X14190833Y-12954214D01*
X14190833Y-12954214D02*
X14187024Y-12958976D01*
X14187024Y-12958976D02*
X14179405Y-12963738D01*
X14179405Y-12963738D02*
X14160357Y-12963738D01*
X14160357Y-12963738D02*
X14148928Y-12958976D01*
X14114643Y-12863738D02*
X14114643Y-12963738D01*
X14114643Y-12963738D02*
X14095595Y-12963738D01*
X14095595Y-12963738D02*
X14084166Y-12958976D01*
X14084166Y-12958976D02*
X14076547Y-12949452D01*
X14076547Y-12949452D02*
X14072738Y-12939928D01*
X14072738Y-12939928D02*
X14068928Y-12920881D01*
X14068928Y-12920881D02*
X14068928Y-12906595D01*
X14068928Y-12906595D02*
X14072738Y-12887548D01*
X14072738Y-12887548D02*
X14076547Y-12878024D01*
X14076547Y-12878024D02*
X14084166Y-12868500D01*
X14084166Y-12868500D02*
X14095595Y-12863738D01*
X14095595Y-12863738D02*
X14114643Y-12863738D01*
X14038452Y-12892309D02*
X14000357Y-12892309D01*
X14046071Y-12863738D02*
X14019405Y-12963738D01*
X14019405Y-12963738D02*
X13992738Y-12863738D01*
X16957762Y-10991190D02*
X16857762Y-10991190D01*
X16957762Y-10934048D02*
X16900619Y-10976905D01*
X16857762Y-10934048D02*
X16914905Y-10991190D01*
X16953000Y-10853095D02*
X16957762Y-10862619D01*
X16957762Y-10862619D02*
X16957762Y-10881667D01*
X16957762Y-10881667D02*
X16953000Y-10891190D01*
X16953000Y-10891190D02*
X16943476Y-10895952D01*
X16943476Y-10895952D02*
X16905381Y-10895952D01*
X16905381Y-10895952D02*
X16895857Y-10891190D01*
X16895857Y-10891190D02*
X16891095Y-10881667D01*
X16891095Y-10881667D02*
X16891095Y-10862619D01*
X16891095Y-10862619D02*
X16895857Y-10853095D01*
X16895857Y-10853095D02*
X16905381Y-10848333D01*
X16905381Y-10848333D02*
X16914905Y-10848333D01*
X16914905Y-10848333D02*
X16924429Y-10895952D01*
X16891095Y-10815000D02*
X16957762Y-10791190D01*
X16891095Y-10767381D02*
X16957762Y-10791190D01*
X16957762Y-10791190D02*
X16981571Y-10800714D01*
X16981571Y-10800714D02*
X16986333Y-10805476D01*
X16986333Y-10805476D02*
X16991095Y-10815000D01*
X16957762Y-10729286D02*
X16857762Y-10729286D01*
X16895857Y-10729286D02*
X16891095Y-10719762D01*
X16891095Y-10719762D02*
X16891095Y-10700714D01*
X16891095Y-10700714D02*
X16895857Y-10691190D01*
X16895857Y-10691190D02*
X16900619Y-10686429D01*
X16900619Y-10686429D02*
X16910143Y-10681667D01*
X16910143Y-10681667D02*
X16938714Y-10681667D01*
X16938714Y-10681667D02*
X16948238Y-10686429D01*
X16948238Y-10686429D02*
X16953000Y-10691190D01*
X16953000Y-10691190D02*
X16957762Y-10700714D01*
X16957762Y-10700714D02*
X16957762Y-10719762D01*
X16957762Y-10719762D02*
X16953000Y-10729286D01*
X16957762Y-10624524D02*
X16953000Y-10634048D01*
X16953000Y-10634048D02*
X16948238Y-10638809D01*
X16948238Y-10638809D02*
X16938714Y-10643571D01*
X16938714Y-10643571D02*
X16910143Y-10643571D01*
X16910143Y-10643571D02*
X16900619Y-10638809D01*
X16900619Y-10638809D02*
X16895857Y-10634048D01*
X16895857Y-10634048D02*
X16891095Y-10624524D01*
X16891095Y-10624524D02*
X16891095Y-10610238D01*
X16891095Y-10610238D02*
X16895857Y-10600714D01*
X16895857Y-10600714D02*
X16900619Y-10595952D01*
X16900619Y-10595952D02*
X16910143Y-10591190D01*
X16910143Y-10591190D02*
X16938714Y-10591190D01*
X16938714Y-10591190D02*
X16948238Y-10595952D01*
X16948238Y-10595952D02*
X16953000Y-10600714D01*
X16953000Y-10600714D02*
X16957762Y-10610238D01*
X16957762Y-10610238D02*
X16957762Y-10624524D01*
X16957762Y-10505476D02*
X16905381Y-10505476D01*
X16905381Y-10505476D02*
X16895857Y-10510238D01*
X16895857Y-10510238D02*
X16891095Y-10519762D01*
X16891095Y-10519762D02*
X16891095Y-10538809D01*
X16891095Y-10538809D02*
X16895857Y-10548333D01*
X16953000Y-10505476D02*
X16957762Y-10515000D01*
X16957762Y-10515000D02*
X16957762Y-10538809D01*
X16957762Y-10538809D02*
X16953000Y-10548333D01*
X16953000Y-10548333D02*
X16943476Y-10553095D01*
X16943476Y-10553095D02*
X16933952Y-10553095D01*
X16933952Y-10553095D02*
X16924429Y-10548333D01*
X16924429Y-10548333D02*
X16919667Y-10538809D01*
X16919667Y-10538809D02*
X16919667Y-10515000D01*
X16919667Y-10515000D02*
X16914905Y-10505476D01*
X16957762Y-10457857D02*
X16891095Y-10457857D01*
X16910143Y-10457857D02*
X16900619Y-10453095D01*
X16900619Y-10453095D02*
X16895857Y-10448333D01*
X16895857Y-10448333D02*
X16891095Y-10438809D01*
X16891095Y-10438809D02*
X16891095Y-10429286D01*
X16957762Y-10353095D02*
X16857762Y-10353095D01*
X16953000Y-10353095D02*
X16957762Y-10362619D01*
X16957762Y-10362619D02*
X16957762Y-10381667D01*
X16957762Y-10381667D02*
X16953000Y-10391190D01*
X16953000Y-10391190D02*
X16948238Y-10395952D01*
X16948238Y-10395952D02*
X16938714Y-10400714D01*
X16938714Y-10400714D02*
X16910143Y-10400714D01*
X16910143Y-10400714D02*
X16900619Y-10395952D01*
X16900619Y-10395952D02*
X16895857Y-10391190D01*
X16895857Y-10391190D02*
X16891095Y-10381667D01*
X16891095Y-10381667D02*
X16891095Y-10362619D01*
X16891095Y-10362619D02*
X16895857Y-10353095D01*
X16853000Y-10157857D02*
X16981571Y-10243571D01*
X16905381Y-10048333D02*
X16905381Y-10015000D01*
X16957762Y-10000714D02*
X16957762Y-10048333D01*
X16957762Y-10048333D02*
X16857762Y-10048333D01*
X16857762Y-10048333D02*
X16857762Y-10000714D01*
X16891095Y-9957857D02*
X16957762Y-9957857D01*
X16900619Y-9957857D02*
X16895857Y-9953095D01*
X16895857Y-9953095D02*
X16891095Y-9943571D01*
X16891095Y-9943571D02*
X16891095Y-9929286D01*
X16891095Y-9929286D02*
X16895857Y-9919762D01*
X16895857Y-9919762D02*
X16905381Y-9915000D01*
X16905381Y-9915000D02*
X16957762Y-9915000D01*
X16953000Y-9824524D02*
X16957762Y-9834047D01*
X16957762Y-9834047D02*
X16957762Y-9853095D01*
X16957762Y-9853095D02*
X16953000Y-9862619D01*
X16953000Y-9862619D02*
X16948238Y-9867381D01*
X16948238Y-9867381D02*
X16938714Y-9872143D01*
X16938714Y-9872143D02*
X16910143Y-9872143D01*
X16910143Y-9872143D02*
X16900619Y-9867381D01*
X16900619Y-9867381D02*
X16895857Y-9862619D01*
X16895857Y-9862619D02*
X16891095Y-9853095D01*
X16891095Y-9853095D02*
X16891095Y-9834047D01*
X16891095Y-9834047D02*
X16895857Y-9824524D01*
X16957762Y-9767381D02*
X16953000Y-9776905D01*
X16953000Y-9776905D02*
X16948238Y-9781666D01*
X16948238Y-9781666D02*
X16938714Y-9786428D01*
X16938714Y-9786428D02*
X16910143Y-9786428D01*
X16910143Y-9786428D02*
X16900619Y-9781666D01*
X16900619Y-9781666D02*
X16895857Y-9776905D01*
X16895857Y-9776905D02*
X16891095Y-9767381D01*
X16891095Y-9767381D02*
X16891095Y-9753095D01*
X16891095Y-9753095D02*
X16895857Y-9743571D01*
X16895857Y-9743571D02*
X16900619Y-9738809D01*
X16900619Y-9738809D02*
X16910143Y-9734047D01*
X16910143Y-9734047D02*
X16938714Y-9734047D01*
X16938714Y-9734047D02*
X16948238Y-9738809D01*
X16948238Y-9738809D02*
X16953000Y-9743571D01*
X16953000Y-9743571D02*
X16957762Y-9753095D01*
X16957762Y-9753095D02*
X16957762Y-9767381D01*
X16957762Y-9648333D02*
X16857762Y-9648333D01*
X16953000Y-9648333D02*
X16957762Y-9657857D01*
X16957762Y-9657857D02*
X16957762Y-9676905D01*
X16957762Y-9676905D02*
X16953000Y-9686428D01*
X16953000Y-9686428D02*
X16948238Y-9691190D01*
X16948238Y-9691190D02*
X16938714Y-9695952D01*
X16938714Y-9695952D02*
X16910143Y-9695952D01*
X16910143Y-9695952D02*
X16900619Y-9691190D01*
X16900619Y-9691190D02*
X16895857Y-9686428D01*
X16895857Y-9686428D02*
X16891095Y-9676905D01*
X16891095Y-9676905D02*
X16891095Y-9657857D01*
X16891095Y-9657857D02*
X16895857Y-9648333D01*
X16953000Y-9562619D02*
X16957762Y-9572143D01*
X16957762Y-9572143D02*
X16957762Y-9591190D01*
X16957762Y-9591190D02*
X16953000Y-9600714D01*
X16953000Y-9600714D02*
X16943476Y-9605476D01*
X16943476Y-9605476D02*
X16905381Y-9605476D01*
X16905381Y-9605476D02*
X16895857Y-9600714D01*
X16895857Y-9600714D02*
X16891095Y-9591190D01*
X16891095Y-9591190D02*
X16891095Y-9572143D01*
X16891095Y-9572143D02*
X16895857Y-9562619D01*
X16895857Y-9562619D02*
X16905381Y-9557857D01*
X16905381Y-9557857D02*
X16914905Y-9557857D01*
X16914905Y-9557857D02*
X16924429Y-9605476D01*
X16957762Y-9515000D02*
X16891095Y-9515000D01*
X16910143Y-9515000D02*
X16900619Y-9510238D01*
X16900619Y-9510238D02*
X16895857Y-9505476D01*
X16895857Y-9505476D02*
X16891095Y-9495952D01*
X16891095Y-9495952D02*
X16891095Y-9486428D01*
X15155952Y-12958976D02*
X15163571Y-12963738D01*
X15163571Y-12963738D02*
X15175000Y-12963738D01*
X15175000Y-12963738D02*
X15186428Y-12958976D01*
X15186428Y-12958976D02*
X15194047Y-12949452D01*
X15194047Y-12949452D02*
X15197857Y-12939928D01*
X15197857Y-12939928D02*
X15201667Y-12920881D01*
X15201667Y-12920881D02*
X15201667Y-12906595D01*
X15201667Y-12906595D02*
X15197857Y-12887548D01*
X15197857Y-12887548D02*
X15194047Y-12878024D01*
X15194047Y-12878024D02*
X15186428Y-12868500D01*
X15186428Y-12868500D02*
X15175000Y-12863738D01*
X15175000Y-12863738D02*
X15167381Y-12863738D01*
X15167381Y-12863738D02*
X15155952Y-12868500D01*
X15155952Y-12868500D02*
X15152143Y-12873262D01*
X15152143Y-12873262D02*
X15152143Y-12906595D01*
X15152143Y-12906595D02*
X15167381Y-12906595D01*
X15117857Y-12863738D02*
X15117857Y-12963738D01*
X15117857Y-12963738D02*
X15072143Y-12863738D01*
X15072143Y-12863738D02*
X15072143Y-12963738D01*
X15034047Y-12863738D02*
X15034047Y-12963738D01*
X15034047Y-12963738D02*
X15015000Y-12963738D01*
X15015000Y-12963738D02*
X15003571Y-12958976D01*
X15003571Y-12958976D02*
X14995952Y-12949452D01*
X14995952Y-12949452D02*
X14992143Y-12939928D01*
X14992143Y-12939928D02*
X14988333Y-12920881D01*
X14988333Y-12920881D02*
X14988333Y-12906595D01*
X14988333Y-12906595D02*
X14992143Y-12887548D01*
X14992143Y-12887548D02*
X14995952Y-12878024D01*
X14995952Y-12878024D02*
X15003571Y-12868500D01*
X15003571Y-12868500D02*
X15015000Y-12863738D01*
X15015000Y-12863738D02*
X15034047Y-12863738D01*
X13926547Y-12911119D02*
X13899881Y-12911119D01*
X13888452Y-12858738D02*
X13926547Y-12858738D01*
X13926547Y-12858738D02*
X13926547Y-12958738D01*
X13926547Y-12958738D02*
X13888452Y-12958738D01*
X13854166Y-12858738D02*
X13854166Y-12958738D01*
X13854166Y-12958738D02*
X13808452Y-12858738D01*
X13808452Y-12858738D02*
X13808452Y-12958738D01*
X15416309Y-9500262D02*
X15416309Y-9400262D01*
X15416309Y-9400262D02*
X15454405Y-9400262D01*
X15454405Y-9400262D02*
X15463928Y-9405024D01*
X15463928Y-9405024D02*
X15468690Y-9409786D01*
X15468690Y-9409786D02*
X15473452Y-9419310D01*
X15473452Y-9419310D02*
X15473452Y-9433595D01*
X15473452Y-9433595D02*
X15468690Y-9443119D01*
X15468690Y-9443119D02*
X15463928Y-9447881D01*
X15463928Y-9447881D02*
X15454405Y-9452643D01*
X15454405Y-9452643D02*
X15416309Y-9452643D01*
X15573452Y-9490738D02*
X15568690Y-9495500D01*
X15568690Y-9495500D02*
X15554405Y-9500262D01*
X15554405Y-9500262D02*
X15544881Y-9500262D01*
X15544881Y-9500262D02*
X15530595Y-9495500D01*
X15530595Y-9495500D02*
X15521071Y-9485976D01*
X15521071Y-9485976D02*
X15516309Y-9476452D01*
X15516309Y-9476452D02*
X15511548Y-9457405D01*
X15511548Y-9457405D02*
X15511548Y-9443119D01*
X15511548Y-9443119D02*
X15516309Y-9424071D01*
X15516309Y-9424071D02*
X15521071Y-9414548D01*
X15521071Y-9414548D02*
X15530595Y-9405024D01*
X15530595Y-9405024D02*
X15544881Y-9400262D01*
X15544881Y-9400262D02*
X15554405Y-9400262D01*
X15554405Y-9400262D02*
X15568690Y-9405024D01*
X15568690Y-9405024D02*
X15573452Y-9409786D01*
X15649643Y-9447881D02*
X15616309Y-9447881D01*
X15616309Y-9500262D02*
X15616309Y-9400262D01*
X15616309Y-9400262D02*
X15663928Y-9400262D01*
X15716309Y-9443119D02*
X15706786Y-9438357D01*
X15706786Y-9438357D02*
X15702024Y-9433595D01*
X15702024Y-9433595D02*
X15697262Y-9424071D01*
X15697262Y-9424071D02*
X15697262Y-9419310D01*
X15697262Y-9419310D02*
X15702024Y-9409786D01*
X15702024Y-9409786D02*
X15706786Y-9405024D01*
X15706786Y-9405024D02*
X15716309Y-9400262D01*
X15716309Y-9400262D02*
X15735357Y-9400262D01*
X15735357Y-9400262D02*
X15744881Y-9405024D01*
X15744881Y-9405024D02*
X15749643Y-9409786D01*
X15749643Y-9409786D02*
X15754405Y-9419310D01*
X15754405Y-9419310D02*
X15754405Y-9424071D01*
X15754405Y-9424071D02*
X15749643Y-9433595D01*
X15749643Y-9433595D02*
X15744881Y-9438357D01*
X15744881Y-9438357D02*
X15735357Y-9443119D01*
X15735357Y-9443119D02*
X15716309Y-9443119D01*
X15716309Y-9443119D02*
X15706786Y-9447881D01*
X15706786Y-9447881D02*
X15702024Y-9452643D01*
X15702024Y-9452643D02*
X15697262Y-9462167D01*
X15697262Y-9462167D02*
X15697262Y-9481214D01*
X15697262Y-9481214D02*
X15702024Y-9490738D01*
X15702024Y-9490738D02*
X15706786Y-9495500D01*
X15706786Y-9495500D02*
X15716309Y-9500262D01*
X15716309Y-9500262D02*
X15735357Y-9500262D01*
X15735357Y-9500262D02*
X15744881Y-9495500D01*
X15744881Y-9495500D02*
X15749643Y-9490738D01*
X15749643Y-9490738D02*
X15754405Y-9481214D01*
X15754405Y-9481214D02*
X15754405Y-9462167D01*
X15754405Y-9462167D02*
X15749643Y-9452643D01*
X15749643Y-9452643D02*
X15744881Y-9447881D01*
X15744881Y-9447881D02*
X15735357Y-9443119D01*
X15844881Y-9400262D02*
X15797262Y-9400262D01*
X15797262Y-9400262D02*
X15792500Y-9447881D01*
X15792500Y-9447881D02*
X15797262Y-9443119D01*
X15797262Y-9443119D02*
X15806786Y-9438357D01*
X15806786Y-9438357D02*
X15830595Y-9438357D01*
X15830595Y-9438357D02*
X15840119Y-9443119D01*
X15840119Y-9443119D02*
X15844881Y-9447881D01*
X15844881Y-9447881D02*
X15849643Y-9457405D01*
X15849643Y-9457405D02*
X15849643Y-9481214D01*
X15849643Y-9481214D02*
X15844881Y-9490738D01*
X15844881Y-9490738D02*
X15840119Y-9495500D01*
X15840119Y-9495500D02*
X15830595Y-9500262D01*
X15830595Y-9500262D02*
X15806786Y-9500262D01*
X15806786Y-9500262D02*
X15797262Y-9495500D01*
X15797262Y-9495500D02*
X15792500Y-9490738D01*
X15882976Y-9400262D02*
X15949643Y-9400262D01*
X15949643Y-9400262D02*
X15906786Y-9500262D01*
X16030595Y-9433595D02*
X16030595Y-9500262D01*
X16006786Y-9395500D02*
X15982976Y-9466929D01*
X15982976Y-9466929D02*
X16044881Y-9466929D01*
X13177500Y-12863500D02*
X13167500Y-12858738D01*
X13167500Y-12858738D02*
X13150833Y-12858738D01*
X13150833Y-12858738D02*
X13144167Y-12863500D01*
X13144167Y-12863500D02*
X13140833Y-12868262D01*
X13140833Y-12868262D02*
X13137500Y-12877786D01*
X13137500Y-12877786D02*
X13137500Y-12887309D01*
X13137500Y-12887309D02*
X13140833Y-12896833D01*
X13140833Y-12896833D02*
X13144167Y-12901595D01*
X13144167Y-12901595D02*
X13150833Y-12906357D01*
X13150833Y-12906357D02*
X13164167Y-12911119D01*
X13164167Y-12911119D02*
X13170833Y-12915881D01*
X13170833Y-12915881D02*
X13174167Y-12920643D01*
X13174167Y-12920643D02*
X13177500Y-12930167D01*
X13177500Y-12930167D02*
X13177500Y-12939690D01*
X13177500Y-12939690D02*
X13174167Y-12949214D01*
X13174167Y-12949214D02*
X13170833Y-12953976D01*
X13170833Y-12953976D02*
X13164167Y-12958738D01*
X13164167Y-12958738D02*
X13147500Y-12958738D01*
X13147500Y-12958738D02*
X13137500Y-12953976D01*
X13097500Y-12858738D02*
X13104167Y-12863500D01*
X13104167Y-12863500D02*
X13107500Y-12873024D01*
X13107500Y-12873024D02*
X13107500Y-12958738D01*
X13044166Y-12863500D02*
X13050833Y-12858738D01*
X13050833Y-12858738D02*
X13064166Y-12858738D01*
X13064166Y-12858738D02*
X13070833Y-12863500D01*
X13070833Y-12863500D02*
X13074166Y-12873024D01*
X13074166Y-12873024D02*
X13074166Y-12911119D01*
X13074166Y-12911119D02*
X13070833Y-12920643D01*
X13070833Y-12920643D02*
X13064166Y-12925405D01*
X13064166Y-12925405D02*
X13050833Y-12925405D01*
X13050833Y-12925405D02*
X13044166Y-12920643D01*
X13044166Y-12920643D02*
X13040833Y-12911119D01*
X13040833Y-12911119D02*
X13040833Y-12901595D01*
X13040833Y-12901595D02*
X13074166Y-12892071D01*
X12984166Y-12863500D02*
X12990833Y-12858738D01*
X12990833Y-12858738D02*
X13004166Y-12858738D01*
X13004166Y-12858738D02*
X13010833Y-12863500D01*
X13010833Y-12863500D02*
X13014166Y-12873024D01*
X13014166Y-12873024D02*
X13014166Y-12911119D01*
X13014166Y-12911119D02*
X13010833Y-12920643D01*
X13010833Y-12920643D02*
X13004166Y-12925405D01*
X13004166Y-12925405D02*
X12990833Y-12925405D01*
X12990833Y-12925405D02*
X12984166Y-12920643D01*
X12984166Y-12920643D02*
X12980833Y-12911119D01*
X12980833Y-12911119D02*
X12980833Y-12901595D01*
X12980833Y-12901595D02*
X13014166Y-12892071D01*
X12950833Y-12925405D02*
X12950833Y-12825405D01*
X12950833Y-12920643D02*
X12944166Y-12925405D01*
X12944166Y-12925405D02*
X12930833Y-12925405D01*
X12930833Y-12925405D02*
X12924166Y-12920643D01*
X12924166Y-12920643D02*
X12920833Y-12915881D01*
X12920833Y-12915881D02*
X12917500Y-12906357D01*
X12917500Y-12906357D02*
X12917500Y-12877786D01*
X12917500Y-12877786D02*
X12920833Y-12868262D01*
X12920833Y-12868262D02*
X12924166Y-12863500D01*
X12924166Y-12863500D02*
X12930833Y-12858738D01*
X12930833Y-12858738D02*
X12944166Y-12858738D01*
X12944166Y-12858738D02*
X12950833Y-12863500D01*
X14500262Y-11008690D02*
X14400262Y-11008690D01*
X14500262Y-10951548D02*
X14443119Y-10994405D01*
X14400262Y-10951548D02*
X14457405Y-11008690D01*
X14495500Y-10870595D02*
X14500262Y-10880119D01*
X14500262Y-10880119D02*
X14500262Y-10899167D01*
X14500262Y-10899167D02*
X14495500Y-10908690D01*
X14495500Y-10908690D02*
X14485976Y-10913452D01*
X14485976Y-10913452D02*
X14447881Y-10913452D01*
X14447881Y-10913452D02*
X14438357Y-10908690D01*
X14438357Y-10908690D02*
X14433595Y-10899167D01*
X14433595Y-10899167D02*
X14433595Y-10880119D01*
X14433595Y-10880119D02*
X14438357Y-10870595D01*
X14438357Y-10870595D02*
X14447881Y-10865833D01*
X14447881Y-10865833D02*
X14457405Y-10865833D01*
X14457405Y-10865833D02*
X14466928Y-10913452D01*
X14433595Y-10832500D02*
X14500262Y-10808690D01*
X14433595Y-10784881D02*
X14500262Y-10808690D01*
X14500262Y-10808690D02*
X14524071Y-10818214D01*
X14524071Y-10818214D02*
X14528833Y-10822976D01*
X14528833Y-10822976D02*
X14533595Y-10832500D01*
X14500262Y-10746786D02*
X14400262Y-10746786D01*
X14438357Y-10746786D02*
X14433595Y-10737262D01*
X14433595Y-10737262D02*
X14433595Y-10718214D01*
X14433595Y-10718214D02*
X14438357Y-10708690D01*
X14438357Y-10708690D02*
X14443119Y-10703929D01*
X14443119Y-10703929D02*
X14452643Y-10699167D01*
X14452643Y-10699167D02*
X14481214Y-10699167D01*
X14481214Y-10699167D02*
X14490738Y-10703929D01*
X14490738Y-10703929D02*
X14495500Y-10708690D01*
X14495500Y-10708690D02*
X14500262Y-10718214D01*
X14500262Y-10718214D02*
X14500262Y-10737262D01*
X14500262Y-10737262D02*
X14495500Y-10746786D01*
X14500262Y-10642024D02*
X14495500Y-10651548D01*
X14495500Y-10651548D02*
X14490738Y-10656309D01*
X14490738Y-10656309D02*
X14481214Y-10661071D01*
X14481214Y-10661071D02*
X14452643Y-10661071D01*
X14452643Y-10661071D02*
X14443119Y-10656309D01*
X14443119Y-10656309D02*
X14438357Y-10651548D01*
X14438357Y-10651548D02*
X14433595Y-10642024D01*
X14433595Y-10642024D02*
X14433595Y-10627738D01*
X14433595Y-10627738D02*
X14438357Y-10618214D01*
X14438357Y-10618214D02*
X14443119Y-10613452D01*
X14443119Y-10613452D02*
X14452643Y-10608690D01*
X14452643Y-10608690D02*
X14481214Y-10608690D01*
X14481214Y-10608690D02*
X14490738Y-10613452D01*
X14490738Y-10613452D02*
X14495500Y-10618214D01*
X14495500Y-10618214D02*
X14500262Y-10627738D01*
X14500262Y-10627738D02*
X14500262Y-10642024D01*
X14500262Y-10522976D02*
X14447881Y-10522976D01*
X14447881Y-10522976D02*
X14438357Y-10527738D01*
X14438357Y-10527738D02*
X14433595Y-10537262D01*
X14433595Y-10537262D02*
X14433595Y-10556309D01*
X14433595Y-10556309D02*
X14438357Y-10565833D01*
X14495500Y-10522976D02*
X14500262Y-10532500D01*
X14500262Y-10532500D02*
X14500262Y-10556309D01*
X14500262Y-10556309D02*
X14495500Y-10565833D01*
X14495500Y-10565833D02*
X14485976Y-10570595D01*
X14485976Y-10570595D02*
X14476452Y-10570595D01*
X14476452Y-10570595D02*
X14466928Y-10565833D01*
X14466928Y-10565833D02*
X14462167Y-10556309D01*
X14462167Y-10556309D02*
X14462167Y-10532500D01*
X14462167Y-10532500D02*
X14457405Y-10522976D01*
X14500262Y-10475357D02*
X14433595Y-10475357D01*
X14452643Y-10475357D02*
X14443119Y-10470595D01*
X14443119Y-10470595D02*
X14438357Y-10465833D01*
X14438357Y-10465833D02*
X14433595Y-10456309D01*
X14433595Y-10456309D02*
X14433595Y-10446786D01*
X14500262Y-10370595D02*
X14400262Y-10370595D01*
X14495500Y-10370595D02*
X14500262Y-10380119D01*
X14500262Y-10380119D02*
X14500262Y-10399167D01*
X14500262Y-10399167D02*
X14495500Y-10408690D01*
X14495500Y-10408690D02*
X14490738Y-10413452D01*
X14490738Y-10413452D02*
X14481214Y-10418214D01*
X14481214Y-10418214D02*
X14452643Y-10418214D01*
X14452643Y-10418214D02*
X14443119Y-10413452D01*
X14443119Y-10413452D02*
X14438357Y-10408690D01*
X14438357Y-10408690D02*
X14433595Y-10399167D01*
X14433595Y-10399167D02*
X14433595Y-10380119D01*
X14433595Y-10380119D02*
X14438357Y-10370595D01*
X14395500Y-10175357D02*
X14524071Y-10261071D01*
X14447881Y-10065833D02*
X14447881Y-10032500D01*
X14500262Y-10018214D02*
X14500262Y-10065833D01*
X14500262Y-10065833D02*
X14400262Y-10065833D01*
X14400262Y-10065833D02*
X14400262Y-10018214D01*
X14433595Y-9975357D02*
X14500262Y-9975357D01*
X14443119Y-9975357D02*
X14438357Y-9970595D01*
X14438357Y-9970595D02*
X14433595Y-9961071D01*
X14433595Y-9961071D02*
X14433595Y-9946786D01*
X14433595Y-9946786D02*
X14438357Y-9937262D01*
X14438357Y-9937262D02*
X14447881Y-9932500D01*
X14447881Y-9932500D02*
X14500262Y-9932500D01*
X14495500Y-9842024D02*
X14500262Y-9851547D01*
X14500262Y-9851547D02*
X14500262Y-9870595D01*
X14500262Y-9870595D02*
X14495500Y-9880119D01*
X14495500Y-9880119D02*
X14490738Y-9884881D01*
X14490738Y-9884881D02*
X14481214Y-9889643D01*
X14481214Y-9889643D02*
X14452643Y-9889643D01*
X14452643Y-9889643D02*
X14443119Y-9884881D01*
X14443119Y-9884881D02*
X14438357Y-9880119D01*
X14438357Y-9880119D02*
X14433595Y-9870595D01*
X14433595Y-9870595D02*
X14433595Y-9851547D01*
X14433595Y-9851547D02*
X14438357Y-9842024D01*
X14500262Y-9784881D02*
X14495500Y-9794405D01*
X14495500Y-9794405D02*
X14490738Y-9799166D01*
X14490738Y-9799166D02*
X14481214Y-9803928D01*
X14481214Y-9803928D02*
X14452643Y-9803928D01*
X14452643Y-9803928D02*
X14443119Y-9799166D01*
X14443119Y-9799166D02*
X14438357Y-9794405D01*
X14438357Y-9794405D02*
X14433595Y-9784881D01*
X14433595Y-9784881D02*
X14433595Y-9770595D01*
X14433595Y-9770595D02*
X14438357Y-9761071D01*
X14438357Y-9761071D02*
X14443119Y-9756309D01*
X14443119Y-9756309D02*
X14452643Y-9751547D01*
X14452643Y-9751547D02*
X14481214Y-9751547D01*
X14481214Y-9751547D02*
X14490738Y-9756309D01*
X14490738Y-9756309D02*
X14495500Y-9761071D01*
X14495500Y-9761071D02*
X14500262Y-9770595D01*
X14500262Y-9770595D02*
X14500262Y-9784881D01*
X14500262Y-9665833D02*
X14400262Y-9665833D01*
X14495500Y-9665833D02*
X14500262Y-9675357D01*
X14500262Y-9675357D02*
X14500262Y-9694405D01*
X14500262Y-9694405D02*
X14495500Y-9703928D01*
X14495500Y-9703928D02*
X14490738Y-9708690D01*
X14490738Y-9708690D02*
X14481214Y-9713452D01*
X14481214Y-9713452D02*
X14452643Y-9713452D01*
X14452643Y-9713452D02*
X14443119Y-9708690D01*
X14443119Y-9708690D02*
X14438357Y-9703928D01*
X14438357Y-9703928D02*
X14433595Y-9694405D01*
X14433595Y-9694405D02*
X14433595Y-9675357D01*
X14433595Y-9675357D02*
X14438357Y-9665833D01*
X14495500Y-9580119D02*
X14500262Y-9589643D01*
X14500262Y-9589643D02*
X14500262Y-9608690D01*
X14500262Y-9608690D02*
X14495500Y-9618214D01*
X14495500Y-9618214D02*
X14485976Y-9622976D01*
X14485976Y-9622976D02*
X14447881Y-9622976D01*
X14447881Y-9622976D02*
X14438357Y-9618214D01*
X14438357Y-9618214D02*
X14433595Y-9608690D01*
X14433595Y-9608690D02*
X14433595Y-9589643D01*
X14433595Y-9589643D02*
X14438357Y-9580119D01*
X14438357Y-9580119D02*
X14447881Y-9575357D01*
X14447881Y-9575357D02*
X14457405Y-9575357D01*
X14457405Y-9575357D02*
X14466928Y-9622976D01*
X14500262Y-9532500D02*
X14433595Y-9532500D01*
X14452643Y-9532500D02*
X14443119Y-9527738D01*
X14443119Y-9527738D02*
X14438357Y-9522976D01*
X14438357Y-9522976D02*
X14433595Y-9513452D01*
X14433595Y-9513452D02*
X14433595Y-9503928D01*
X17547762Y-11238690D02*
X17447762Y-11238690D01*
X17447762Y-11238690D02*
X17447762Y-11200595D01*
X17447762Y-11200595D02*
X17452524Y-11191071D01*
X17452524Y-11191071D02*
X17457286Y-11186309D01*
X17457286Y-11186309D02*
X17466810Y-11181548D01*
X17466810Y-11181548D02*
X17481095Y-11181548D01*
X17481095Y-11181548D02*
X17490619Y-11186309D01*
X17490619Y-11186309D02*
X17495381Y-11191071D01*
X17495381Y-11191071D02*
X17500143Y-11200595D01*
X17500143Y-11200595D02*
X17500143Y-11238690D01*
X17447762Y-11138690D02*
X17528714Y-11138690D01*
X17528714Y-11138690D02*
X17538238Y-11133929D01*
X17538238Y-11133929D02*
X17543000Y-11129167D01*
X17543000Y-11129167D02*
X17547762Y-11119643D01*
X17547762Y-11119643D02*
X17547762Y-11100595D01*
X17547762Y-11100595D02*
X17543000Y-11091071D01*
X17543000Y-11091071D02*
X17538238Y-11086310D01*
X17538238Y-11086310D02*
X17528714Y-11081548D01*
X17528714Y-11081548D02*
X17447762Y-11081548D01*
X17547762Y-10986310D02*
X17547762Y-11033929D01*
X17547762Y-11033929D02*
X17447762Y-11033929D01*
X17547762Y-10905357D02*
X17547762Y-10952976D01*
X17547762Y-10952976D02*
X17447762Y-10952976D01*
X17509667Y-10795833D02*
X17509667Y-10719643D01*
X17447762Y-10595833D02*
X17528714Y-10595833D01*
X17528714Y-10595833D02*
X17538238Y-10591071D01*
X17538238Y-10591071D02*
X17543000Y-10586309D01*
X17543000Y-10586309D02*
X17547762Y-10576786D01*
X17547762Y-10576786D02*
X17547762Y-10557738D01*
X17547762Y-10557738D02*
X17543000Y-10548214D01*
X17543000Y-10548214D02*
X17538238Y-10543452D01*
X17538238Y-10543452D02*
X17528714Y-10538690D01*
X17528714Y-10538690D02*
X17447762Y-10538690D01*
X17481095Y-10491071D02*
X17581095Y-10491071D01*
X17485857Y-10491071D02*
X17481095Y-10481548D01*
X17481095Y-10481548D02*
X17481095Y-10462500D01*
X17481095Y-10462500D02*
X17485857Y-10452976D01*
X17485857Y-10452976D02*
X17490619Y-10448214D01*
X17490619Y-10448214D02*
X17500143Y-10443452D01*
X17500143Y-10443452D02*
X17528714Y-10443452D01*
X17528714Y-10443452D02*
X17538238Y-10448214D01*
X17538238Y-10448214D02*
X17543000Y-10452976D01*
X17543000Y-10452976D02*
X17547762Y-10462500D01*
X17547762Y-10462500D02*
X17547762Y-10481548D01*
X17547762Y-10481548D02*
X17543000Y-10491071D01*
X17547762Y-10267262D02*
X17500143Y-10300595D01*
X17547762Y-10324405D02*
X17447762Y-10324405D01*
X17447762Y-10324405D02*
X17447762Y-10286309D01*
X17447762Y-10286309D02*
X17452524Y-10276786D01*
X17452524Y-10276786D02*
X17457286Y-10272024D01*
X17457286Y-10272024D02*
X17466810Y-10267262D01*
X17466810Y-10267262D02*
X17481095Y-10267262D01*
X17481095Y-10267262D02*
X17490619Y-10272024D01*
X17490619Y-10272024D02*
X17495381Y-10276786D01*
X17495381Y-10276786D02*
X17500143Y-10286309D01*
X17500143Y-10286309D02*
X17500143Y-10324405D01*
X17543000Y-10186309D02*
X17547762Y-10195833D01*
X17547762Y-10195833D02*
X17547762Y-10214881D01*
X17547762Y-10214881D02*
X17543000Y-10224405D01*
X17543000Y-10224405D02*
X17533476Y-10229167D01*
X17533476Y-10229167D02*
X17495381Y-10229167D01*
X17495381Y-10229167D02*
X17485857Y-10224405D01*
X17485857Y-10224405D02*
X17481095Y-10214881D01*
X17481095Y-10214881D02*
X17481095Y-10195833D01*
X17481095Y-10195833D02*
X17485857Y-10186309D01*
X17485857Y-10186309D02*
X17495381Y-10181548D01*
X17495381Y-10181548D02*
X17504905Y-10181548D01*
X17504905Y-10181548D02*
X17514429Y-10229167D01*
X17543000Y-10143452D02*
X17547762Y-10133928D01*
X17547762Y-10133928D02*
X17547762Y-10114881D01*
X17547762Y-10114881D02*
X17543000Y-10105357D01*
X17543000Y-10105357D02*
X17533476Y-10100595D01*
X17533476Y-10100595D02*
X17528714Y-10100595D01*
X17528714Y-10100595D02*
X17519190Y-10105357D01*
X17519190Y-10105357D02*
X17514429Y-10114881D01*
X17514429Y-10114881D02*
X17514429Y-10129167D01*
X17514429Y-10129167D02*
X17509667Y-10138690D01*
X17509667Y-10138690D02*
X17500143Y-10143452D01*
X17500143Y-10143452D02*
X17495381Y-10143452D01*
X17495381Y-10143452D02*
X17485857Y-10138690D01*
X17485857Y-10138690D02*
X17481095Y-10129167D01*
X17481095Y-10129167D02*
X17481095Y-10114881D01*
X17481095Y-10114881D02*
X17485857Y-10105357D01*
X17547762Y-10057738D02*
X17481095Y-10057738D01*
X17447762Y-10057738D02*
X17452524Y-10062500D01*
X17452524Y-10062500D02*
X17457286Y-10057738D01*
X17457286Y-10057738D02*
X17452524Y-10052976D01*
X17452524Y-10052976D02*
X17447762Y-10057738D01*
X17447762Y-10057738D02*
X17457286Y-10057738D01*
X17543000Y-10014881D02*
X17547762Y-10005357D01*
X17547762Y-10005357D02*
X17547762Y-9986309D01*
X17547762Y-9986309D02*
X17543000Y-9976786D01*
X17543000Y-9976786D02*
X17533476Y-9972024D01*
X17533476Y-9972024D02*
X17528714Y-9972024D01*
X17528714Y-9972024D02*
X17519190Y-9976786D01*
X17519190Y-9976786D02*
X17514429Y-9986309D01*
X17514429Y-9986309D02*
X17514429Y-10000595D01*
X17514429Y-10000595D02*
X17509667Y-10010119D01*
X17509667Y-10010119D02*
X17500143Y-10014881D01*
X17500143Y-10014881D02*
X17495381Y-10014881D01*
X17495381Y-10014881D02*
X17485857Y-10010119D01*
X17485857Y-10010119D02*
X17481095Y-10000595D01*
X17481095Y-10000595D02*
X17481095Y-9986309D01*
X17481095Y-9986309D02*
X17485857Y-9976786D01*
X17481095Y-9943452D02*
X17481095Y-9905357D01*
X17447762Y-9929167D02*
X17533476Y-9929167D01*
X17533476Y-9929167D02*
X17543000Y-9924405D01*
X17543000Y-9924405D02*
X17547762Y-9914881D01*
X17547762Y-9914881D02*
X17547762Y-9905357D01*
X17547762Y-9857738D02*
X17543000Y-9867262D01*
X17543000Y-9867262D02*
X17538238Y-9872024D01*
X17538238Y-9872024D02*
X17528714Y-9876786D01*
X17528714Y-9876786D02*
X17500143Y-9876786D01*
X17500143Y-9876786D02*
X17490619Y-9872024D01*
X17490619Y-9872024D02*
X17485857Y-9867262D01*
X17485857Y-9867262D02*
X17481095Y-9857738D01*
X17481095Y-9857738D02*
X17481095Y-9843452D01*
X17481095Y-9843452D02*
X17485857Y-9833928D01*
X17485857Y-9833928D02*
X17490619Y-9829167D01*
X17490619Y-9829167D02*
X17500143Y-9824405D01*
X17500143Y-9824405D02*
X17528714Y-9824405D01*
X17528714Y-9824405D02*
X17538238Y-9829167D01*
X17538238Y-9829167D02*
X17543000Y-9833928D01*
X17543000Y-9833928D02*
X17547762Y-9843452D01*
X17547762Y-9843452D02*
X17547762Y-9857738D01*
X17547762Y-9781547D02*
X17481095Y-9781547D01*
X17500143Y-9781547D02*
X17490619Y-9776786D01*
X17490619Y-9776786D02*
X17485857Y-9772024D01*
X17485857Y-9772024D02*
X17481095Y-9762500D01*
X17481095Y-9762500D02*
X17481095Y-9752976D01*
X17547762Y-9643452D02*
X17447762Y-9643452D01*
X17447762Y-9643452D02*
X17519190Y-9610119D01*
X17519190Y-9610119D02*
X17447762Y-9576786D01*
X17447762Y-9576786D02*
X17547762Y-9576786D01*
X17547762Y-9486309D02*
X17495381Y-9486309D01*
X17495381Y-9486309D02*
X17485857Y-9491071D01*
X17485857Y-9491071D02*
X17481095Y-9500595D01*
X17481095Y-9500595D02*
X17481095Y-9519643D01*
X17481095Y-9519643D02*
X17485857Y-9529166D01*
X17543000Y-9486309D02*
X17547762Y-9495833D01*
X17547762Y-9495833D02*
X17547762Y-9519643D01*
X17547762Y-9519643D02*
X17543000Y-9529166D01*
X17543000Y-9529166D02*
X17533476Y-9533928D01*
X17533476Y-9533928D02*
X17523952Y-9533928D01*
X17523952Y-9533928D02*
X17514429Y-9529166D01*
X17514429Y-9529166D02*
X17509667Y-9519643D01*
X17509667Y-9519643D02*
X17509667Y-9495833D01*
X17509667Y-9495833D02*
X17504905Y-9486309D01*
X17481095Y-9452976D02*
X17481095Y-9414881D01*
X17447762Y-9438690D02*
X17533476Y-9438690D01*
X17533476Y-9438690D02*
X17543000Y-9433928D01*
X17543000Y-9433928D02*
X17547762Y-9424405D01*
X17547762Y-9424405D02*
X17547762Y-9414881D01*
X17547762Y-9381547D02*
X17481095Y-9381547D01*
X17500143Y-9381547D02*
X17490619Y-9376785D01*
X17490619Y-9376785D02*
X17485857Y-9372024D01*
X17485857Y-9372024D02*
X17481095Y-9362500D01*
X17481095Y-9362500D02*
X17481095Y-9352976D01*
X17547762Y-9319643D02*
X17481095Y-9319643D01*
X17447762Y-9319643D02*
X17452524Y-9324404D01*
X17452524Y-9324404D02*
X17457286Y-9319643D01*
X17457286Y-9319643D02*
X17452524Y-9314881D01*
X17452524Y-9314881D02*
X17447762Y-9319643D01*
X17447762Y-9319643D02*
X17457286Y-9319643D01*
X17547762Y-9281547D02*
X17481095Y-9229166D01*
X17481095Y-9281547D02*
X17547762Y-9229166D01*
X15640238Y-12966238D02*
X15678333Y-12966238D01*
X15678333Y-12966238D02*
X15682143Y-12918619D01*
X15682143Y-12918619D02*
X15678333Y-12923381D01*
X15678333Y-12923381D02*
X15670714Y-12928143D01*
X15670714Y-12928143D02*
X15651667Y-12928143D01*
X15651667Y-12928143D02*
X15644047Y-12923381D01*
X15644047Y-12923381D02*
X15640238Y-12918619D01*
X15640238Y-12918619D02*
X15636428Y-12909095D01*
X15636428Y-12909095D02*
X15636428Y-12885286D01*
X15636428Y-12885286D02*
X15640238Y-12875762D01*
X15640238Y-12875762D02*
X15644047Y-12871000D01*
X15644047Y-12871000D02*
X15651667Y-12866238D01*
X15651667Y-12866238D02*
X15670714Y-12866238D01*
X15670714Y-12866238D02*
X15678333Y-12871000D01*
X15678333Y-12871000D02*
X15682143Y-12875762D01*
X15613571Y-12966238D02*
X15586905Y-12866238D01*
X15586905Y-12866238D02*
X15560238Y-12966238D01*
X14695952Y-12868500D02*
X14684524Y-12863738D01*
X14684524Y-12863738D02*
X14665476Y-12863738D01*
X14665476Y-12863738D02*
X14657857Y-12868500D01*
X14657857Y-12868500D02*
X14654048Y-12873262D01*
X14654048Y-12873262D02*
X14650238Y-12882786D01*
X14650238Y-12882786D02*
X14650238Y-12892309D01*
X14650238Y-12892309D02*
X14654048Y-12901833D01*
X14654048Y-12901833D02*
X14657857Y-12906595D01*
X14657857Y-12906595D02*
X14665476Y-12911357D01*
X14665476Y-12911357D02*
X14680714Y-12916119D01*
X14680714Y-12916119D02*
X14688333Y-12920881D01*
X14688333Y-12920881D02*
X14692143Y-12925643D01*
X14692143Y-12925643D02*
X14695952Y-12935167D01*
X14695952Y-12935167D02*
X14695952Y-12944690D01*
X14695952Y-12944690D02*
X14692143Y-12954214D01*
X14692143Y-12954214D02*
X14688333Y-12958976D01*
X14688333Y-12958976D02*
X14680714Y-12963738D01*
X14680714Y-12963738D02*
X14661667Y-12963738D01*
X14661667Y-12963738D02*
X14650238Y-12958976D01*
X14615952Y-12916119D02*
X14589286Y-12916119D01*
X14577857Y-12863738D02*
X14615952Y-12863738D01*
X14615952Y-12863738D02*
X14615952Y-12963738D01*
X14615952Y-12963738D02*
X14577857Y-12963738D01*
X14543571Y-12863738D02*
X14543571Y-12963738D01*
X14543571Y-12963738D02*
X14497857Y-12863738D01*
X14497857Y-12863738D02*
X14497857Y-12963738D01*
X13661786Y-12956238D02*
X13642738Y-12856238D01*
X13642738Y-12856238D02*
X13627500Y-12927667D01*
X13627500Y-12927667D02*
X13612262Y-12856238D01*
X13612262Y-12856238D02*
X13593214Y-12956238D01*
X13562738Y-12856238D02*
X13562738Y-12956238D01*
X13562738Y-12956238D02*
X13532262Y-12956238D01*
X13532262Y-12956238D02*
X13524643Y-12951476D01*
X13524643Y-12951476D02*
X13520833Y-12946714D01*
X13520833Y-12946714D02*
X13517024Y-12937190D01*
X13517024Y-12937190D02*
X13517024Y-12922905D01*
X13517024Y-12922905D02*
X13520833Y-12913381D01*
X13520833Y-12913381D02*
X13524643Y-12908619D01*
X13524643Y-12908619D02*
X13532262Y-12903857D01*
X13532262Y-12903857D02*
X13562738Y-12903857D01*
X13849286Y-12982243D02*
X13849286Y-13022243D01*
X13849286Y-13042243D02*
X13852143Y-13039386D01*
X13852143Y-13039386D02*
X13849286Y-13036528D01*
X13849286Y-13036528D02*
X13846428Y-13039386D01*
X13846428Y-13039386D02*
X13849286Y-13042243D01*
X13849286Y-13042243D02*
X13849286Y-13036528D01*
X13823571Y-13036528D02*
X13820714Y-13039386D01*
X13820714Y-13039386D02*
X13815000Y-13042243D01*
X13815000Y-13042243D02*
X13800714Y-13042243D01*
X13800714Y-13042243D02*
X13795000Y-13039386D01*
X13795000Y-13039386D02*
X13792143Y-13036528D01*
X13792143Y-13036528D02*
X13789286Y-13030814D01*
X13789286Y-13030814D02*
X13789286Y-13025100D01*
X13789286Y-13025100D02*
X13792143Y-13016528D01*
X13792143Y-13016528D02*
X13826428Y-12982243D01*
X13826428Y-12982243D02*
X13789286Y-12982243D01*
X13737857Y-12985100D02*
X13743571Y-12982243D01*
X13743571Y-12982243D02*
X13755000Y-12982243D01*
X13755000Y-12982243D02*
X13760714Y-12985100D01*
X13760714Y-12985100D02*
X13763571Y-12987957D01*
X13763571Y-12987957D02*
X13766428Y-12993671D01*
X13766428Y-12993671D02*
X13766428Y-13010814D01*
X13766428Y-13010814D02*
X13763571Y-13016528D01*
X13763571Y-13016528D02*
X13760714Y-13019386D01*
X13760714Y-13019386D02*
X13755000Y-13022243D01*
X13755000Y-13022243D02*
X13743571Y-13022243D01*
X13743571Y-13022243D02*
X13737857Y-13019386D01*
X11256548Y-13041690D02*
X11304167Y-13041690D01*
X11247024Y-13070262D02*
X11280357Y-12970262D01*
X11280357Y-12970262D02*
X11313690Y-13070262D01*
X11347024Y-13070262D02*
X11347024Y-13003595D01*
X11347024Y-13022643D02*
X11351786Y-13013119D01*
X11351786Y-13013119D02*
X11356548Y-13008357D01*
X11356548Y-13008357D02*
X11366071Y-13003595D01*
X11366071Y-13003595D02*
X11375595Y-13003595D01*
X11451786Y-13070262D02*
X11451786Y-12970262D01*
X11451786Y-13065500D02*
X11442262Y-13070262D01*
X11442262Y-13070262D02*
X11423214Y-13070262D01*
X11423214Y-13070262D02*
X11413690Y-13065500D01*
X11413690Y-13065500D02*
X11408929Y-13060738D01*
X11408929Y-13060738D02*
X11404167Y-13051214D01*
X11404167Y-13051214D02*
X11404167Y-13022643D01*
X11404167Y-13022643D02*
X11408929Y-13013119D01*
X11408929Y-13013119D02*
X11413690Y-13008357D01*
X11413690Y-13008357D02*
X11423214Y-13003595D01*
X11423214Y-13003595D02*
X11442262Y-13003595D01*
X11442262Y-13003595D02*
X11451786Y-13008357D01*
X11542262Y-13003595D02*
X11542262Y-13070262D01*
X11499405Y-13003595D02*
X11499405Y-13055976D01*
X11499405Y-13055976D02*
X11504167Y-13065500D01*
X11504167Y-13065500D02*
X11513690Y-13070262D01*
X11513690Y-13070262D02*
X11527976Y-13070262D01*
X11527976Y-13070262D02*
X11537500Y-13065500D01*
X11537500Y-13065500D02*
X11542262Y-13060738D01*
X11589881Y-13070262D02*
X11589881Y-13003595D01*
X11589881Y-12970262D02*
X11585119Y-12975024D01*
X11585119Y-12975024D02*
X11589881Y-12979786D01*
X11589881Y-12979786D02*
X11594643Y-12975024D01*
X11594643Y-12975024D02*
X11589881Y-12970262D01*
X11589881Y-12970262D02*
X11589881Y-12979786D01*
X11637500Y-13003595D02*
X11637500Y-13070262D01*
X11637500Y-13013119D02*
X11642262Y-13008357D01*
X11642262Y-13008357D02*
X11651786Y-13003595D01*
X11651786Y-13003595D02*
X11666071Y-13003595D01*
X11666071Y-13003595D02*
X11675595Y-13008357D01*
X11675595Y-13008357D02*
X11680357Y-13017881D01*
X11680357Y-13017881D02*
X11680357Y-13070262D01*
X11742262Y-13070262D02*
X11732738Y-13065500D01*
X11732738Y-13065500D02*
X11727976Y-13060738D01*
X11727976Y-13060738D02*
X11723214Y-13051214D01*
X11723214Y-13051214D02*
X11723214Y-13022643D01*
X11723214Y-13022643D02*
X11727976Y-13013119D01*
X11727976Y-13013119D02*
X11732738Y-13008357D01*
X11732738Y-13008357D02*
X11742262Y-13003595D01*
X11742262Y-13003595D02*
X11756548Y-13003595D01*
X11756548Y-13003595D02*
X11766071Y-13008357D01*
X11766071Y-13008357D02*
X11770833Y-13013119D01*
X11770833Y-13013119D02*
X11775595Y-13022643D01*
X11775595Y-13022643D02*
X11775595Y-13051214D01*
X11775595Y-13051214D02*
X11770833Y-13060738D01*
X11770833Y-13060738D02*
X11766071Y-13065500D01*
X11766071Y-13065500D02*
X11756548Y-13070262D01*
X11756548Y-13070262D02*
X11742262Y-13070262D01*
X11894643Y-13017881D02*
X11927976Y-13017881D01*
X11942262Y-13070262D02*
X11894643Y-13070262D01*
X11894643Y-13070262D02*
X11894643Y-12970262D01*
X11894643Y-12970262D02*
X11942262Y-12970262D01*
X11975595Y-13003595D02*
X11999405Y-13070262D01*
X11999405Y-13070262D02*
X12023214Y-13003595D01*
X12099405Y-13065500D02*
X12089881Y-13070262D01*
X12089881Y-13070262D02*
X12070833Y-13070262D01*
X12070833Y-13070262D02*
X12061310Y-13065500D01*
X12061310Y-13065500D02*
X12056548Y-13055976D01*
X12056548Y-13055976D02*
X12056548Y-13017881D01*
X12056548Y-13017881D02*
X12061310Y-13008357D01*
X12061310Y-13008357D02*
X12070833Y-13003595D01*
X12070833Y-13003595D02*
X12089881Y-13003595D01*
X12089881Y-13003595D02*
X12099405Y-13008357D01*
X12099405Y-13008357D02*
X12104167Y-13017881D01*
X12104167Y-13017881D02*
X12104167Y-13027405D01*
X12104167Y-13027405D02*
X12056548Y-13036928D01*
X12147024Y-13070262D02*
X12147024Y-13003595D01*
X12147024Y-13022643D02*
X12151786Y-13013119D01*
X12151786Y-13013119D02*
X12156548Y-13008357D01*
X12156548Y-13008357D02*
X12166071Y-13003595D01*
X12166071Y-13003595D02*
X12175595Y-13003595D01*
X12199405Y-13003595D02*
X12223214Y-13070262D01*
X12247024Y-13003595D02*
X12223214Y-13070262D01*
X12223214Y-13070262D02*
X12213691Y-13094071D01*
X12213691Y-13094071D02*
X12208929Y-13098833D01*
X12208929Y-13098833D02*
X12199405Y-13103595D01*
X15947024Y-12866238D02*
X15992738Y-12866238D01*
X15969881Y-12866238D02*
X15969881Y-12966238D01*
X15969881Y-12966238D02*
X15977500Y-12951952D01*
X15977500Y-12951952D02*
X15985119Y-12942428D01*
X15985119Y-12942428D02*
X15992738Y-12937667D01*
X15916548Y-12956714D02*
X15912738Y-12961476D01*
X15912738Y-12961476D02*
X15905119Y-12966238D01*
X15905119Y-12966238D02*
X15886071Y-12966238D01*
X15886071Y-12966238D02*
X15878452Y-12961476D01*
X15878452Y-12961476D02*
X15874643Y-12956714D01*
X15874643Y-12956714D02*
X15870833Y-12947190D01*
X15870833Y-12947190D02*
X15870833Y-12937667D01*
X15870833Y-12937667D02*
X15874643Y-12923381D01*
X15874643Y-12923381D02*
X15920357Y-12866238D01*
X15920357Y-12866238D02*
X15870833Y-12866238D01*
X15847976Y-12966238D02*
X15821309Y-12866238D01*
X15821309Y-12866238D02*
X15794643Y-12966238D01*
X15085262Y-11273690D02*
X14985262Y-11273690D01*
X14985262Y-11273690D02*
X14985262Y-11235595D01*
X14985262Y-11235595D02*
X14990024Y-11226071D01*
X14990024Y-11226071D02*
X14994786Y-11221309D01*
X14994786Y-11221309D02*
X15004309Y-11216548D01*
X15004309Y-11216548D02*
X15018595Y-11216548D01*
X15018595Y-11216548D02*
X15028119Y-11221309D01*
X15028119Y-11221309D02*
X15032881Y-11226071D01*
X15032881Y-11226071D02*
X15037643Y-11235595D01*
X15037643Y-11235595D02*
X15037643Y-11273690D01*
X14985262Y-11173690D02*
X15066214Y-11173690D01*
X15066214Y-11173690D02*
X15075738Y-11168929D01*
X15075738Y-11168929D02*
X15080500Y-11164167D01*
X15080500Y-11164167D02*
X15085262Y-11154643D01*
X15085262Y-11154643D02*
X15085262Y-11135595D01*
X15085262Y-11135595D02*
X15080500Y-11126071D01*
X15080500Y-11126071D02*
X15075738Y-11121310D01*
X15075738Y-11121310D02*
X15066214Y-11116548D01*
X15066214Y-11116548D02*
X14985262Y-11116548D01*
X15085262Y-11021310D02*
X15085262Y-11068929D01*
X15085262Y-11068929D02*
X14985262Y-11068929D01*
X15085262Y-10940357D02*
X15085262Y-10987976D01*
X15085262Y-10987976D02*
X14985262Y-10987976D01*
X15047167Y-10830833D02*
X15047167Y-10754643D01*
X14985262Y-10630833D02*
X15066214Y-10630833D01*
X15066214Y-10630833D02*
X15075738Y-10626071D01*
X15075738Y-10626071D02*
X15080500Y-10621309D01*
X15080500Y-10621309D02*
X15085262Y-10611786D01*
X15085262Y-10611786D02*
X15085262Y-10592738D01*
X15085262Y-10592738D02*
X15080500Y-10583214D01*
X15080500Y-10583214D02*
X15075738Y-10578452D01*
X15075738Y-10578452D02*
X15066214Y-10573690D01*
X15066214Y-10573690D02*
X14985262Y-10573690D01*
X15018595Y-10526071D02*
X15118595Y-10526071D01*
X15023357Y-10526071D02*
X15018595Y-10516548D01*
X15018595Y-10516548D02*
X15018595Y-10497500D01*
X15018595Y-10497500D02*
X15023357Y-10487976D01*
X15023357Y-10487976D02*
X15028119Y-10483214D01*
X15028119Y-10483214D02*
X15037643Y-10478452D01*
X15037643Y-10478452D02*
X15066214Y-10478452D01*
X15066214Y-10478452D02*
X15075738Y-10483214D01*
X15075738Y-10483214D02*
X15080500Y-10487976D01*
X15080500Y-10487976D02*
X15085262Y-10497500D01*
X15085262Y-10497500D02*
X15085262Y-10516548D01*
X15085262Y-10516548D02*
X15080500Y-10526071D01*
X15085262Y-10302262D02*
X15037643Y-10335595D01*
X15085262Y-10359405D02*
X14985262Y-10359405D01*
X14985262Y-10359405D02*
X14985262Y-10321309D01*
X14985262Y-10321309D02*
X14990024Y-10311786D01*
X14990024Y-10311786D02*
X14994786Y-10307024D01*
X14994786Y-10307024D02*
X15004309Y-10302262D01*
X15004309Y-10302262D02*
X15018595Y-10302262D01*
X15018595Y-10302262D02*
X15028119Y-10307024D01*
X15028119Y-10307024D02*
X15032881Y-10311786D01*
X15032881Y-10311786D02*
X15037643Y-10321309D01*
X15037643Y-10321309D02*
X15037643Y-10359405D01*
X15080500Y-10221309D02*
X15085262Y-10230833D01*
X15085262Y-10230833D02*
X15085262Y-10249881D01*
X15085262Y-10249881D02*
X15080500Y-10259405D01*
X15080500Y-10259405D02*
X15070976Y-10264167D01*
X15070976Y-10264167D02*
X15032881Y-10264167D01*
X15032881Y-10264167D02*
X15023357Y-10259405D01*
X15023357Y-10259405D02*
X15018595Y-10249881D01*
X15018595Y-10249881D02*
X15018595Y-10230833D01*
X15018595Y-10230833D02*
X15023357Y-10221309D01*
X15023357Y-10221309D02*
X15032881Y-10216548D01*
X15032881Y-10216548D02*
X15042405Y-10216548D01*
X15042405Y-10216548D02*
X15051928Y-10264167D01*
X15080500Y-10178452D02*
X15085262Y-10168928D01*
X15085262Y-10168928D02*
X15085262Y-10149881D01*
X15085262Y-10149881D02*
X15080500Y-10140357D01*
X15080500Y-10140357D02*
X15070976Y-10135595D01*
X15070976Y-10135595D02*
X15066214Y-10135595D01*
X15066214Y-10135595D02*
X15056690Y-10140357D01*
X15056690Y-10140357D02*
X15051928Y-10149881D01*
X15051928Y-10149881D02*
X15051928Y-10164167D01*
X15051928Y-10164167D02*
X15047167Y-10173690D01*
X15047167Y-10173690D02*
X15037643Y-10178452D01*
X15037643Y-10178452D02*
X15032881Y-10178452D01*
X15032881Y-10178452D02*
X15023357Y-10173690D01*
X15023357Y-10173690D02*
X15018595Y-10164167D01*
X15018595Y-10164167D02*
X15018595Y-10149881D01*
X15018595Y-10149881D02*
X15023357Y-10140357D01*
X15085262Y-10092738D02*
X15018595Y-10092738D01*
X14985262Y-10092738D02*
X14990024Y-10097500D01*
X14990024Y-10097500D02*
X14994786Y-10092738D01*
X14994786Y-10092738D02*
X14990024Y-10087976D01*
X14990024Y-10087976D02*
X14985262Y-10092738D01*
X14985262Y-10092738D02*
X14994786Y-10092738D01*
X15080500Y-10049881D02*
X15085262Y-10040357D01*
X15085262Y-10040357D02*
X15085262Y-10021309D01*
X15085262Y-10021309D02*
X15080500Y-10011786D01*
X15080500Y-10011786D02*
X15070976Y-10007024D01*
X15070976Y-10007024D02*
X15066214Y-10007024D01*
X15066214Y-10007024D02*
X15056690Y-10011786D01*
X15056690Y-10011786D02*
X15051928Y-10021309D01*
X15051928Y-10021309D02*
X15051928Y-10035595D01*
X15051928Y-10035595D02*
X15047167Y-10045119D01*
X15047167Y-10045119D02*
X15037643Y-10049881D01*
X15037643Y-10049881D02*
X15032881Y-10049881D01*
X15032881Y-10049881D02*
X15023357Y-10045119D01*
X15023357Y-10045119D02*
X15018595Y-10035595D01*
X15018595Y-10035595D02*
X15018595Y-10021309D01*
X15018595Y-10021309D02*
X15023357Y-10011786D01*
X15018595Y-9978452D02*
X15018595Y-9940357D01*
X14985262Y-9964167D02*
X15070976Y-9964167D01*
X15070976Y-9964167D02*
X15080500Y-9959405D01*
X15080500Y-9959405D02*
X15085262Y-9949881D01*
X15085262Y-9949881D02*
X15085262Y-9940357D01*
X15085262Y-9892738D02*
X15080500Y-9902262D01*
X15080500Y-9902262D02*
X15075738Y-9907024D01*
X15075738Y-9907024D02*
X15066214Y-9911786D01*
X15066214Y-9911786D02*
X15037643Y-9911786D01*
X15037643Y-9911786D02*
X15028119Y-9907024D01*
X15028119Y-9907024D02*
X15023357Y-9902262D01*
X15023357Y-9902262D02*
X15018595Y-9892738D01*
X15018595Y-9892738D02*
X15018595Y-9878452D01*
X15018595Y-9878452D02*
X15023357Y-9868928D01*
X15023357Y-9868928D02*
X15028119Y-9864167D01*
X15028119Y-9864167D02*
X15037643Y-9859405D01*
X15037643Y-9859405D02*
X15066214Y-9859405D01*
X15066214Y-9859405D02*
X15075738Y-9864167D01*
X15075738Y-9864167D02*
X15080500Y-9868928D01*
X15080500Y-9868928D02*
X15085262Y-9878452D01*
X15085262Y-9878452D02*
X15085262Y-9892738D01*
X15085262Y-9816547D02*
X15018595Y-9816547D01*
X15037643Y-9816547D02*
X15028119Y-9811786D01*
X15028119Y-9811786D02*
X15023357Y-9807024D01*
X15023357Y-9807024D02*
X15018595Y-9797500D01*
X15018595Y-9797500D02*
X15018595Y-9787976D01*
X15085262Y-9678452D02*
X14985262Y-9678452D01*
X14985262Y-9678452D02*
X15056690Y-9645119D01*
X15056690Y-9645119D02*
X14985262Y-9611786D01*
X14985262Y-9611786D02*
X15085262Y-9611786D01*
X15085262Y-9521309D02*
X15032881Y-9521309D01*
X15032881Y-9521309D02*
X15023357Y-9526071D01*
X15023357Y-9526071D02*
X15018595Y-9535595D01*
X15018595Y-9535595D02*
X15018595Y-9554643D01*
X15018595Y-9554643D02*
X15023357Y-9564166D01*
X15080500Y-9521309D02*
X15085262Y-9530833D01*
X15085262Y-9530833D02*
X15085262Y-9554643D01*
X15085262Y-9554643D02*
X15080500Y-9564166D01*
X15080500Y-9564166D02*
X15070976Y-9568928D01*
X15070976Y-9568928D02*
X15061452Y-9568928D01*
X15061452Y-9568928D02*
X15051928Y-9564166D01*
X15051928Y-9564166D02*
X15047167Y-9554643D01*
X15047167Y-9554643D02*
X15047167Y-9530833D01*
X15047167Y-9530833D02*
X15042405Y-9521309D01*
X15018595Y-9487976D02*
X15018595Y-9449881D01*
X14985262Y-9473690D02*
X15070976Y-9473690D01*
X15070976Y-9473690D02*
X15080500Y-9468928D01*
X15080500Y-9468928D02*
X15085262Y-9459405D01*
X15085262Y-9459405D02*
X15085262Y-9449881D01*
X15085262Y-9416547D02*
X15018595Y-9416547D01*
X15037643Y-9416547D02*
X15028119Y-9411785D01*
X15028119Y-9411785D02*
X15023357Y-9407024D01*
X15023357Y-9407024D02*
X15018595Y-9397500D01*
X15018595Y-9397500D02*
X15018595Y-9387976D01*
X15085262Y-9354643D02*
X15018595Y-9354643D01*
X14985262Y-9354643D02*
X14990024Y-9359404D01*
X14990024Y-9359404D02*
X14994786Y-9354643D01*
X14994786Y-9354643D02*
X14990024Y-9349881D01*
X14990024Y-9349881D02*
X14985262Y-9354643D01*
X14985262Y-9354643D02*
X14994786Y-9354643D01*
X15085262Y-9316547D02*
X15018595Y-9264166D01*
X15018595Y-9316547D02*
X15085262Y-9264166D01*
X14435238Y-12868500D02*
X14423809Y-12863738D01*
X14423809Y-12863738D02*
X14404762Y-12863738D01*
X14404762Y-12863738D02*
X14397143Y-12868500D01*
X14397143Y-12868500D02*
X14393333Y-12873262D01*
X14393333Y-12873262D02*
X14389524Y-12882786D01*
X14389524Y-12882786D02*
X14389524Y-12892309D01*
X14389524Y-12892309D02*
X14393333Y-12901833D01*
X14393333Y-12901833D02*
X14397143Y-12906595D01*
X14397143Y-12906595D02*
X14404762Y-12911357D01*
X14404762Y-12911357D02*
X14420000Y-12916119D01*
X14420000Y-12916119D02*
X14427619Y-12920881D01*
X14427619Y-12920881D02*
X14431428Y-12925643D01*
X14431428Y-12925643D02*
X14435238Y-12935167D01*
X14435238Y-12935167D02*
X14435238Y-12944690D01*
X14435238Y-12944690D02*
X14431428Y-12954214D01*
X14431428Y-12954214D02*
X14427619Y-12958976D01*
X14427619Y-12958976D02*
X14420000Y-12963738D01*
X14420000Y-12963738D02*
X14400952Y-12963738D01*
X14400952Y-12963738D02*
X14389524Y-12958976D01*
X14309524Y-12873262D02*
X14313333Y-12868500D01*
X14313333Y-12868500D02*
X14324762Y-12863738D01*
X14324762Y-12863738D02*
X14332381Y-12863738D01*
X14332381Y-12863738D02*
X14343809Y-12868500D01*
X14343809Y-12868500D02*
X14351428Y-12878024D01*
X14351428Y-12878024D02*
X14355238Y-12887548D01*
X14355238Y-12887548D02*
X14359048Y-12906595D01*
X14359048Y-12906595D02*
X14359048Y-12920881D01*
X14359048Y-12920881D02*
X14355238Y-12939928D01*
X14355238Y-12939928D02*
X14351428Y-12949452D01*
X14351428Y-12949452D02*
X14343809Y-12958976D01*
X14343809Y-12958976D02*
X14332381Y-12963738D01*
X14332381Y-12963738D02*
X14324762Y-12963738D01*
X14324762Y-12963738D02*
X14313333Y-12958976D01*
X14313333Y-12958976D02*
X14309524Y-12954214D01*
X14237143Y-12863738D02*
X14275238Y-12863738D01*
X14275238Y-12863738D02*
X14275238Y-12963738D01*
%TO.C,R13*%
X12228262Y-12016286D02*
X12180643Y-12049619D01*
X12228262Y-12073428D02*
X12128262Y-12073428D01*
X12128262Y-12073428D02*
X12128262Y-12035333D01*
X12128262Y-12035333D02*
X12133024Y-12025809D01*
X12133024Y-12025809D02*
X12137786Y-12021048D01*
X12137786Y-12021048D02*
X12147309Y-12016286D01*
X12147309Y-12016286D02*
X12161595Y-12016286D01*
X12161595Y-12016286D02*
X12171119Y-12021048D01*
X12171119Y-12021048D02*
X12175881Y-12025809D01*
X12175881Y-12025809D02*
X12180643Y-12035333D01*
X12180643Y-12035333D02*
X12180643Y-12073428D01*
X12228262Y-11921048D02*
X12228262Y-11978190D01*
X12228262Y-11949619D02*
X12128262Y-11949619D01*
X12128262Y-11949619D02*
X12142548Y-11959143D01*
X12142548Y-11959143D02*
X12152071Y-11968667D01*
X12152071Y-11968667D02*
X12156833Y-11978190D01*
X12128262Y-11887714D02*
X12128262Y-11825809D01*
X12128262Y-11825809D02*
X12166357Y-11859143D01*
X12166357Y-11859143D02*
X12166357Y-11844857D01*
X12166357Y-11844857D02*
X12171119Y-11835333D01*
X12171119Y-11835333D02*
X12175881Y-11830571D01*
X12175881Y-11830571D02*
X12185405Y-11825809D01*
X12185405Y-11825809D02*
X12209214Y-11825809D01*
X12209214Y-11825809D02*
X12218738Y-11830571D01*
X12218738Y-11830571D02*
X12223500Y-11835333D01*
X12223500Y-11835333D02*
X12228262Y-11844857D01*
X12228262Y-11844857D02*
X12228262Y-11873428D01*
X12228262Y-11873428D02*
X12223500Y-11882952D01*
X12223500Y-11882952D02*
X12218738Y-11887714D01*
%TO.C,R1*%
X10333262Y-11649667D02*
X10285643Y-11683000D01*
X10333262Y-11706809D02*
X10233262Y-11706809D01*
X10233262Y-11706809D02*
X10233262Y-11668714D01*
X10233262Y-11668714D02*
X10238024Y-11659190D01*
X10238024Y-11659190D02*
X10242786Y-11654428D01*
X10242786Y-11654428D02*
X10252310Y-11649667D01*
X10252310Y-11649667D02*
X10266595Y-11649667D01*
X10266595Y-11649667D02*
X10276119Y-11654428D01*
X10276119Y-11654428D02*
X10280881Y-11659190D01*
X10280881Y-11659190D02*
X10285643Y-11668714D01*
X10285643Y-11668714D02*
X10285643Y-11706809D01*
X10333262Y-11554428D02*
X10333262Y-11611571D01*
X10333262Y-11583000D02*
X10233262Y-11583000D01*
X10233262Y-11583000D02*
X10247548Y-11592524D01*
X10247548Y-11592524D02*
X10257071Y-11602047D01*
X10257071Y-11602047D02*
X10261833Y-11611571D01*
%TO.C,R14*%
X12010262Y-12010286D02*
X11962643Y-12043619D01*
X12010262Y-12067428D02*
X11910262Y-12067428D01*
X11910262Y-12067428D02*
X11910262Y-12029333D01*
X11910262Y-12029333D02*
X11915024Y-12019809D01*
X11915024Y-12019809D02*
X11919786Y-12015048D01*
X11919786Y-12015048D02*
X11929309Y-12010286D01*
X11929309Y-12010286D02*
X11943595Y-12010286D01*
X11943595Y-12010286D02*
X11953119Y-12015048D01*
X11953119Y-12015048D02*
X11957881Y-12019809D01*
X11957881Y-12019809D02*
X11962643Y-12029333D01*
X11962643Y-12029333D02*
X11962643Y-12067428D01*
X12010262Y-11915048D02*
X12010262Y-11972190D01*
X12010262Y-11943619D02*
X11910262Y-11943619D01*
X11910262Y-11943619D02*
X11924548Y-11953143D01*
X11924548Y-11953143D02*
X11934071Y-11962667D01*
X11934071Y-11962667D02*
X11938833Y-11972190D01*
X11943595Y-11829333D02*
X12010262Y-11829333D01*
X11905500Y-11853143D02*
X11976928Y-11876952D01*
X11976928Y-11876952D02*
X11976928Y-11815048D01*
%TO.C,U1*%
X15684809Y-11666262D02*
X15684809Y-11747214D01*
X15684809Y-11747214D02*
X15689571Y-11756738D01*
X15689571Y-11756738D02*
X15694333Y-11761500D01*
X15694333Y-11761500D02*
X15703857Y-11766262D01*
X15703857Y-11766262D02*
X15722905Y-11766262D01*
X15722905Y-11766262D02*
X15732428Y-11761500D01*
X15732428Y-11761500D02*
X15737190Y-11756738D01*
X15737190Y-11756738D02*
X15741952Y-11747214D01*
X15741952Y-11747214D02*
X15741952Y-11666262D01*
X15841952Y-11766262D02*
X15784809Y-11766262D01*
X15813381Y-11766262D02*
X15813381Y-11666262D01*
X15813381Y-11666262D02*
X15803857Y-11680548D01*
X15803857Y-11680548D02*
X15794333Y-11690071D01*
X15794333Y-11690071D02*
X15784809Y-11694833D01*
%TO.C,J4*%
X14212667Y-11042762D02*
X14212667Y-11114190D01*
X14212667Y-11114190D02*
X14207905Y-11128476D01*
X14207905Y-11128476D02*
X14198381Y-11138000D01*
X14198381Y-11138000D02*
X14184095Y-11142762D01*
X14184095Y-11142762D02*
X14174571Y-11142762D01*
X14303143Y-11076095D02*
X14303143Y-11142762D01*
X14279333Y-11038000D02*
X14255524Y-11109429D01*
X14255524Y-11109429D02*
X14317428Y-11109429D01*
%TO.C,A1*%
X11631071Y-12902690D02*
X11678690Y-12902690D01*
X11621548Y-12931262D02*
X11654881Y-12831262D01*
X11654881Y-12831262D02*
X11688214Y-12931262D01*
X11773928Y-12931262D02*
X11716786Y-12931262D01*
X11745357Y-12931262D02*
X11745357Y-12831262D01*
X11745357Y-12831262D02*
X11735833Y-12845548D01*
X11735833Y-12845548D02*
X11726309Y-12855071D01*
X11726309Y-12855071D02*
X11716786Y-12859833D01*
X11886190Y-8914738D02*
X11886190Y-8833786D01*
X11886190Y-8833786D02*
X11881428Y-8824262D01*
X11881428Y-8824262D02*
X11876667Y-8819500D01*
X11876667Y-8819500D02*
X11867143Y-8814738D01*
X11867143Y-8814738D02*
X11848095Y-8814738D01*
X11848095Y-8814738D02*
X11838571Y-8819500D01*
X11838571Y-8819500D02*
X11833809Y-8824262D01*
X11833809Y-8824262D02*
X11829048Y-8833786D01*
X11829048Y-8833786D02*
X11829048Y-8914738D01*
X11786190Y-8819500D02*
X11771905Y-8814738D01*
X11771905Y-8814738D02*
X11748095Y-8814738D01*
X11748095Y-8814738D02*
X11738571Y-8819500D01*
X11738571Y-8819500D02*
X11733809Y-8824262D01*
X11733809Y-8824262D02*
X11729048Y-8833786D01*
X11729048Y-8833786D02*
X11729048Y-8843310D01*
X11729048Y-8843310D02*
X11733809Y-8852833D01*
X11733809Y-8852833D02*
X11738571Y-8857595D01*
X11738571Y-8857595D02*
X11748095Y-8862357D01*
X11748095Y-8862357D02*
X11767143Y-8867119D01*
X11767143Y-8867119D02*
X11776667Y-8871881D01*
X11776667Y-8871881D02*
X11781428Y-8876643D01*
X11781428Y-8876643D02*
X11786190Y-8886167D01*
X11786190Y-8886167D02*
X11786190Y-8895690D01*
X11786190Y-8895690D02*
X11781428Y-8905214D01*
X11781428Y-8905214D02*
X11776667Y-8909976D01*
X11776667Y-8909976D02*
X11767143Y-8914738D01*
X11767143Y-8914738D02*
X11743333Y-8914738D01*
X11743333Y-8914738D02*
X11729048Y-8909976D01*
X11652857Y-8867119D02*
X11638571Y-8862357D01*
X11638571Y-8862357D02*
X11633809Y-8857595D01*
X11633809Y-8857595D02*
X11629048Y-8848071D01*
X11629048Y-8848071D02*
X11629048Y-8833786D01*
X11629048Y-8833786D02*
X11633809Y-8824262D01*
X11633809Y-8824262D02*
X11638571Y-8819500D01*
X11638571Y-8819500D02*
X11648095Y-8814738D01*
X11648095Y-8814738D02*
X11686190Y-8814738D01*
X11686190Y-8814738D02*
X11686190Y-8914738D01*
X11686190Y-8914738D02*
X11652857Y-8914738D01*
X11652857Y-8914738D02*
X11643333Y-8909976D01*
X11643333Y-8909976D02*
X11638571Y-8905214D01*
X11638571Y-8905214D02*
X11633809Y-8895690D01*
X11633809Y-8895690D02*
X11633809Y-8886167D01*
X11633809Y-8886167D02*
X11638571Y-8876643D01*
X11638571Y-8876643D02*
X11643333Y-8871881D01*
X11643333Y-8871881D02*
X11652857Y-8867119D01*
X11652857Y-8867119D02*
X11686190Y-8867119D01*
%TO.C,D1*%
X13459190Y-8897262D02*
X13459190Y-8797262D01*
X13459190Y-8797262D02*
X13483000Y-8797262D01*
X13483000Y-8797262D02*
X13497286Y-8802024D01*
X13497286Y-8802024D02*
X13506809Y-8811548D01*
X13506809Y-8811548D02*
X13511571Y-8821071D01*
X13511571Y-8821071D02*
X13516333Y-8840119D01*
X13516333Y-8840119D02*
X13516333Y-8854405D01*
X13516333Y-8854405D02*
X13511571Y-8873452D01*
X13511571Y-8873452D02*
X13506809Y-8882976D01*
X13506809Y-8882976D02*
X13497286Y-8892500D01*
X13497286Y-8892500D02*
X13483000Y-8897262D01*
X13483000Y-8897262D02*
X13459190Y-8897262D01*
X13611571Y-8897262D02*
X13554429Y-8897262D01*
X13583000Y-8897262D02*
X13583000Y-8797262D01*
X13583000Y-8797262D02*
X13573476Y-8811548D01*
X13573476Y-8811548D02*
X13563952Y-8821071D01*
X13563952Y-8821071D02*
X13554429Y-8825833D01*
%TO.C,D3*%
X13463190Y-9154262D02*
X13463190Y-9054262D01*
X13463190Y-9054262D02*
X13487000Y-9054262D01*
X13487000Y-9054262D02*
X13501286Y-9059024D01*
X13501286Y-9059024D02*
X13510809Y-9068548D01*
X13510809Y-9068548D02*
X13515571Y-9078071D01*
X13515571Y-9078071D02*
X13520333Y-9097119D01*
X13520333Y-9097119D02*
X13520333Y-9111405D01*
X13520333Y-9111405D02*
X13515571Y-9130452D01*
X13515571Y-9130452D02*
X13510809Y-9139976D01*
X13510809Y-9139976D02*
X13501286Y-9149500D01*
X13501286Y-9149500D02*
X13487000Y-9154262D01*
X13487000Y-9154262D02*
X13463190Y-9154262D01*
X13553667Y-9054262D02*
X13615571Y-9054262D01*
X13615571Y-9054262D02*
X13582238Y-9092357D01*
X13582238Y-9092357D02*
X13596524Y-9092357D01*
X13596524Y-9092357D02*
X13606048Y-9097119D01*
X13606048Y-9097119D02*
X13610809Y-9101881D01*
X13610809Y-9101881D02*
X13615571Y-9111405D01*
X13615571Y-9111405D02*
X13615571Y-9135214D01*
X13615571Y-9135214D02*
X13610809Y-9144738D01*
X13610809Y-9144738D02*
X13606048Y-9149500D01*
X13606048Y-9149500D02*
X13596524Y-9154262D01*
X13596524Y-9154262D02*
X13567952Y-9154262D01*
X13567952Y-9154262D02*
X13558429Y-9149500D01*
X13558429Y-9149500D02*
X13553667Y-9144738D01*
%TO.C,D2*%
X15733262Y-12107809D02*
X15633262Y-12107809D01*
X15633262Y-12107809D02*
X15633262Y-12084000D01*
X15633262Y-12084000D02*
X15638024Y-12069714D01*
X15638024Y-12069714D02*
X15647548Y-12060190D01*
X15647548Y-12060190D02*
X15657071Y-12055428D01*
X15657071Y-12055428D02*
X15676119Y-12050667D01*
X15676119Y-12050667D02*
X15690405Y-12050667D01*
X15690405Y-12050667D02*
X15709452Y-12055428D01*
X15709452Y-12055428D02*
X15718976Y-12060190D01*
X15718976Y-12060190D02*
X15728500Y-12069714D01*
X15728500Y-12069714D02*
X15733262Y-12084000D01*
X15733262Y-12084000D02*
X15733262Y-12107809D01*
X15642786Y-12012571D02*
X15638024Y-12007809D01*
X15638024Y-12007809D02*
X15633262Y-11998286D01*
X15633262Y-11998286D02*
X15633262Y-11974476D01*
X15633262Y-11974476D02*
X15638024Y-11964952D01*
X15638024Y-11964952D02*
X15642786Y-11960190D01*
X15642786Y-11960190D02*
X15652309Y-11955428D01*
X15652309Y-11955428D02*
X15661833Y-11955428D01*
X15661833Y-11955428D02*
X15676119Y-11960190D01*
X15676119Y-11960190D02*
X15733262Y-12017333D01*
X15733262Y-12017333D02*
X15733262Y-11955428D01*
%TO.C,J5*%
X15495262Y-8788333D02*
X15566690Y-8788333D01*
X15566690Y-8788333D02*
X15580976Y-8793095D01*
X15580976Y-8793095D02*
X15590500Y-8802619D01*
X15590500Y-8802619D02*
X15595262Y-8816905D01*
X15595262Y-8816905D02*
X15595262Y-8826429D01*
X15495262Y-8693095D02*
X15495262Y-8740714D01*
X15495262Y-8740714D02*
X15542881Y-8745476D01*
X15542881Y-8745476D02*
X15538119Y-8740714D01*
X15538119Y-8740714D02*
X15533357Y-8731190D01*
X15533357Y-8731190D02*
X15533357Y-8707381D01*
X15533357Y-8707381D02*
X15538119Y-8697857D01*
X15538119Y-8697857D02*
X15542881Y-8693095D01*
X15542881Y-8693095D02*
X15552405Y-8688333D01*
X15552405Y-8688333D02*
X15576214Y-8688333D01*
X15576214Y-8688333D02*
X15585738Y-8693095D01*
X15585738Y-8693095D02*
X15590500Y-8697857D01*
X15590500Y-8697857D02*
X15595262Y-8707381D01*
X15595262Y-8707381D02*
X15595262Y-8731190D01*
X15595262Y-8731190D02*
X15590500Y-8740714D01*
X15590500Y-8740714D02*
X15585738Y-8745476D01*
%TO.C,J8*%
X17244167Y-11407262D02*
X17244167Y-11478690D01*
X17244167Y-11478690D02*
X17239405Y-11492976D01*
X17239405Y-11492976D02*
X17229881Y-11502500D01*
X17229881Y-11502500D02*
X17215595Y-11507262D01*
X17215595Y-11507262D02*
X17206071Y-11507262D01*
X17306071Y-11450119D02*
X17296548Y-11445357D01*
X17296548Y-11445357D02*
X17291786Y-11440595D01*
X17291786Y-11440595D02*
X17287024Y-11431071D01*
X17287024Y-11431071D02*
X17287024Y-11426309D01*
X17287024Y-11426309D02*
X17291786Y-11416786D01*
X17291786Y-11416786D02*
X17296548Y-11412024D01*
X17296548Y-11412024D02*
X17306071Y-11407262D01*
X17306071Y-11407262D02*
X17325119Y-11407262D01*
X17325119Y-11407262D02*
X17334643Y-11412024D01*
X17334643Y-11412024D02*
X17339405Y-11416786D01*
X17339405Y-11416786D02*
X17344167Y-11426309D01*
X17344167Y-11426309D02*
X17344167Y-11431071D01*
X17344167Y-11431071D02*
X17339405Y-11440595D01*
X17339405Y-11440595D02*
X17334643Y-11445357D01*
X17334643Y-11445357D02*
X17325119Y-11450119D01*
X17325119Y-11450119D02*
X17306071Y-11450119D01*
X17306071Y-11450119D02*
X17296548Y-11454881D01*
X17296548Y-11454881D02*
X17291786Y-11459643D01*
X17291786Y-11459643D02*
X17287024Y-11469167D01*
X17287024Y-11469167D02*
X17287024Y-11488214D01*
X17287024Y-11488214D02*
X17291786Y-11497738D01*
X17291786Y-11497738D02*
X17296548Y-11502500D01*
X17296548Y-11502500D02*
X17306071Y-11507262D01*
X17306071Y-11507262D02*
X17325119Y-11507262D01*
X17325119Y-11507262D02*
X17334643Y-11502500D01*
X17334643Y-11502500D02*
X17339405Y-11497738D01*
X17339405Y-11497738D02*
X17344167Y-11488214D01*
X17344167Y-11488214D02*
X17344167Y-11469167D01*
X17344167Y-11469167D02*
X17339405Y-11459643D01*
X17339405Y-11459643D02*
X17334643Y-11454881D01*
X17334643Y-11454881D02*
X17325119Y-11450119D01*
%TO.C,J2*%
X10686667Y-12183762D02*
X10686667Y-12255190D01*
X10686667Y-12255190D02*
X10681905Y-12269476D01*
X10681905Y-12269476D02*
X10672381Y-12279000D01*
X10672381Y-12279000D02*
X10658095Y-12283762D01*
X10658095Y-12283762D02*
X10648571Y-12283762D01*
X10729524Y-12193286D02*
X10734286Y-12188524D01*
X10734286Y-12188524D02*
X10743810Y-12183762D01*
X10743810Y-12183762D02*
X10767619Y-12183762D01*
X10767619Y-12183762D02*
X10777143Y-12188524D01*
X10777143Y-12188524D02*
X10781905Y-12193286D01*
X10781905Y-12193286D02*
X10786667Y-12202809D01*
X10786667Y-12202809D02*
X10786667Y-12212333D01*
X10786667Y-12212333D02*
X10781905Y-12226619D01*
X10781905Y-12226619D02*
X10724762Y-12283762D01*
X10724762Y-12283762D02*
X10786667Y-12283762D01*
%TO.C,J3*%
X12752262Y-12540333D02*
X12823690Y-12540333D01*
X12823690Y-12540333D02*
X12837976Y-12545095D01*
X12837976Y-12545095D02*
X12847500Y-12554619D01*
X12847500Y-12554619D02*
X12852262Y-12568905D01*
X12852262Y-12568905D02*
X12852262Y-12578428D01*
X12752262Y-12502238D02*
X12752262Y-12440333D01*
X12752262Y-12440333D02*
X12790357Y-12473667D01*
X12790357Y-12473667D02*
X12790357Y-12459381D01*
X12790357Y-12459381D02*
X12795119Y-12449857D01*
X12795119Y-12449857D02*
X12799881Y-12445095D01*
X12799881Y-12445095D02*
X12809405Y-12440333D01*
X12809405Y-12440333D02*
X12833214Y-12440333D01*
X12833214Y-12440333D02*
X12842738Y-12445095D01*
X12842738Y-12445095D02*
X12847500Y-12449857D01*
X12847500Y-12449857D02*
X12852262Y-12459381D01*
X12852262Y-12459381D02*
X12852262Y-12487952D01*
X12852262Y-12487952D02*
X12847500Y-12497476D01*
X12847500Y-12497476D02*
X12842738Y-12502238D01*
%TO.C,J7*%
X16622667Y-10960762D02*
X16622667Y-11032190D01*
X16622667Y-11032190D02*
X16617905Y-11046476D01*
X16617905Y-11046476D02*
X16608381Y-11056000D01*
X16608381Y-11056000D02*
X16594095Y-11060762D01*
X16594095Y-11060762D02*
X16584571Y-11060762D01*
X16660762Y-10960762D02*
X16727428Y-10960762D01*
X16727428Y-10960762D02*
X16684571Y-11060762D01*
%TO.C,J1*%
X10141667Y-9519262D02*
X10141667Y-9590690D01*
X10141667Y-9590690D02*
X10136905Y-9604976D01*
X10136905Y-9604976D02*
X10127381Y-9614500D01*
X10127381Y-9614500D02*
X10113095Y-9619262D01*
X10113095Y-9619262D02*
X10103571Y-9619262D01*
X10241667Y-9619262D02*
X10184524Y-9619262D01*
X10213095Y-9619262D02*
X10213095Y-9519262D01*
X10213095Y-9519262D02*
X10203571Y-9533548D01*
X10203571Y-9533548D02*
X10194048Y-9543071D01*
X10194048Y-9543071D02*
X10184524Y-9547833D01*
%TO.C,R2*%
X10339262Y-12081667D02*
X10291643Y-12115000D01*
X10339262Y-12138809D02*
X10239262Y-12138809D01*
X10239262Y-12138809D02*
X10239262Y-12100714D01*
X10239262Y-12100714D02*
X10244024Y-12091190D01*
X10244024Y-12091190D02*
X10248786Y-12086428D01*
X10248786Y-12086428D02*
X10258310Y-12081667D01*
X10258310Y-12081667D02*
X10272595Y-12081667D01*
X10272595Y-12081667D02*
X10282119Y-12086428D01*
X10282119Y-12086428D02*
X10286881Y-12091190D01*
X10286881Y-12091190D02*
X10291643Y-12100714D01*
X10291643Y-12100714D02*
X10291643Y-12138809D01*
X10248786Y-12043571D02*
X10244024Y-12038809D01*
X10244024Y-12038809D02*
X10239262Y-12029286D01*
X10239262Y-12029286D02*
X10239262Y-12005476D01*
X10239262Y-12005476D02*
X10244024Y-11995952D01*
X10244024Y-11995952D02*
X10248786Y-11991190D01*
X10248786Y-11991190D02*
X10258310Y-11986428D01*
X10258310Y-11986428D02*
X10267833Y-11986428D01*
X10267833Y-11986428D02*
X10282119Y-11991190D01*
X10282119Y-11991190D02*
X10339262Y-12048333D01*
X10339262Y-12048333D02*
X10339262Y-11986428D01*
%TO.C,J6*%
X14588262Y-8790333D02*
X14659690Y-8790333D01*
X14659690Y-8790333D02*
X14673976Y-8795095D01*
X14673976Y-8795095D02*
X14683500Y-8804619D01*
X14683500Y-8804619D02*
X14688262Y-8818905D01*
X14688262Y-8818905D02*
X14688262Y-8828429D01*
X14588262Y-8699857D02*
X14588262Y-8718905D01*
X14588262Y-8718905D02*
X14593024Y-8728429D01*
X14593024Y-8728429D02*
X14597786Y-8733190D01*
X14597786Y-8733190D02*
X14612071Y-8742714D01*
X14612071Y-8742714D02*
X14631119Y-8747476D01*
X14631119Y-8747476D02*
X14669214Y-8747476D01*
X14669214Y-8747476D02*
X14678738Y-8742714D01*
X14678738Y-8742714D02*
X14683500Y-8737952D01*
X14683500Y-8737952D02*
X14688262Y-8728429D01*
X14688262Y-8728429D02*
X14688262Y-8709381D01*
X14688262Y-8709381D02*
X14683500Y-8699857D01*
X14683500Y-8699857D02*
X14678738Y-8695095D01*
X14678738Y-8695095D02*
X14669214Y-8690333D01*
X14669214Y-8690333D02*
X14645405Y-8690333D01*
X14645405Y-8690333D02*
X14635881Y-8695095D01*
X14635881Y-8695095D02*
X14631119Y-8699857D01*
X14631119Y-8699857D02*
X14626357Y-8709381D01*
X14626357Y-8709381D02*
X14626357Y-8728429D01*
X14626357Y-8728429D02*
X14631119Y-8737952D01*
X14631119Y-8737952D02*
X14635881Y-8742714D01*
X14635881Y-8742714D02*
X14645405Y-8747476D01*
%TO.C,U3*%
X13256809Y-11750262D02*
X13256809Y-11831214D01*
X13256809Y-11831214D02*
X13261571Y-11840738D01*
X13261571Y-11840738D02*
X13266333Y-11845500D01*
X13266333Y-11845500D02*
X13275857Y-11850262D01*
X13275857Y-11850262D02*
X13294905Y-11850262D01*
X13294905Y-11850262D02*
X13304428Y-11845500D01*
X13304428Y-11845500D02*
X13309190Y-11840738D01*
X13309190Y-11840738D02*
X13313952Y-11831214D01*
X13313952Y-11831214D02*
X13313952Y-11750262D01*
X13352048Y-11750262D02*
X13413952Y-11750262D01*
X13413952Y-11750262D02*
X13380619Y-11788357D01*
X13380619Y-11788357D02*
X13394905Y-11788357D01*
X13394905Y-11788357D02*
X13404428Y-11793119D01*
X13404428Y-11793119D02*
X13409190Y-11797881D01*
X13409190Y-11797881D02*
X13413952Y-11807405D01*
X13413952Y-11807405D02*
X13413952Y-11831214D01*
X13413952Y-11831214D02*
X13409190Y-11840738D01*
X13409190Y-11840738D02*
X13404428Y-11845500D01*
X13404428Y-11845500D02*
X13394905Y-11850262D01*
X13394905Y-11850262D02*
X13366333Y-11850262D01*
X13366333Y-11850262D02*
X13356809Y-11845500D01*
X13356809Y-11845500D02*
X13352048Y-11840738D01*
%TO.C,J9*%
X14802667Y-11413262D02*
X14802667Y-11484690D01*
X14802667Y-11484690D02*
X14797905Y-11498976D01*
X14797905Y-11498976D02*
X14788381Y-11508500D01*
X14788381Y-11508500D02*
X14774095Y-11513262D01*
X14774095Y-11513262D02*
X14764571Y-11513262D01*
X14855048Y-11513262D02*
X14874095Y-11513262D01*
X14874095Y-11513262D02*
X14883619Y-11508500D01*
X14883619Y-11508500D02*
X14888381Y-11503738D01*
X14888381Y-11503738D02*
X14897905Y-11489452D01*
X14897905Y-11489452D02*
X14902667Y-11470405D01*
X14902667Y-11470405D02*
X14902667Y-11432309D01*
X14902667Y-11432309D02*
X14897905Y-11422786D01*
X14897905Y-11422786D02*
X14893143Y-11418024D01*
X14893143Y-11418024D02*
X14883619Y-11413262D01*
X14883619Y-11413262D02*
X14864571Y-11413262D01*
X14864571Y-11413262D02*
X14855048Y-11418024D01*
X14855048Y-11418024D02*
X14850286Y-11422786D01*
X14850286Y-11422786D02*
X14845524Y-11432309D01*
X14845524Y-11432309D02*
X14845524Y-11456119D01*
X14845524Y-11456119D02*
X14850286Y-11465643D01*
X14850286Y-11465643D02*
X14855048Y-11470405D01*
X14855048Y-11470405D02*
X14864571Y-11475167D01*
X14864571Y-11475167D02*
X14883619Y-11475167D01*
X14883619Y-11475167D02*
X14893143Y-11470405D01*
X14893143Y-11470405D02*
X14897905Y-11465643D01*
X14897905Y-11465643D02*
X14902667Y-11456119D01*
%TO.C,SW1*%
X13891500Y-8892333D02*
X13896262Y-8878048D01*
X13896262Y-8878048D02*
X13896262Y-8854238D01*
X13896262Y-8854238D02*
X13891500Y-8844714D01*
X13891500Y-8844714D02*
X13886738Y-8839952D01*
X13886738Y-8839952D02*
X13877214Y-8835190D01*
X13877214Y-8835190D02*
X13867690Y-8835190D01*
X13867690Y-8835190D02*
X13858167Y-8839952D01*
X13858167Y-8839952D02*
X13853405Y-8844714D01*
X13853405Y-8844714D02*
X13848643Y-8854238D01*
X13848643Y-8854238D02*
X13843881Y-8873286D01*
X13843881Y-8873286D02*
X13839119Y-8882809D01*
X13839119Y-8882809D02*
X13834357Y-8887571D01*
X13834357Y-8887571D02*
X13824833Y-8892333D01*
X13824833Y-8892333D02*
X13815309Y-8892333D01*
X13815309Y-8892333D02*
X13805786Y-8887571D01*
X13805786Y-8887571D02*
X13801024Y-8882809D01*
X13801024Y-8882809D02*
X13796262Y-8873286D01*
X13796262Y-8873286D02*
X13796262Y-8849476D01*
X13796262Y-8849476D02*
X13801024Y-8835190D01*
X13796262Y-8801857D02*
X13896262Y-8778048D01*
X13896262Y-8778048D02*
X13824833Y-8759000D01*
X13824833Y-8759000D02*
X13896262Y-8739952D01*
X13896262Y-8739952D02*
X13796262Y-8716143D01*
X13896262Y-8625667D02*
X13896262Y-8682809D01*
X13896262Y-8654238D02*
X13796262Y-8654238D01*
X13796262Y-8654238D02*
X13810548Y-8663762D01*
X13810548Y-8663762D02*
X13820071Y-8673286D01*
X13820071Y-8673286D02*
X13824833Y-8682809D01*
D14*
%TO.C,R13*%
X12093000Y-11620456D02*
X12093000Y-11475044D01*
X12275000Y-11620456D02*
X12275000Y-11475044D01*
%TO.C,R1*%
X10563000Y-11667044D02*
X10563000Y-11812456D01*
X10381000Y-11667044D02*
X10381000Y-11812456D01*
%TO.C,R14*%
X11871000Y-11622456D02*
X11871000Y-11477044D01*
X12053000Y-11622456D02*
X12053000Y-11477044D01*
%TO.C,U1*%
X16026000Y-11620000D02*
X16026000Y-9576000D01*
X16026000Y-9576000D02*
X15496000Y-9576000D01*
X15861000Y-11620000D02*
X16026000Y-11620000D01*
X15496000Y-11620000D02*
X15661000Y-11620000D01*
X15496000Y-9576000D02*
X15496000Y-11620000D01*
X15861000Y-11620000D02*
G75*
G03*
X15661000Y-11620000I-100000J0D01*
G01*
%TO.C,J4*%
X14379000Y-10819500D02*
X14379000Y-9670500D01*
X14379000Y-10819500D02*
X14322000Y-10819500D01*
X14379000Y-9670500D02*
X14276753Y-9670500D01*
X14246000Y-10959000D02*
X14113000Y-10959000D01*
X14215247Y-9670500D02*
X14113000Y-9670500D01*
X14170000Y-10819500D02*
X14113000Y-10819500D01*
X14113000Y-10959000D02*
X14113000Y-10883000D01*
X14113000Y-10819500D02*
X14113000Y-9670500D01*
%TO.C,A1*%
X12662000Y-12811000D02*
X12662000Y-12544000D01*
X12662000Y-12290000D02*
X12662000Y-8467000D01*
X12662000Y-8467000D02*
X12154000Y-8467000D01*
X12395000Y-12544000D02*
X12662000Y-12544000D01*
X12395000Y-12290000D02*
X12662000Y-12290000D01*
X12395000Y-12290000D02*
X12395000Y-12544000D01*
X12395000Y-12290000D02*
X12395000Y-8734000D01*
X12395000Y-8734000D02*
X12662000Y-8734000D01*
X12154000Y-9255000D02*
X11366000Y-9255000D01*
X12154000Y-8213000D02*
X12154000Y-9255000D01*
X11366000Y-9255000D02*
X11366000Y-8213000D01*
X11366000Y-8213000D02*
X12154000Y-8213000D01*
X11125000Y-12544000D02*
X11125000Y-8734000D01*
X11125000Y-12544000D02*
X10858000Y-12544000D01*
X11125000Y-8734000D02*
X10858000Y-8734000D01*
X10858000Y-12811000D02*
X12662000Y-12811000D01*
X10858000Y-8467000D02*
X11366000Y-8467000D01*
X10858000Y-8467000D02*
X10858000Y-12811000D01*
%TO.C,D1*%
X13357500Y-8964500D02*
X13357500Y-8737500D01*
X13357500Y-8737500D02*
X12969000Y-8737500D01*
X12969000Y-8964500D02*
X13357500Y-8964500D01*
%TO.C,D3*%
X13365500Y-9221500D02*
X13365500Y-8994500D01*
X13365500Y-8994500D02*
X12977000Y-8994500D01*
X12977000Y-9221500D02*
X13365500Y-9221500D01*
%TO.C,D2*%
X15763500Y-12276500D02*
X15990500Y-12276500D01*
X15990500Y-12276500D02*
X15990500Y-11888000D01*
X15763500Y-11888000D02*
X15763500Y-12276500D01*
%TO.C,J5*%
X15953000Y-8888000D02*
X16213000Y-8888000D01*
X15953000Y-8888000D02*
X15953000Y-8622000D01*
X16213000Y-8888000D02*
X16213000Y-8622000D01*
X15693000Y-8755000D02*
X15693000Y-8622000D01*
X15693000Y-8622000D02*
X15826000Y-8622000D01*
X15953000Y-8622000D02*
X16213000Y-8622000D01*
%TO.C,J8*%
X17410500Y-11361000D02*
X17277500Y-11361000D01*
X17410500Y-11228000D02*
X17410500Y-11361000D01*
X17410500Y-11101000D02*
X17410500Y-9063000D01*
X17410500Y-11101000D02*
X17144500Y-11101000D01*
X17410500Y-9063000D02*
X17144500Y-9063000D01*
X17144500Y-11101000D02*
X17144500Y-9063000D01*
%TO.C,J2*%
X10609000Y-11832000D02*
X10720000Y-11832000D01*
X10609000Y-11908000D02*
X10609000Y-11832000D01*
X10609000Y-11984000D02*
X10609000Y-12104500D01*
X10609000Y-11984000D02*
X10663653Y-11984000D01*
X10609000Y-12104500D02*
X10689247Y-12104500D01*
X10750753Y-12104500D02*
X10831000Y-12104500D01*
X10776347Y-11984000D02*
X10831000Y-11984000D01*
X10831000Y-11984000D02*
X10831000Y-12104500D01*
%TO.C,J3*%
X13210000Y-12640000D02*
X16010000Y-12640000D01*
X13210000Y-12640000D02*
X13210000Y-12374000D01*
X16010000Y-12640000D02*
X16010000Y-12374000D01*
X12950000Y-12507000D02*
X12950000Y-12374000D01*
X12950000Y-12374000D02*
X13083000Y-12374000D01*
X13210000Y-12374000D02*
X16010000Y-12374000D01*
%TO.C,J7*%
X16789000Y-10737500D02*
X16789000Y-9588500D01*
X16789000Y-10737500D02*
X16732000Y-10737500D01*
X16789000Y-9588500D02*
X16686753Y-9588500D01*
X16656000Y-10877000D02*
X16523000Y-10877000D01*
X16625247Y-9588500D02*
X16523000Y-9588500D01*
X16580000Y-10737500D02*
X16523000Y-10737500D01*
X16523000Y-10877000D02*
X16523000Y-10801000D01*
X16523000Y-10737500D02*
X16523000Y-9588500D01*
%TO.C,J1*%
X10042000Y-9977000D02*
X10042000Y-11507000D01*
X10042000Y-9977000D02*
X10308000Y-9977000D01*
X10042000Y-11507000D02*
X10308000Y-11507000D01*
X10175000Y-9717000D02*
X10308000Y-9717000D01*
X10308000Y-9717000D02*
X10308000Y-9850000D01*
X10308000Y-9977000D02*
X10308000Y-11507000D01*
%TO.C,R2*%
X10561000Y-12117544D02*
X10561000Y-12262956D01*
X10379000Y-12117544D02*
X10379000Y-12262956D01*
%TO.C,J6*%
X15046000Y-8890000D02*
X15306000Y-8890000D01*
X15046000Y-8890000D02*
X15046000Y-8624000D01*
X15306000Y-8890000D02*
X15306000Y-8624000D01*
X14786000Y-8757000D02*
X14786000Y-8624000D01*
X14786000Y-8624000D02*
X14919000Y-8624000D01*
X15046000Y-8624000D02*
X15306000Y-8624000D01*
%TO.C,U3*%
X13598000Y-11704000D02*
X13598000Y-9660000D01*
X13598000Y-9660000D02*
X13068000Y-9660000D01*
X13433000Y-11704000D02*
X13598000Y-11704000D01*
X13068000Y-11704000D02*
X13233000Y-11704000D01*
X13068000Y-9660000D02*
X13068000Y-11704000D01*
X13433000Y-11704000D02*
G75*
G03*
X13233000Y-11704000I-100000J0D01*
G01*
%TO.C,J9*%
X14969000Y-11367000D02*
X14836000Y-11367000D01*
X14969000Y-11234000D02*
X14969000Y-11367000D01*
X14969000Y-11107000D02*
X14969000Y-9069000D01*
X14969000Y-11107000D02*
X14703000Y-11107000D01*
X14969000Y-9069000D02*
X14703000Y-9069000D01*
X14703000Y-11107000D02*
X14703000Y-9069000D01*
%TO.C,SW1*%
X14254000Y-8892000D02*
X14514000Y-8892000D01*
X14254000Y-8892000D02*
X14254000Y-8626000D01*
X14514000Y-8892000D02*
X14514000Y-8626000D01*
X13994000Y-8759000D02*
X13994000Y-8626000D01*
X13994000Y-8626000D02*
X14127000Y-8626000D01*
X14254000Y-8626000D02*
X14514000Y-8626000D01*
%TD*%
D15*
X9686030Y-12697000D02*
G75*
G03*
X9686030Y-12697000I-148030J0D01*
G01*
X17573030Y-8695970D02*
G75*
G03*
X17573030Y-8695970I-148030J0D01*
G01*
X17069032Y-8657500D02*
G75*
G03*
X17069032Y-8657500I-141532J0D01*
G01*
X10265564Y-8657500D02*
G75*
G03*
X10265564Y-8657500I-141532J0D01*
G01*
X9675660Y-8695000D02*
G75*
G03*
X9675660Y-8695000I-146660J0D01*
G01*
X9193000Y-8258000D02*
X17731000Y-8258000D01*
X17731000Y-13181000D01*
X9193000Y-13181000D01*
X9193000Y-8258000D01*
X10311532Y-12567500D02*
G75*
G03*
X10311532Y-12567500I-141532J0D01*
G01*
X17573030Y-12702970D02*
G75*
G03*
X17573030Y-12702970I-148030J0D01*
G01*
X17069532Y-12580000D02*
G75*
G03*
X17069532Y-12580000I-141532J0D01*
G01*
M02*
